{"glyphs":{"0":{"ha":792,"x_min":63,"x_max":736,"o":"m 729 417 q 697 176 736 271 q 580 33 657 81 q 396 -14 503 -14 q 149 92 236 -14 q 63 417 63 199 q 101 655 63 563 q 215 794 140 747 q 396 847 289 840 q 574 807 503 854 q 684 661 646 760 q 729 417 722 563 m 201 417 q 250 173 201 244 q 396 111 299 101 q 506 146 463 118 q 569 238 549 174 q 590 417 590 301 q 569 605 590 532 q 504 710 547 678 q 396 736 461 743 q 287 698 331 729 q 222 599 243 667 q 201 417 201 532 z "},"1":{"ha":536,"x_min":18,"x_max":518,"o":"m 97 -14 q 35 5 51 -17 q 18 53 18 26 q 31 91 18 78 q 69 104 44 104 l 178 104 q 192 118 192 104 l 192 636 q 187 647 192 643 q 175 646 182 650 q 123 618 150 632 q 71 604 96 604 q 32 629 46 604 q 18 676 18 654 q 30 713 18 700 q 64 731 42 725 q 158 762 115 743 q 239 810 200 781 q 287 831 263 826 q 328 824 311 836 q 344 778 346 811 l 331 118 q 335 108 331 113 q 344 104 339 104 q 399 110 372 106 q 453 118 426 114 q 497 105 476 122 q 518 51 518 88 q 498 8 518 17 q 453 0 478 0 q 275 -3 357 0 q 97 -14 193 -7 z "},"2":{"ha":707,"x_min":14,"x_max":651,"o":"m 83 -14 q 34 10 50 -17 q 17 71 18 36 q 35 177 17 129 q 85 264 53 225 q 162 335 118 303 q 257 392 206 367 q 347 433 301 414 q 430 474 392 453 q 491 526 468 496 q 514 597 514 556 q 482 685 514 654 q 405 730 450 717 q 317 743 360 743 q 206 728 256 743 q 111 683 157 713 q 75 674 94 674 q 40 686 56 674 q 19 722 25 699 q 28 767 14 747 q 65 796 43 786 q 188 834 124 821 q 317 847 253 847 q 492 818 421 847 q 601 733 564 789 q 639 597 639 678 q 616 504 639 544 q 556 433 593 464 q 475 380 518 403 q 390 339 432 357 q 317 306 349 321 q 193 215 229 264 q 153 118 157 167 q 157 108 153 113 q 167 104 161 104 q 376 114 272 106 q 586 132 481 122 q 631 111 611 135 q 651 51 651 88 q 631 13 651 26 q 586 0 611 0 q 335 -1 460 0 q 83 -14 210 -3 z "},"3":{"ha":661,"x_min":28,"x_max":633,"o":"m 306 -107 q 186 -99 244 -107 q 76 -75 128 -92 q 42 -49 51 -67 q 33 -6 33 -32 q 44 34 33 15 q 74 60 54 53 q 119 56 93 68 q 206 28 157 38 q 306 18 254 18 q 445 63 396 18 q 494 203 494 107 q 469 310 494 269 q 397 367 444 351 q 285 371 350 382 q 185 362 221 361 q 147 393 149 363 q 156 432 146 418 q 182 465 165 446 l 392 706 q 395 717 397 713 q 385 722 393 722 q 241 720 313 722 q 96 708 169 718 q 63 717 79 707 q 38 744 47 726 q 28 779 28 761 q 49 819 28 806 q 96 833 69 833 l 517 833 q 566 819 547 833 q 587 785 585 806 q 567 742 589 764 l 322 488 q 319 476 317 482 q 331 472 321 471 q 493 451 425 482 q 597 356 561 419 q 633 203 633 292 q 593 40 633 110 q 479 -69 553 -31 q 306 -107 406 -107 z "},"4":{"ha":772,"x_min":40,"x_max":738,"o":"m 546 -107 q 506 -95 525 -107 q 476 -65 488 -83 q 464 -25 464 -46 l 464 118 q 450 132 464 132 q 322 131 410 132 q 108 118 235 129 q 71 128 86 117 q 48 158 56 139 q 40 199 40 176 q 44 242 40 222 q 60 283 49 261 q 134 412 92 347 q 229 542 176 476 q 344 673 282 608 q 476 801 406 738 q 516 826 496 819 q 561 833 536 833 q 603 815 589 833 q 617 765 617 797 q 613 601 617 683 q 607 436 610 518 q 603 271 604 354 q 617 257 603 257 l 682 257 q 712 247 700 257 q 731 222 724 238 q 738 188 738 206 q 724 147 738 161 q 682 132 710 132 l 617 132 q 603 118 603 132 q 605 47 603 82 q 617 -25 607 11 q 614 -65 622 -46 q 588 -95 606 -83 q 546 -107 569 -107 m 211 244 q 331 251 274 247 q 450 257 388 256 q 460 260 457 257 q 464 271 464 264 q 471 440 465 356 q 478 608 476 524 q 472 619 478 618 q 458 614 465 621 q 360 502 410 563 q 269 380 311 442 q 200 260 226 318 q 211 244 193 242 z "},"5":{"ha":746,"x_min":56,"x_max":718,"o":"m 390 -107 q 271 -99 329 -107 q 163 -74 213 -90 q 129 -47 139 -67 q 119 -4 119 -28 q 131 34 119 17 q 160 58 142 51 q 204 53 179 64 q 284 27 243 36 q 390 18 325 18 q 493 38 451 18 q 557 98 535 57 q 579 203 579 139 q 527 356 579 301 q 376 410 475 410 q 283 405 325 410 q 204 392 242 400 q 146 397 167 383 q 125 439 125 411 l 125 694 q 122 705 125 701 q 111 710 118 708 q 70 731 85 713 q 56 779 56 749 q 78 819 56 806 q 138 833 100 833 q 356 837 253 833 q 574 861 458 840 q 614 856 592 864 q 653 830 636 849 q 669 779 669 811 q 659 744 669 761 q 631 717 649 726 q 588 708 613 707 q 433 713 507 714 q 278 708 358 711 q 264 694 264 708 l 264 522 q 279 508 264 506 q 327 514 303 511 q 376 518 351 517 q 557 485 481 525 q 676 371 633 444 q 718 203 718 297 q 678 40 718 110 q 564 -69 638 -31 q 390 -107 490 -107 z "},"6":{"ha":760,"x_min":56,"x_max":690,"o":"m 56 347 q 87 575 56 472 q 178 754 118 678 q 322 877 238 831 q 510 936 406 924 q 561 927 543 940 q 579 889 579 914 q 563 849 579 863 q 514 832 546 836 q 327 742 403 815 q 219 544 251 668 q 222 531 218 535 q 235 532 226 528 q 308 558 269 550 q 376 569 346 567 q 542 540 472 576 q 651 435 613 504 q 690 278 690 367 q 651 127 690 190 q 542 28 613 64 q 376 -14 472 -7 q 202 22 274 -21 q 93 148 131 64 q 56 347 56 232 m 201 278 q 256 147 214 194 q 376 104 297 99 q 504 151 457 110 q 551 278 551 193 q 504 415 551 364 q 376 465 457 465 q 309 456 344 465 q 247 433 274 446 q 214 408 221 419 q 198 353 200 385 q 201 278 196 321 z "},"7":{"ha":624,"x_min":8,"x_max":606,"o":"m 189 -107 q 138 -82 156 -107 q 124 -22 119 -57 q 163 159 133 67 q 231 338 192 251 q 310 499 269 425 q 383 628 350 574 q 431 706 415 682 q 433 717 435 713 q 422 722 431 722 q 249 720 335 722 q 76 708 163 718 q 44 717 60 707 q 18 744 28 726 q 8 779 8 761 q 18 813 8 797 q 44 839 28 829 q 76 847 60 849 q 307 835 192 838 q 536 833 422 833 q 590 817 575 833 q 605 778 606 800 q 594 742 604 757 q 573 709 594 742 q 517 619 551 676 q 444 485 483 561 q 368 324 404 410 q 307 148 332 238 q 276 -26 282 58 q 263 -66 275 -47 q 231 -96 250 -85 q 189 -107 213 -107 z "},"8":{"ha":664,"x_min":18,"x_max":646,"o":"m 53 694 q 88 824 53 769 q 185 910 122 879 q 332 940 247 940 q 478 910 417 940 q 575 824 540 879 q 610 694 610 769 q 574 588 610 639 q 472 508 539 538 q 464 501 464 506 q 472 493 464 497 q 596 401 546 458 q 646 269 646 343 q 607 119 646 183 q 498 21 568 56 q 332 -14 428 -14 q 167 21 238 -14 q 57 119 96 56 q 18 269 18 183 q 61 403 18 342 q 176 497 104 464 q 175 514 193 506 q 86 590 119 542 q 53 694 53 638 m 178 694 q 217 603 178 632 q 322 556 257 575 q 332 554 328 554 q 342 556 336 554 q 418 585 386 569 q 467 627 450 601 q 485 694 485 653 q 443 798 485 760 q 332 836 401 836 q 220 798 263 836 q 178 694 178 760 m 157 269 q 179 177 157 215 q 241 120 201 139 q 332 104 281 101 q 460 149 413 110 q 507 269 507 189 q 477 354 507 322 q 403 407 447 386 q 313 444 358 428 q 303 447 307 447 q 296 446 300 447 q 231 408 263 429 q 178 354 199 386 q 157 269 157 322 z "},"9":{"ha":760,"x_min":56,"x_max":690,"o":"m 690 486 q 659 257 690 361 q 568 74 628 153 q 424 -50 508 -4 q 236 -103 340 -96 q 185 -92 203 -104 q 167 -56 167 -81 q 183 -8 167 -29 q 232 15 200 14 q 365 53 307 19 q 465 147 424 86 q 526 289 506 207 q 524 302 529 299 q 511 301 519 306 q 439 275 476 283 q 369 264 401 267 q 204 293 275 257 q 94 398 133 329 q 56 556 56 467 q 94 710 56 644 q 204 812 133 775 q 369 847 275 849 q 544 805 472 847 q 653 683 615 763 q 690 486 690 603 m 544 556 q 490 681 532 639 q 369 729 449 724 q 242 688 289 735 q 194 556 194 642 q 242 426 194 471 q 369 382 289 382 q 438 388 403 382 q 499 404 472 394 q 532 425 526 414 q 549 481 546 449 q 544 556 551 513 z "},"A":{"ha":764,"x_min":0,"x_max":731,"o":"m 107 0 q 65 10 82 0 q 43 38 49 19 q 43 82 38 57 q 55 128 49 106 q 67 175 61 151 q 63 192 71 192 q 59 190 61 190 q 54 190 57 190 q 25 199 38 189 q 6 225 13 208 q 0 258 0 242 l 0 261 q 6 291 0 279 q 25 309 13 303 q 54 315 38 315 l 92 315 q 107 326 104 315 q 149 467 128 397 q 194 608 171 538 q 242 746 217 678 q 292 879 267 814 q 383 940 314 940 q 472 879 450 940 q 567 617 522 753 q 651 346 611 482 q 721 82 690 210 q 715 22 731 43 q 664 0 700 0 q 603 22 625 0 q 572 86 581 43 q 562 139 567 113 q 550 192 557 165 q 535 204 549 204 q 459 204 497 204 q 382 203 421 204 q 305 201 343 203 q 228 199 267 200 q 218 196 222 199 q 213 186 214 193 q 201 127 207 157 q 189 67 194 97 q 163 17 183 33 q 107 0 142 0 m 257 315 q 382 318 319 317 q 506 322 444 319 q 516 328 513 324 q 517 342 519 333 q 457 567 489 460 q 392 764 425 675 q 382 772 388 772 q 372 764 376 772 q 306 563 338 674 q 246 331 274 451 q 247 319 244 324 q 257 315 250 315 z "},"Á":{"ha":764,"x_min":0,"x_max":731,"o":"m 107 0 q 65 10 82 0 q 43 38 49 19 q 43 82 38 57 q 55 128 49 106 q 67 175 61 151 q 63 192 71 192 q 59 190 61 190 q 54 190 57 190 q 25 199 38 189 q 6 225 13 208 q 0 258 0 242 l 0 261 q 6 291 0 279 q 25 309 13 303 q 54 315 38 315 l 92 315 q 107 326 104 315 q 149 467 128 397 q 194 608 171 538 q 242 746 217 678 q 292 879 267 814 q 383 940 314 940 q 472 879 450 940 q 567 617 522 753 q 651 346 611 482 q 721 82 690 210 q 715 22 731 43 q 664 0 700 0 q 603 22 625 0 q 572 86 581 43 q 562 139 567 113 q 550 192 557 165 q 535 204 549 204 q 459 204 497 204 q 382 203 421 204 q 305 201 343 203 q 228 199 267 200 q 218 196 222 199 q 213 186 214 193 q 201 127 207 157 q 189 67 194 97 q 163 17 183 33 q 107 0 142 0 m 257 315 q 382 318 319 317 q 506 322 444 319 q 516 328 513 324 q 517 342 519 333 q 457 567 489 460 q 392 764 425 675 q 382 772 388 772 q 372 764 376 772 q 306 563 338 674 q 246 331 274 451 q 247 319 244 324 q 257 315 250 315 m 315 999 q 285 992 300 988 q 258 1014 269 996 l 257 1017 q 250 1048 247 1033 q 269 1074 253 1063 q 351 1128 310 1100 q 432 1192 392 1156 q 455 1202 442 1201 q 481 1197 468 1203 q 503 1178 494 1190 l 508 1169 q 515 1136 517 1157 q 505 1098 514 1115 q 482 1076 496 1081 q 389 1043 431 1064 q 315 999 347 1022 z "},"Ă":{"ha":764,"x_min":0,"x_max":731,"o":"m 107 0 q 65 10 82 0 q 43 38 49 19 q 43 82 38 57 q 55 128 49 106 q 67 175 61 151 q 63 192 71 192 q 59 190 61 190 q 54 190 57 190 q 25 199 38 189 q 6 225 13 208 q 0 258 0 242 l 0 261 q 6 291 0 279 q 25 309 13 303 q 54 315 38 315 l 92 315 q 107 326 104 315 q 149 467 128 397 q 194 608 171 538 q 242 746 217 678 q 292 879 267 814 q 383 940 314 940 q 472 879 450 940 q 567 617 522 753 q 651 346 611 482 q 721 82 690 210 q 715 22 731 43 q 664 0 700 0 q 603 22 625 0 q 572 86 581 43 q 562 139 567 113 q 550 192 557 165 q 535 204 549 204 q 459 204 497 204 q 382 203 421 204 q 305 201 343 203 q 228 199 267 200 q 218 196 222 199 q 213 186 214 193 q 201 127 207 157 q 189 67 194 97 q 163 17 183 33 q 107 0 142 0 m 257 315 q 382 318 319 317 q 506 322 444 319 q 516 328 513 324 q 517 342 519 333 q 457 567 489 460 q 392 764 425 675 q 382 772 388 772 q 372 764 376 772 q 306 563 338 674 q 246 331 274 451 q 247 319 244 324 q 257 315 250 315 m 199 1188 q 229 1177 218 1188 q 246 1147 240 1167 q 294 1079 260 1106 q 375 1053 329 1053 q 435 1065 406 1053 q 485 1098 465 1076 q 506 1147 504 1119 q 520 1184 507 1167 q 553 1201 533 1201 l 554 1201 q 583 1192 569 1201 q 604 1169 596 1183 q 611 1140 613 1156 q 574 1048 607 1090 q 488 981 540 1006 q 375 956 436 956 q 275 981 321 956 q 197 1048 229 1006 q 154 1140 165 1090 q 163 1176 150 1164 q 197 1188 175 1188 l 199 1188 z "},"Ǎ":{"ha":764,"x_min":0,"x_max":731,"o":"m 107 0 q 65 10 82 0 q 43 38 49 19 q 43 82 38 57 q 55 128 49 106 q 67 175 61 151 q 63 192 71 192 q 59 190 61 190 q 54 190 57 190 q 25 199 38 189 q 6 225 13 208 q 0 258 0 242 l 0 261 q 6 291 0 279 q 25 309 13 303 q 54 315 38 315 l 92 315 q 107 326 104 315 q 149 467 128 397 q 194 608 171 538 q 242 746 217 678 q 292 879 267 814 q 383 940 314 940 q 472 879 450 940 q 567 617 522 753 q 651 346 611 482 q 721 82 690 210 q 715 22 731 43 q 664 0 700 0 q 603 22 625 0 q 572 86 581 43 q 562 139 567 113 q 550 192 557 165 q 535 204 549 204 q 459 204 497 204 q 382 203 421 204 q 305 201 343 203 q 228 199 267 200 q 218 196 222 199 q 213 186 214 193 q 201 127 207 157 q 189 67 194 97 q 163 17 183 33 q 107 0 142 0 m 257 315 q 382 318 319 317 q 506 322 444 319 q 516 328 513 324 q 517 342 519 333 q 457 567 489 460 q 392 764 425 675 q 382 772 388 772 q 372 764 376 772 q 306 563 338 674 q 246 331 274 451 q 247 319 244 324 q 257 315 250 315 m 597 1176 q 606 1153 604 1167 q 603 1128 607 1140 q 589 1110 600 1117 q 493 1051 533 1076 q 408 992 453 1025 q 356 992 382 971 q 265 1063 311 1025 q 175 1124 219 1101 q 158 1147 160 1132 q 167 1176 157 1163 l 167 1178 q 191 1196 176 1193 q 219 1189 206 1199 q 296 1142 258 1165 q 372 1096 333 1119 q 382 1093 378 1093 q 392 1096 386 1093 q 460 1150 428 1121 q 531 1203 492 1179 q 567 1203 546 1213 q 597 1178 588 1193 l 597 1176 z "},"Â":{"ha":764,"x_min":0,"x_max":731,"o":"m 107 0 q 65 10 82 0 q 43 38 49 19 q 43 82 38 57 q 55 128 49 106 q 67 175 61 151 q 63 192 71 192 q 59 190 61 190 q 54 190 57 190 q 25 199 38 189 q 6 225 13 208 q 0 258 0 242 l 0 261 q 6 291 0 279 q 25 309 13 303 q 54 315 38 315 l 92 315 q 107 326 104 315 q 149 467 128 397 q 194 608 171 538 q 242 746 217 678 q 292 879 267 814 q 383 940 314 940 q 472 879 450 940 q 567 617 522 753 q 651 346 611 482 q 721 82 690 210 q 715 22 731 43 q 664 0 700 0 q 603 22 625 0 q 572 86 581 43 q 562 139 567 113 q 550 192 557 165 q 535 204 549 204 q 459 204 497 204 q 382 203 421 204 q 305 201 343 203 q 228 199 267 200 q 218 196 222 199 q 213 186 214 193 q 201 127 207 157 q 189 67 194 97 q 163 17 183 33 q 107 0 142 0 m 257 315 q 382 318 319 317 q 506 322 444 319 q 516 328 513 324 q 517 342 519 333 q 457 567 489 460 q 392 764 425 675 q 382 772 388 772 q 372 764 376 772 q 306 563 338 674 q 246 331 274 451 q 247 319 244 324 q 257 315 250 315 m 603 1050 q 613 1020 618 1042 q 597 983 607 999 l 597 982 q 579 967 592 972 q 553 964 567 963 q 531 971 540 965 q 468 1012 496 992 q 408 1053 440 1032 q 356 1053 382 1071 q 297 1012 325 1032 q 233 971 268 992 q 198 965 219 961 q 167 982 176 968 l 165 983 q 151 1013 156 999 q 161 1036 146 1028 q 228 1074 192 1051 q 299 1121 264 1096 q 356 1168 333 1146 q 381 1179 368 1179 q 408 1168 394 1179 q 506 1104 453 1135 q 603 1050 558 1074 z "},"Ä":{"ha":764,"x_min":0,"x_max":731,"o":"m 107 0 q 65 10 82 0 q 43 38 49 19 q 43 82 38 57 q 55 128 49 106 q 67 175 61 151 q 63 192 71 192 q 59 190 61 190 q 54 190 57 190 q 25 199 38 189 q 6 225 13 208 q 0 258 0 242 l 0 261 q 6 291 0 279 q 25 309 13 303 q 54 315 38 315 l 92 315 q 107 326 104 315 q 149 467 128 397 q 194 608 171 538 q 242 746 217 678 q 292 879 267 814 q 383 940 314 940 q 472 879 450 940 q 567 617 522 753 q 651 346 611 482 q 721 82 690 210 q 715 22 731 43 q 664 0 700 0 q 603 22 625 0 q 572 86 581 43 q 562 139 567 113 q 550 192 557 165 q 535 204 549 204 q 459 204 497 204 q 382 203 421 204 q 305 201 343 203 q 228 199 267 200 q 218 196 222 199 q 213 186 214 193 q 201 127 207 157 q 189 67 194 97 q 163 17 183 33 q 107 0 142 0 m 257 315 q 382 318 319 317 q 506 322 444 319 q 516 328 513 324 q 517 342 519 333 q 457 567 489 460 q 392 764 425 675 q 382 772 388 772 q 372 764 376 772 q 306 563 338 674 q 246 331 274 451 q 247 319 244 324 q 257 315 250 315 m 257 1000 q 194 1025 219 1000 q 169 1088 169 1050 q 194 1149 169 1124 q 257 1174 219 1174 q 318 1149 293 1174 q 343 1088 343 1124 q 318 1025 343 1050 q 257 1000 293 1000 m 507 1014 q 444 1039 469 1014 q 419 1101 419 1064 q 444 1163 419 1138 q 507 1188 469 1188 q 568 1163 543 1188 q 593 1101 593 1138 q 568 1039 593 1064 q 507 1014 543 1014 z "},"À":{"ha":764,"x_min":0,"x_max":731,"o":"m 107 0 q 65 10 82 0 q 43 38 49 19 q 43 82 38 57 q 55 128 49 106 q 67 175 61 151 q 63 192 71 192 q 59 190 61 190 q 54 190 57 190 q 25 199 38 189 q 6 225 13 208 q 0 258 0 242 l 0 261 q 6 291 0 279 q 25 309 13 303 q 54 315 38 315 l 92 315 q 107 326 104 315 q 149 467 128 397 q 194 608 171 538 q 242 746 217 678 q 292 879 267 814 q 383 940 314 940 q 472 879 450 940 q 567 617 522 753 q 651 346 611 482 q 721 82 690 210 q 715 22 731 43 q 664 0 700 0 q 603 22 625 0 q 572 86 581 43 q 562 139 567 113 q 550 192 557 165 q 535 204 549 204 q 459 204 497 204 q 382 203 421 204 q 305 201 343 203 q 228 199 267 200 q 218 196 222 199 q 213 186 214 193 q 201 127 207 157 q 189 67 194 97 q 163 17 183 33 q 107 0 142 0 m 257 315 q 382 318 319 317 q 506 322 444 319 q 516 328 513 324 q 517 342 519 333 q 457 567 489 460 q 392 764 425 675 q 382 772 388 772 q 372 764 376 772 q 306 563 338 674 q 246 331 274 451 q 247 319 244 324 q 257 315 250 315 m 488 1075 q 517 1041 506 1064 q 517 1000 528 1018 l 515 997 q 483 981 506 979 q 440 994 460 983 q 359 1040 400 1018 q 278 1075 318 1061 q 258 1093 264 1081 q 253 1122 253 1106 q 261 1150 254 1138 l 268 1161 q 297 1193 279 1181 q 329 1190 314 1206 q 415 1122 381 1144 q 488 1075 449 1100 z "},"Ā":{"ha":764,"x_min":0,"x_max":731,"o":"m 107 0 q 65 10 82 0 q 43 38 49 19 q 43 82 38 57 q 55 128 49 106 q 67 175 61 151 q 63 192 71 192 q 59 190 61 190 q 54 190 57 190 q 25 199 38 189 q 6 225 13 208 q 0 258 0 242 l 0 261 q 6 291 0 279 q 25 309 13 303 q 54 315 38 315 l 92 315 q 107 326 104 315 q 149 467 128 397 q 194 608 171 538 q 242 746 217 678 q 292 879 267 814 q 383 940 314 940 q 472 879 450 940 q 567 617 522 753 q 651 346 611 482 q 721 82 690 210 q 715 22 731 43 q 664 0 700 0 q 603 22 625 0 q 572 86 581 43 q 562 139 567 113 q 550 192 557 165 q 535 204 549 204 q 459 204 497 204 q 382 203 421 204 q 305 201 343 203 q 228 199 267 200 q 218 196 222 199 q 213 186 214 193 q 201 127 207 157 q 189 67 194 97 q 163 17 183 33 q 107 0 142 0 m 257 315 q 382 318 319 317 q 506 322 444 319 q 516 328 513 324 q 517 342 519 333 q 457 567 489 460 q 392 764 425 675 q 382 772 388 772 q 372 764 376 772 q 306 563 338 674 q 246 331 274 451 q 247 319 244 324 q 257 315 250 315 m 674 1100 q 665 1072 674 1086 q 642 1049 656 1058 q 615 1042 629 1040 q 149 1042 382 1063 q 116 1060 128 1040 q 104 1100 104 1079 l 104 1101 q 116 1134 104 1122 q 149 1146 128 1146 q 382 1148 265 1146 q 615 1160 499 1150 q 642 1152 629 1161 q 665 1129 656 1143 q 674 1101 674 1115 l 674 1100 z "},"Ą":{"ha":764,"x_min":0,"x_max":731,"o":"m 107 0 q 65 10 82 0 q 43 38 49 19 q 43 82 38 57 q 55 128 49 106 q 67 175 61 151 q 63 192 71 192 q 59 190 61 190 q 54 190 57 190 q 25 199 38 189 q 6 225 13 208 q 0 258 0 242 l 0 261 q 6 291 0 279 q 25 309 13 303 q 54 315 38 315 l 92 315 q 107 326 104 315 q 149 467 128 397 q 194 608 171 538 q 242 746 217 678 q 292 879 267 814 q 383 940 314 940 q 472 879 450 940 q 567 617 522 753 q 651 346 611 482 q 721 82 690 210 q 715 22 731 43 q 664 0 700 0 q 603 22 625 0 q 572 86 581 43 q 562 139 567 113 q 550 192 557 165 q 535 204 549 204 q 459 204 497 204 q 382 203 421 204 q 305 201 343 203 q 228 199 267 200 q 218 196 222 199 q 213 186 214 193 q 201 127 207 157 q 189 67 194 97 q 163 17 183 33 q 107 0 142 0 m 257 315 q 382 318 319 317 q 506 322 444 319 q 516 328 513 324 q 517 342 519 333 q 457 567 489 460 q 392 764 425 675 q 382 772 388 772 q 372 764 376 772 q 306 563 338 674 q 246 331 274 451 q 247 319 244 324 q 257 315 250 315 m 656 -208 q 581 -191 613 -208 q 535 -144 550 -174 q 526 -76 519 -114 q 544 -31 532 -51 q 578 4 557 -11 q 631 28 600 19 l 674 40 l 688 14 q 669 6 688 14 q 634 -21 651 -1 q 617 -76 617 -40 q 631 -108 617 -99 q 663 -120 644 -118 q 696 -122 682 -122 q 717 -127 707 -122 q 728 -147 728 -132 q 703 -195 728 -182 q 656 -208 679 -208 z "},"Å":{"ha":764,"x_min":0,"x_max":731,"o":"m 107 0 q 65 10 82 0 q 43 38 49 19 q 43 82 38 57 q 55 128 49 106 q 67 175 61 151 q 63 192 71 192 q 59 190 61 190 q 54 190 57 190 q 25 199 38 189 q 6 225 13 208 q 0 258 0 242 l 0 261 q 6 291 0 279 q 25 309 13 303 q 54 315 38 315 l 92 315 q 107 326 104 315 q 149 467 128 397 q 194 608 171 538 q 242 746 217 678 q 292 879 267 814 q 383 940 314 940 q 472 879 450 940 q 567 617 522 753 q 651 346 611 482 q 721 82 690 210 q 715 22 731 43 q 664 0 700 0 q 603 22 625 0 q 572 86 581 43 q 562 139 567 113 q 550 192 557 165 q 535 204 549 204 q 459 204 497 204 q 382 203 421 204 q 305 201 343 203 q 228 199 267 200 q 218 196 222 199 q 213 186 214 193 q 201 127 207 157 q 189 67 194 97 q 163 17 183 33 q 107 0 142 0 m 257 315 q 382 318 319 317 q 506 322 444 319 q 516 328 513 324 q 517 342 519 333 q 457 567 489 460 q 392 764 425 675 q 382 772 388 772 q 372 764 376 772 q 306 563 338 674 q 246 331 274 451 q 247 319 244 324 q 257 315 250 315 m 278 1056 q 292 1108 278 1085 q 330 1146 306 1132 q 382 1160 354 1160 q 435 1146 411 1160 q 472 1108 458 1132 q 486 1056 486 1085 q 475 1002 486 1028 q 441 960 464 976 q 382 944 418 944 q 330 960 354 944 q 292 1002 306 976 q 278 1056 278 1028 m 333 1056 q 348 1022 333 1036 q 382 1007 363 1007 q 416 1022 401 1007 q 431 1056 431 1036 q 416 1090 431 1075 q 382 1104 401 1104 q 348 1090 363 1104 q 333 1056 333 1075 z "},"Ã":{"ha":764,"x_min":0,"x_max":731,"o":"m 107 0 q 65 10 82 0 q 43 38 49 19 q 43 82 38 57 q 55 128 49 106 q 67 175 61 151 q 63 192 71 192 q 59 190 61 190 q 54 190 57 190 q 25 199 38 189 q 6 225 13 208 q 0 258 0 242 l 0 261 q 6 291 0 279 q 25 309 13 303 q 54 315 38 315 l 92 315 q 107 326 104 315 q 149 467 128 397 q 194 608 171 538 q 242 746 217 678 q 292 879 267 814 q 383 940 314 940 q 472 879 450 940 q 567 617 522 753 q 651 346 611 482 q 721 82 690 210 q 715 22 731 43 q 664 0 700 0 q 603 22 625 0 q 572 86 581 43 q 562 139 567 113 q 550 192 557 165 q 535 204 549 204 q 459 204 497 204 q 382 203 421 204 q 305 201 343 203 q 228 199 267 200 q 218 196 222 199 q 213 186 214 193 q 201 127 207 157 q 189 67 194 97 q 163 17 183 33 q 107 0 142 0 m 257 315 q 382 318 319 317 q 506 322 444 319 q 516 328 513 324 q 517 342 519 333 q 457 567 489 460 q 392 764 425 675 q 382 772 388 772 q 372 764 376 772 q 306 563 338 674 q 246 331 274 451 q 247 319 244 324 q 257 315 250 315 m 160 1043 q 150 1067 150 1054 q 160 1090 150 1079 q 194 1120 174 1104 q 238 1148 214 1136 q 288 1160 263 1160 q 342 1146 321 1160 q 379 1115 363 1132 q 417 1083 396 1097 q 474 1069 439 1069 q 514 1087 493 1069 q 549 1114 535 1104 q 579 1124 561 1124 q 608 1113 597 1124 l 615 1107 q 626 1085 624 1100 q 627 1055 629 1069 q 617 1032 625 1040 q 552 992 594 1010 q 474 975 510 975 q 417 989 439 975 q 379 1020 396 1003 q 342 1051 363 1038 q 288 1065 322 1065 q 249 1055 269 1065 q 213 1033 228 1044 q 188 1024 200 1024 q 165 1036 176 1025 l 160 1043 z "},"Æ":{"ha":1089,"x_min":-3,"x_max":1054,"o":"m 53 0 q 17 9 31 0 q 0 34 3 18 q 7 71 -3 50 q 137 342 68 207 q 281 614 206 478 q 439 885 357 750 q 513 926 463 926 l 993 926 q 1033 912 1019 926 q 1047 869 1047 897 q 1033 821 1047 843 q 993 801 1019 799 q 881 811 939 808 q 765 815 824 814 q 651 815 707 815 q 632 808 638 815 q 628 788 626 801 q 634 707 632 749 q 637 624 636 665 q 638 542 638 582 q 644 522 638 528 q 665 518 651 517 q 799 528 732 525 q 931 542 865 532 q 960 534 949 544 q 978 507 972 524 q 985 471 985 490 q 971 431 985 444 q 931 417 957 417 q 797 415 864 417 q 663 406 729 414 q 644 397 650 404 q 638 378 638 390 q 635 258 638 317 q 626 139 633 200 q 631 118 625 125 q 651 111 638 111 q 768 112 710 111 q 885 116 826 113 q 1000 125 943 119 q 1040 105 1026 128 q 1054 54 1054 82 q 1040 14 1054 28 q 1000 0 1026 0 l 553 0 q 504 14 526 0 q 485 54 482 28 q 490 122 488 89 q 496 190 493 156 q 483 204 499 204 l 211 204 q 196 193 200 204 q 164 120 179 157 q 133 47 149 83 q 63 0 113 0 l 53 0 m 268 315 l 489 315 q 503 329 503 315 q 506 534 507 432 q 497 738 504 636 q 490 748 496 747 q 478 739 483 749 q 362 536 417 638 q 258 332 307 435 q 258 320 254 325 q 268 315 261 315 z "},"B":{"ha":764,"x_min":31,"x_max":751,"o":"m 188 0 q 147 8 167 0 q 116 32 128 17 q 106 68 104 47 q 113 223 110 139 q 117 392 115 307 q 119 557 119 478 q 117 699 119 636 q 110 800 115 763 q 99 805 110 804 q 76 807 89 806 q 51 816 63 808 q 36 844 39 824 q 51 899 31 876 q 104 926 72 921 q 182 934 132 931 q 288 940 232 938 q 390 940 344 942 q 638 867 551 939 q 724 672 724 796 q 696 560 724 608 q 614 483 668 513 q 607 475 607 479 q 614 467 607 471 q 708 385 678 436 q 744 264 739 333 q 710 120 751 179 q 586 31 668 61 q 390 0 504 0 l 188 0 m 272 125 l 392 125 q 554 156 501 125 q 607 264 607 186 q 554 379 607 342 q 392 417 501 417 l 272 417 q 263 413 267 417 q 258 403 258 410 l 258 139 q 260 131 258 135 q 265 126 261 128 q 272 125 268 125 m 274 528 l 392 528 q 538 563 490 528 q 586 672 586 599 q 538 781 586 746 q 392 815 490 815 l 261 815 q 251 811 256 815 q 247 800 247 807 q 253 671 247 735 q 260 542 260 607 q 264 531 260 535 q 274 528 268 528 z "},"C":{"ha":640,"x_min":56,"x_max":633,"o":"m 389 -14 q 247 17 308 -14 q 142 104 185 47 q 78 239 100 161 q 56 410 56 317 l 56 482 q 78 659 56 576 q 142 805 100 742 q 247 904 185 868 q 389 940 308 940 q 565 893 493 940 q 595 855 589 876 q 578 810 601 833 q 534 786 560 792 q 485 793 508 781 q 441 817 465 804 q 389 829 417 829 q 280 782 324 829 q 215 656 236 735 q 194 482 194 576 l 194 410 q 242 190 194 268 q 389 111 290 111 q 467 124 429 111 q 539 149 504 138 q 583 142 563 156 q 621 96 604 128 q 622 52 633 71 q 586 24 610 33 q 488 -4 539 6 q 389 -14 438 -14 z "},"Ć":{"ha":640,"x_min":56,"x_max":633,"o":"m 389 -14 q 247 17 308 -14 q 142 104 185 47 q 78 239 100 161 q 56 410 56 317 l 56 482 q 78 659 56 576 q 142 805 100 742 q 247 904 185 868 q 389 940 308 940 q 565 893 493 940 q 595 855 589 876 q 578 810 601 833 q 534 786 560 792 q 485 793 508 781 q 441 817 465 804 q 389 829 417 829 q 280 782 324 829 q 215 656 236 735 q 194 482 194 576 l 194 410 q 242 190 194 268 q 389 111 290 111 q 467 124 429 111 q 539 149 504 138 q 583 142 563 156 q 621 96 604 128 q 622 52 633 71 q 586 24 610 33 q 488 -4 539 6 q 389 -14 438 -14 m 322 999 q 292 992 307 988 q 265 1014 276 996 l 264 1017 q 257 1048 254 1033 q 276 1074 260 1063 q 358 1128 317 1100 q 439 1192 399 1156 q 462 1202 449 1201 q 488 1197 475 1203 q 510 1178 501 1190 l 515 1169 q 522 1136 524 1157 q 512 1098 521 1115 q 489 1076 503 1081 q 396 1043 438 1064 q 322 999 354 1022 z "},"Č":{"ha":640,"x_min":56,"x_max":633,"o":"m 389 -14 q 247 17 308 -14 q 142 104 185 47 q 78 239 100 161 q 56 410 56 317 l 56 482 q 78 659 56 576 q 142 805 100 742 q 247 904 185 868 q 389 940 308 940 q 565 893 493 940 q 595 855 589 876 q 578 810 601 833 q 534 786 560 792 q 485 793 508 781 q 441 817 465 804 q 389 829 417 829 q 280 782 324 829 q 215 656 236 735 q 194 482 194 576 l 194 410 q 242 190 194 268 q 389 111 290 111 q 467 124 429 111 q 539 149 504 138 q 583 142 563 156 q 621 96 604 128 q 622 52 633 71 q 586 24 610 33 q 488 -4 539 6 q 389 -14 438 -14 m 604 1176 q 613 1153 611 1167 q 610 1128 614 1140 q 596 1110 607 1117 q 500 1051 540 1076 q 415 992 460 1025 q 363 992 389 971 q 272 1063 318 1025 q 182 1124 226 1101 q 165 1147 167 1132 q 174 1176 164 1163 l 174 1178 q 198 1196 183 1193 q 226 1189 213 1199 q 303 1142 265 1165 q 379 1096 340 1119 q 389 1093 385 1093 q 399 1096 393 1093 q 467 1150 435 1121 q 538 1203 499 1179 q 574 1203 553 1213 q 604 1178 594 1193 l 604 1176 z "},"Ç":{"ha":640,"x_min":56,"x_max":633,"o":"m 389 -14 q 247 17 308 -14 q 142 104 185 47 q 78 239 100 161 q 56 410 56 317 l 56 482 q 78 659 56 576 q 142 805 100 742 q 247 904 185 868 q 389 940 308 940 q 565 893 493 940 q 595 855 589 876 q 578 810 601 833 q 534 786 560 792 q 485 793 508 781 q 441 817 465 804 q 389 829 417 829 q 280 782 324 829 q 215 656 236 735 q 194 482 194 576 l 194 410 q 242 190 194 268 q 389 111 290 111 q 467 124 429 111 q 539 149 504 138 q 583 142 563 156 q 621 96 604 128 q 622 52 633 71 q 586 24 610 33 q 488 -4 539 6 q 389 -14 438 -14 m 393 -229 q 369 -226 382 -229 q 344 -219 356 -224 q 327 -194 331 -212 q 329 -162 324 -176 l 329 -161 q 367 -144 340 -136 q 381 -147 374 -146 q 393 -147 388 -147 q 425 -125 425 -147 q 413 -111 425 -111 q 388 -111 401 -111 q 365 -106 376 -111 q 346 -90 353 -100 q 340 -71 339 -81 l 354 7 l 424 7 l 410 -57 q 449 -58 428 -51 q 486 -81 471 -64 q 501 -125 501 -99 q 487 -178 501 -154 q 448 -215 472 -201 q 393 -229 424 -229 z "},"Ċ":{"ha":640,"x_min":56,"x_max":633,"o":"m 389 -14 q 247 17 308 -14 q 142 104 185 47 q 78 239 100 161 q 56 410 56 317 l 56 482 q 78 659 56 576 q 142 805 100 742 q 247 904 185 868 q 389 940 308 940 q 565 893 493 940 q 595 855 589 876 q 578 810 601 833 q 534 786 560 792 q 485 793 508 781 q 441 817 465 804 q 389 829 417 829 q 280 782 324 829 q 215 656 236 735 q 194 482 194 576 l 194 410 q 242 190 194 268 q 389 111 290 111 q 467 124 429 111 q 539 149 504 138 q 583 142 563 156 q 621 96 604 128 q 622 52 633 71 q 586 24 610 33 q 488 -4 539 6 q 389 -14 438 -14 m 306 1090 q 331 1150 306 1126 q 389 1174 356 1174 q 449 1150 425 1174 q 472 1090 472 1126 q 449 1032 472 1057 q 389 1007 425 1007 q 331 1032 356 1007 q 306 1090 306 1057 z "},"D":{"ha":818,"x_min":31,"x_max":763,"o":"m 185 0 q 144 8 164 0 q 113 32 125 17 q 103 68 101 47 q 112 312 110 190 q 113 554 114 433 q 106 797 111 675 q 97 808 106 806 q 75 812 88 810 q 51 822 63 814 q 36 847 40 829 q 42 891 31 875 q 74 915 53 907 q 115 926 94 924 q 188 934 143 931 q 292 939 232 938 q 429 940 353 940 q 676 828 590 940 q 763 482 763 715 q 715 220 763 328 q 585 56 668 113 q 394 0 501 0 l 185 0 m 243 139 q 246 129 242 133 q 256 125 250 125 l 394 125 q 513 163 461 125 q 594 281 564 201 q 624 482 624 360 q 603 678 624 607 q 539 778 582 749 q 429 808 496 808 l 256 808 q 249 807 251 808 q 244 802 246 806 q 243 794 243 799 q 252 574 250 681 q 252 359 254 467 q 243 139 250 251 z "},"Ď":{"ha":818,"x_min":31,"x_max":763,"o":"m 185 0 q 144 8 164 0 q 113 32 125 17 q 103 68 101 47 q 112 312 110 190 q 113 554 114 433 q 106 797 111 675 q 97 808 106 806 q 75 812 88 810 q 51 822 63 814 q 36 847 40 829 q 42 891 31 875 q 74 915 53 907 q 115 926 94 924 q 188 934 143 931 q 292 939 232 938 q 429 940 353 940 q 676 828 590 940 q 763 482 763 715 q 715 220 763 328 q 585 56 668 113 q 394 0 501 0 l 185 0 m 243 139 q 246 129 242 133 q 256 125 250 125 l 394 125 q 513 163 461 125 q 594 281 564 201 q 624 482 624 360 q 603 678 624 607 q 539 778 582 749 q 429 808 496 808 l 256 808 q 249 807 251 808 q 244 802 246 806 q 243 794 243 799 q 252 574 250 681 q 252 359 254 467 q 243 139 250 251 m 625 1176 q 633 1153 632 1167 q 631 1128 635 1140 q 617 1110 628 1117 q 521 1051 561 1076 q 436 992 481 1025 q 383 992 410 971 q 293 1063 339 1025 q 203 1124 247 1101 q 186 1147 188 1132 q 194 1176 185 1163 l 194 1178 q 219 1196 204 1193 q 247 1189 233 1199 q 324 1142 286 1165 q 400 1096 361 1119 q 410 1093 406 1093 q 419 1096 414 1093 q 488 1150 456 1121 q 558 1203 519 1179 q 594 1203 574 1213 q 625 1178 615 1193 l 625 1176 z "},"Đ":{"ha":768,"x_min":-49,"x_max":713,"o":"m -49 474 q -35 514 -49 500 q 6 528 -21 528 q 149 530 78 528 q 293 542 221 532 q 326 535 311 544 q 351 508 342 525 q 361 474 361 492 l 361 471 q 351 440 361 454 q 326 420 342 426 q 293 417 311 414 q 149 421 221 428 q 6 403 78 414 q -24 410 -11 400 q -42 437 -36 419 q -49 471 -49 454 l -49 474 m 135 0 q 94 8 114 0 q 63 32 75 17 q 53 68 51 47 q 62 312 60 190 q 63 554 64 433 q 56 797 61 675 q 47 808 56 806 q 25 812 38 810 q 1 822 13 814 q -14 847 -10 829 q -8 891 -19 875 q 23 915 3 907 q 65 926 43 924 q 138 934 93 931 q 242 939 182 938 q 379 940 303 940 q 626 828 540 940 q 713 482 713 715 q 665 220 713 328 q 535 56 618 113 q 344 0 451 0 l 135 0 m 193 139 q 196 129 192 133 q 206 125 200 125 l 344 125 q 463 163 411 125 q 544 281 514 201 q 574 482 574 360 q 553 678 574 607 q 489 778 532 749 q 379 808 446 808 l 206 808 q 199 807 201 808 q 194 802 196 806 q 193 794 193 799 q 202 574 200 681 q 202 359 204 467 q 193 139 200 251 z "},"Ð":{"ha":768,"x_min":-49,"x_max":713,"o":"m -49 474 q -35 514 -49 500 q 6 528 -21 528 q 149 530 78 528 q 293 542 221 532 q 326 535 311 544 q 351 508 342 525 q 361 474 361 492 l 361 471 q 351 440 361 454 q 326 420 342 426 q 293 417 311 414 q 149 421 221 428 q 6 403 78 414 q -24 410 -11 400 q -42 437 -36 419 q -49 471 -49 454 l -49 474 m 135 0 q 94 8 114 0 q 63 32 75 17 q 53 68 51 47 q 62 312 60 190 q 63 554 64 433 q 56 797 61 675 q 47 808 56 806 q 25 812 38 810 q 1 822 13 814 q -14 847 -10 829 q -8 891 -19 875 q 23 915 3 907 q 65 926 43 924 q 138 934 93 931 q 242 939 182 938 q 379 940 303 940 q 626 828 540 940 q 713 482 713 715 q 665 220 713 328 q 535 56 618 113 q 344 0 451 0 l 135 0 m 193 139 q 196 129 192 133 q 206 125 200 125 l 344 125 q 463 163 411 125 q 544 281 514 201 q 574 482 574 360 q 553 678 574 607 q 489 778 532 749 q 379 808 446 808 l 206 808 q 199 807 201 808 q 194 802 196 806 q 193 794 193 799 q 202 574 200 681 q 202 359 204 467 q 193 139 200 251 z "},"E":{"ha":674,"x_min":67,"x_max":639,"o":"m 632 869 q 618 821 632 843 q 578 801 604 799 q 466 811 524 808 q 350 815 408 814 q 236 815 292 815 q 217 808 222 815 q 213 788 211 801 q 221 665 219 728 q 222 542 222 601 q 229 522 222 528 q 250 518 236 517 q 383 528 317 525 q 515 542 450 532 q 545 534 533 544 q 563 507 557 524 q 569 471 569 490 q 556 431 569 444 q 515 417 542 417 q 381 415 449 417 q 247 406 314 414 q 228 397 235 404 q 222 378 222 390 q 220 258 222 317 q 211 139 218 200 q 216 118 210 125 q 236 111 222 111 q 353 112 294 111 q 469 116 411 113 q 585 125 528 119 q 625 105 611 128 q 639 54 639 82 q 625 14 639 28 q 585 0 611 0 l 138 0 q 89 14 111 0 q 69 54 67 28 q 88 326 83 190 q 88 599 93 463 q 69 872 83 736 q 89 913 67 899 q 138 926 111 926 l 578 926 q 618 912 604 926 q 632 869 632 897 z "},"É":{"ha":674,"x_min":67,"x_max":639,"o":"m 632 869 q 618 821 632 843 q 578 801 604 799 q 466 811 524 808 q 350 815 408 814 q 236 815 292 815 q 217 808 222 815 q 213 788 211 801 q 221 665 219 728 q 222 542 222 601 q 229 522 222 528 q 250 518 236 517 q 383 528 317 525 q 515 542 450 532 q 545 534 533 544 q 563 507 557 524 q 569 471 569 490 q 556 431 569 444 q 515 417 542 417 q 381 415 449 417 q 247 406 314 414 q 228 397 235 404 q 222 378 222 390 q 220 258 222 317 q 211 139 218 200 q 216 118 210 125 q 236 111 222 111 q 353 112 294 111 q 469 116 411 113 q 585 125 528 119 q 625 105 611 128 q 639 54 639 82 q 625 14 639 28 q 585 0 611 0 l 138 0 q 89 14 111 0 q 69 54 67 28 q 88 326 83 190 q 88 599 93 463 q 69 872 83 736 q 89 913 67 899 q 138 926 111 926 l 578 926 q 618 912 604 926 q 632 869 632 897 m 274 999 q 243 992 258 988 q 217 1014 228 996 l 215 1017 q 208 1048 206 1033 q 228 1074 211 1063 q 309 1128 268 1100 q 390 1192 350 1156 q 413 1202 400 1201 q 440 1197 426 1203 q 461 1178 453 1190 l 467 1169 q 474 1136 475 1157 q 463 1098 472 1115 q 440 1076 454 1081 q 347 1043 389 1064 q 274 999 306 1022 z "},"Ě":{"ha":674,"x_min":67,"x_max":639,"o":"m 632 869 q 618 821 632 843 q 578 801 604 799 q 466 811 524 808 q 350 815 408 814 q 236 815 292 815 q 217 808 222 815 q 213 788 211 801 q 221 665 219 728 q 222 542 222 601 q 229 522 222 528 q 250 518 236 517 q 383 528 317 525 q 515 542 450 532 q 545 534 533 544 q 563 507 557 524 q 569 471 569 490 q 556 431 569 444 q 515 417 542 417 q 381 415 449 417 q 247 406 314 414 q 228 397 235 404 q 222 378 222 390 q 220 258 222 317 q 211 139 218 200 q 216 118 210 125 q 236 111 222 111 q 353 112 294 111 q 469 116 411 113 q 585 125 528 119 q 625 105 611 128 q 639 54 639 82 q 625 14 639 28 q 585 0 611 0 l 138 0 q 89 14 111 0 q 69 54 67 28 q 88 326 83 190 q 88 599 93 463 q 69 872 83 736 q 89 913 67 899 q 138 926 111 926 l 578 926 q 618 912 604 926 q 632 869 632 897 m 556 1176 q 564 1153 563 1167 q 562 1128 565 1140 q 547 1110 558 1117 q 451 1051 492 1076 q 367 992 411 1025 q 314 992 340 971 q 224 1063 269 1025 q 133 1124 178 1101 q 117 1147 118 1132 q 125 1176 115 1163 l 125 1178 q 149 1196 135 1193 q 178 1189 164 1199 q 254 1142 217 1165 q 331 1096 292 1119 q 340 1093 336 1093 q 350 1096 344 1093 q 418 1150 386 1121 q 489 1203 450 1179 q 525 1203 504 1213 q 556 1178 546 1193 l 556 1176 z "},"Ê":{"ha":674,"x_min":67,"x_max":639,"o":"m 632 869 q 618 821 632 843 q 578 801 604 799 q 466 811 524 808 q 350 815 408 814 q 236 815 292 815 q 217 808 222 815 q 213 788 211 801 q 221 665 219 728 q 222 542 222 601 q 229 522 222 528 q 250 518 236 517 q 383 528 317 525 q 515 542 450 532 q 545 534 533 544 q 563 507 557 524 q 569 471 569 490 q 556 431 569 444 q 515 417 542 417 q 381 415 449 417 q 247 406 314 414 q 228 397 235 404 q 222 378 222 390 q 220 258 222 317 q 211 139 218 200 q 216 118 210 125 q 236 111 222 111 q 353 112 294 111 q 469 116 411 113 q 585 125 528 119 q 625 105 611 128 q 639 54 639 82 q 625 14 639 28 q 585 0 611 0 l 138 0 q 89 14 111 0 q 69 54 67 28 q 88 326 83 190 q 88 599 93 463 q 69 872 83 736 q 89 913 67 899 q 138 926 111 926 l 578 926 q 618 912 604 926 q 632 869 632 897 m 561 1050 q 571 1020 576 1042 q 556 983 565 999 l 556 982 q 538 967 550 972 q 512 964 525 963 q 489 971 499 965 q 426 1012 454 992 q 367 1053 399 1032 q 314 1053 340 1071 q 255 1012 283 1032 q 192 971 226 992 q 156 965 178 961 q 125 982 135 968 l 124 983 q 109 1013 114 999 q 119 1036 104 1028 q 186 1074 150 1051 q 257 1121 222 1096 q 314 1168 292 1146 q 340 1179 326 1179 q 367 1168 353 1179 q 464 1104 411 1135 q 561 1050 517 1074 z "},"Ë":{"ha":674,"x_min":67,"x_max":639,"o":"m 632 869 q 618 821 632 843 q 578 801 604 799 q 466 811 524 808 q 350 815 408 814 q 236 815 292 815 q 217 808 222 815 q 213 788 211 801 q 221 665 219 728 q 222 542 222 601 q 229 522 222 528 q 250 518 236 517 q 383 528 317 525 q 515 542 450 532 q 545 534 533 544 q 563 507 557 524 q 569 471 569 490 q 556 431 569 444 q 515 417 542 417 q 381 415 449 417 q 247 406 314 414 q 228 397 235 404 q 222 378 222 390 q 220 258 222 317 q 211 139 218 200 q 216 118 210 125 q 236 111 222 111 q 353 112 294 111 q 469 116 411 113 q 585 125 528 119 q 625 105 611 128 q 639 54 639 82 q 625 14 639 28 q 585 0 611 0 l 138 0 q 89 14 111 0 q 69 54 67 28 q 88 326 83 190 q 88 599 93 463 q 69 872 83 736 q 89 913 67 899 q 138 926 111 926 l 578 926 q 618 912 604 926 q 632 869 632 897 m 215 1000 q 153 1025 178 1000 q 128 1088 128 1050 q 153 1149 128 1124 q 215 1174 178 1174 q 276 1149 251 1174 q 301 1088 301 1124 q 276 1025 301 1050 q 215 1000 251 1000 m 465 1014 q 403 1039 428 1014 q 378 1101 378 1064 q 403 1163 378 1138 q 465 1188 428 1188 q 526 1163 501 1188 q 551 1101 551 1138 q 526 1039 551 1064 q 465 1014 501 1014 z "},"Ė":{"ha":674,"x_min":67,"x_max":639,"o":"m 632 869 q 618 821 632 843 q 578 801 604 799 q 466 811 524 808 q 350 815 408 814 q 236 815 292 815 q 217 808 222 815 q 213 788 211 801 q 221 665 219 728 q 222 542 222 601 q 229 522 222 528 q 250 518 236 517 q 383 528 317 525 q 515 542 450 532 q 545 534 533 544 q 563 507 557 524 q 569 471 569 490 q 556 431 569 444 q 515 417 542 417 q 381 415 449 417 q 247 406 314 414 q 228 397 235 404 q 222 378 222 390 q 220 258 222 317 q 211 139 218 200 q 216 118 210 125 q 236 111 222 111 q 353 112 294 111 q 469 116 411 113 q 585 125 528 119 q 625 105 611 128 q 639 54 639 82 q 625 14 639 28 q 585 0 611 0 l 138 0 q 89 14 111 0 q 69 54 67 28 q 88 326 83 190 q 88 599 93 463 q 69 872 83 736 q 89 913 67 899 q 138 926 111 926 l 578 926 q 618 912 604 926 q 632 869 632 897 m 257 1090 q 282 1150 257 1126 q 340 1174 307 1174 q 400 1150 376 1174 q 424 1090 424 1126 q 400 1032 424 1057 q 340 1007 376 1007 q 282 1032 307 1007 q 257 1090 257 1057 z "},"È":{"ha":674,"x_min":67,"x_max":639,"o":"m 632 869 q 618 821 632 843 q 578 801 604 799 q 466 811 524 808 q 350 815 408 814 q 236 815 292 815 q 217 808 222 815 q 213 788 211 801 q 221 665 219 728 q 222 542 222 601 q 229 522 222 528 q 250 518 236 517 q 383 528 317 525 q 515 542 450 532 q 545 534 533 544 q 563 507 557 524 q 569 471 569 490 q 556 431 569 444 q 515 417 542 417 q 381 415 449 417 q 247 406 314 414 q 228 397 235 404 q 222 378 222 390 q 220 258 222 317 q 211 139 218 200 q 216 118 210 125 q 236 111 222 111 q 353 112 294 111 q 469 116 411 113 q 585 125 528 119 q 625 105 611 128 q 639 54 639 82 q 625 14 639 28 q 585 0 611 0 l 138 0 q 89 14 111 0 q 69 54 67 28 q 88 326 83 190 q 88 599 93 463 q 69 872 83 736 q 89 913 67 899 q 138 926 111 926 l 578 926 q 618 912 604 926 q 632 869 632 897 m 446 1075 q 475 1041 464 1064 q 475 1000 486 1018 l 474 997 q 441 981 464 979 q 399 994 418 983 q 317 1040 358 1018 q 236 1075 276 1061 q 217 1093 222 1081 q 212 1122 211 1106 q 219 1150 213 1138 l 226 1161 q 255 1193 238 1181 q 288 1190 272 1206 q 373 1122 339 1144 q 446 1075 407 1100 z "},"Ē":{"ha":674,"x_min":63,"x_max":639,"o":"m 632 869 q 618 821 632 843 q 578 801 604 799 q 466 811 524 808 q 350 815 408 814 q 236 815 292 815 q 217 808 222 815 q 213 788 211 801 q 221 665 219 728 q 222 542 222 601 q 229 522 222 528 q 250 518 236 517 q 383 528 317 525 q 515 542 450 532 q 545 534 533 544 q 563 507 557 524 q 569 471 569 490 q 556 431 569 444 q 515 417 542 417 q 381 415 449 417 q 247 406 314 414 q 228 397 235 404 q 222 378 222 390 q 220 258 222 317 q 211 139 218 200 q 216 118 210 125 q 236 111 222 111 q 353 112 294 111 q 469 116 411 113 q 585 125 528 119 q 625 105 611 128 q 639 54 639 82 q 625 14 639 28 q 585 0 611 0 l 138 0 q 89 14 111 0 q 69 54 67 28 q 88 326 83 190 q 88 599 93 463 q 69 872 83 736 q 89 913 67 899 q 138 926 111 926 l 578 926 q 618 912 604 926 q 632 869 632 897 m 632 1100 q 623 1072 632 1086 q 601 1049 614 1058 q 574 1042 588 1040 q 107 1042 340 1063 q 74 1060 86 1040 q 63 1100 63 1079 l 63 1101 q 74 1134 63 1122 q 107 1146 86 1146 q 340 1148 224 1146 q 574 1160 457 1150 q 601 1152 588 1161 q 623 1129 614 1143 q 632 1101 632 1115 l 632 1100 z "},"Ę":{"ha":674,"x_min":67,"x_max":653,"o":"m 632 869 q 618 821 632 843 q 578 801 604 799 q 466 811 524 808 q 350 815 408 814 q 236 815 292 815 q 217 808 222 815 q 213 788 211 801 q 221 665 219 728 q 222 542 222 601 q 229 522 222 528 q 250 518 236 517 q 383 528 317 525 q 515 542 450 532 q 545 534 533 544 q 563 507 557 524 q 569 471 569 490 q 556 431 569 444 q 515 417 542 417 q 381 415 449 417 q 247 406 314 414 q 228 397 235 404 q 222 378 222 390 q 220 258 222 317 q 211 139 218 200 q 216 118 210 125 q 236 111 222 111 q 353 112 294 111 q 469 116 411 113 q 585 125 528 119 q 625 105 611 128 q 639 54 639 82 q 625 14 639 28 q 585 0 611 0 l 138 0 q 89 14 111 0 q 69 54 67 28 q 88 326 83 190 q 88 599 93 463 q 69 872 83 736 q 89 913 67 899 q 138 926 111 926 l 578 926 q 618 912 604 926 q 632 869 632 897 m 581 -208 q 506 -191 538 -208 q 460 -144 475 -174 q 451 -76 444 -114 q 469 -31 457 -51 q 503 4 482 -11 q 556 28 525 19 l 599 40 l 613 14 q 594 6 613 14 q 559 -21 576 -1 q 542 -76 542 -40 q 556 -108 542 -99 q 588 -120 569 -118 q 621 -122 607 -122 q 642 -127 632 -122 q 653 -147 653 -132 q 628 -195 653 -182 q 581 -208 604 -208 z "},"Ẽ":{"ha":674,"x_min":67,"x_max":639,"o":"m 632 869 q 618 821 632 843 q 578 801 604 799 q 466 811 524 808 q 350 815 408 814 q 236 815 292 815 q 217 808 222 815 q 213 788 211 801 q 221 665 219 728 q 222 542 222 601 q 229 522 222 528 q 250 518 236 517 q 383 528 317 525 q 515 542 450 532 q 545 534 533 544 q 563 507 557 524 q 569 471 569 490 q 556 431 569 444 q 515 417 542 417 q 381 415 449 417 q 247 406 314 414 q 228 397 235 404 q 222 378 222 390 q 220 258 222 317 q 211 139 218 200 q 216 118 210 125 q 236 111 222 111 q 353 112 294 111 q 469 116 411 113 q 585 125 528 119 q 625 105 611 128 q 639 54 639 82 q 625 14 639 28 q 585 0 611 0 l 138 0 q 89 14 111 0 q 69 54 67 28 q 88 326 83 190 q 88 599 93 463 q 69 872 83 736 q 89 913 67 899 q 138 926 111 926 l 578 926 q 618 912 604 926 q 632 869 632 897 m 118 1043 q 108 1067 108 1054 q 118 1090 108 1079 q 152 1120 132 1104 q 197 1148 172 1136 q 246 1160 221 1160 q 300 1146 279 1160 q 338 1115 321 1132 q 376 1083 354 1097 q 432 1069 397 1069 q 472 1087 451 1069 q 507 1114 493 1104 q 538 1124 519 1124 q 567 1113 556 1124 l 574 1107 q 585 1085 582 1100 q 585 1055 588 1069 q 575 1032 583 1040 q 510 992 553 1010 q 432 975 468 975 q 376 989 397 975 q 338 1020 354 1003 q 301 1051 321 1038 q 246 1065 281 1065 q 207 1055 228 1065 q 171 1033 186 1044 q 147 1024 158 1024 q 124 1036 135 1025 l 118 1043 z "},"Ə":{"ha":771,"x_min":56,"x_max":715,"o":"m 382 -14 q 297 -5 342 -14 q 208 31 251 4 q 131 110 165 58 q 76 248 97 163 q 56 460 56 333 q 81 510 56 492 q 138 528 106 528 l 561 528 q 574 543 576 528 q 544 688 568 624 q 481 791 521 753 q 382 829 440 829 q 330 817 354 829 q 286 793 306 804 q 238 786 264 781 q 193 810 213 792 l 190 813 q 176 855 169 833 q 206 893 182 876 q 382 940 278 940 q 524 904 463 940 q 628 805 586 868 q 693 659 671 742 q 715 482 715 576 l 715 410 q 676 190 715 285 q 563 40 638 94 q 382 -14 489 -14 m 161 400 q 190 224 161 286 q 270 136 219 161 q 382 111 321 111 q 526 185 478 111 q 576 392 574 258 q 563 406 576 406 q 484 408 531 407 q 388 410 438 408 q 294 412 339 411 q 217 413 249 413 q 176 414 185 414 q 161 400 161 417 z "},"F":{"ha":667,"x_min":68,"x_max":632,"o":"m 632 869 q 618 821 632 843 q 578 801 604 799 q 462 811 522 808 q 341 815 401 814 q 224 815 281 815 q 213 811 217 815 q 210 800 210 807 q 219 714 217 757 q 222 628 221 671 q 222 542 222 585 q 226 531 222 535 q 236 528 229 528 q 376 530 306 528 q 515 542 446 532 q 545 534 533 544 q 563 507 557 524 q 569 471 569 490 q 556 431 569 444 q 515 417 542 417 q 375 415 446 417 q 235 404 304 414 q 226 400 229 403 q 222 390 222 397 q 223 277 222 332 q 226 167 224 222 q 236 54 229 113 q 213 14 239 28 q 138 0 186 0 q 90 14 111 0 q 69 54 68 28 q 78 326 76 190 q 78 599 81 463 q 69 872 76 736 q 90 913 68 899 q 138 926 111 926 l 578 926 q 618 912 604 926 q 632 869 632 897 z "},"G":{"ha":774,"x_min":56,"x_max":722,"o":"m 389 -14 q 247 17 308 -14 q 142 104 185 47 q 78 239 100 161 q 56 410 56 317 l 56 482 q 78 659 56 576 q 142 805 100 742 q 247 904 185 868 q 389 940 308 940 q 565 893 493 940 q 595 855 589 876 q 581 813 601 833 l 578 810 q 534 786 560 792 q 485 793 508 781 q 441 817 465 804 q 389 829 417 829 q 280 782 324 829 q 215 656 236 735 q 194 482 194 576 l 194 410 q 242 190 194 268 q 389 111 290 111 q 467 123 429 111 q 539 149 506 135 q 574 183 567 160 q 577 256 581 206 q 568 400 574 307 q 563 411 567 407 q 553 414 560 415 q 499 410 526 413 q 443 403 471 407 q 410 410 426 400 q 385 437 394 419 q 375 471 375 454 q 396 513 375 499 q 443 528 417 528 l 633 528 q 677 519 656 528 q 710 496 699 511 q 715 460 722 481 l 701 417 q 693 347 696 392 q 692 249 690 303 q 701 136 694 194 q 692 88 704 108 q 653 56 679 68 l 599 29 q 592 26 596 28 q 586 24 589 25 q 488 -4 539 6 q 389 -14 438 -14 z "},"Ğ":{"ha":774,"x_min":56,"x_max":722,"o":"m 389 -14 q 247 17 308 -14 q 142 104 185 47 q 78 239 100 161 q 56 410 56 317 l 56 482 q 78 659 56 576 q 142 805 100 742 q 247 904 185 868 q 389 940 308 940 q 565 893 493 940 q 595 855 589 876 q 581 813 601 833 l 578 810 q 534 786 560 792 q 485 793 508 781 q 441 817 465 804 q 389 829 417 829 q 280 782 324 829 q 215 656 236 735 q 194 482 194 576 l 194 410 q 242 190 194 268 q 389 111 290 111 q 467 123 429 111 q 539 149 506 135 q 574 183 567 160 q 577 256 581 206 q 568 400 574 307 q 563 411 567 407 q 553 414 560 415 q 499 410 526 413 q 443 403 471 407 q 410 410 426 400 q 385 437 394 419 q 375 471 375 454 q 396 513 375 499 q 443 528 417 528 l 633 528 q 677 519 656 528 q 710 496 699 511 q 715 460 722 481 l 701 417 q 693 347 696 392 q 692 249 690 303 q 701 136 694 194 q 692 88 704 108 q 653 56 679 68 l 599 29 q 592 26 596 28 q 586 24 589 25 q 488 -4 539 6 q 389 -14 438 -14 m 206 1188 q 236 1177 225 1188 q 253 1147 247 1167 q 301 1079 267 1106 q 382 1053 336 1053 q 442 1065 413 1053 q 492 1098 472 1076 q 513 1147 511 1119 q 527 1184 514 1167 q 560 1201 540 1201 l 561 1201 q 590 1192 576 1201 q 611 1169 603 1183 q 618 1140 619 1156 q 581 1048 614 1090 q 495 981 547 1006 q 382 956 443 956 q 282 981 328 956 q 204 1048 236 1006 q 161 1140 172 1090 q 169 1176 157 1164 q 204 1188 182 1188 l 206 1188 z "},"Ģ":{"ha":774,"x_min":56,"x_max":722,"o":"m 389 -14 q 247 17 308 -14 q 142 104 185 47 q 78 239 100 161 q 56 410 56 317 l 56 482 q 78 659 56 576 q 142 805 100 742 q 247 904 185 868 q 389 940 308 940 q 565 893 493 940 q 595 855 589 876 q 581 813 601 833 l 578 810 q 534 786 560 792 q 485 793 508 781 q 441 817 465 804 q 389 829 417 829 q 280 782 324 829 q 215 656 236 735 q 194 482 194 576 l 194 410 q 242 190 194 268 q 389 111 290 111 q 467 123 429 111 q 539 149 506 135 q 574 183 567 160 q 577 256 581 206 q 568 400 574 307 q 563 411 567 407 q 553 414 560 415 q 499 410 526 413 q 443 403 471 407 q 410 410 426 400 q 385 437 394 419 q 375 471 375 454 q 396 513 375 499 q 443 528 417 528 l 633 528 q 677 519 656 528 q 710 496 699 511 q 715 460 722 481 l 701 417 q 693 347 696 392 q 692 249 690 303 q 701 136 694 194 q 692 88 704 108 q 653 56 679 68 l 599 29 q 592 26 596 28 q 586 24 589 25 q 488 -4 539 6 q 389 -14 438 -14 m 367 -325 q 346 -340 361 -335 q 317 -346 331 -346 l 311 -346 q 288 -342 301 -346 q 265 -331 274 -339 q 263 -312 257 -324 q 308 -219 290 -258 q 342 -125 325 -179 q 364 -112 344 -117 q 408 -106 383 -108 q 447 -104 432 -104 l 457 -104 q 475 -108 469 -104 q 481 -120 481 -112 q 476 -139 482 -128 q 422 -232 446 -192 q 367 -325 399 -272 z "},"Ġ":{"ha":774,"x_min":56,"x_max":722,"o":"m 389 -14 q 247 17 308 -14 q 142 104 185 47 q 78 239 100 161 q 56 410 56 317 l 56 482 q 78 659 56 576 q 142 805 100 742 q 247 904 185 868 q 389 940 308 940 q 565 893 493 940 q 595 855 589 876 q 581 813 601 833 l 578 810 q 534 786 560 792 q 485 793 508 781 q 441 817 465 804 q 389 829 417 829 q 280 782 324 829 q 215 656 236 735 q 194 482 194 576 l 194 410 q 242 190 194 268 q 389 111 290 111 q 467 123 429 111 q 539 149 506 135 q 574 183 567 160 q 577 256 581 206 q 568 400 574 307 q 563 411 567 407 q 553 414 560 415 q 499 410 526 413 q 443 403 471 407 q 410 410 426 400 q 385 437 394 419 q 375 471 375 454 q 396 513 375 499 q 443 528 417 528 l 633 528 q 677 519 656 528 q 710 496 699 511 q 715 460 722 481 l 701 417 q 693 347 696 392 q 692 249 690 303 q 701 136 694 194 q 692 88 704 108 q 653 56 679 68 l 599 29 q 592 26 596 28 q 586 24 589 25 q 488 -4 539 6 q 389 -14 438 -14 m 306 1090 q 331 1150 306 1126 q 389 1174 356 1174 q 449 1150 425 1174 q 472 1090 472 1126 q 449 1032 472 1057 q 389 1007 425 1007 q 331 1032 356 1007 q 306 1090 306 1057 z "},"Ḡ":{"ha":774,"x_min":56,"x_max":722,"o":"m 389 -14 q 247 17 308 -14 q 142 104 185 47 q 78 239 100 161 q 56 410 56 317 l 56 482 q 78 659 56 576 q 142 805 100 742 q 247 904 185 868 q 389 940 308 940 q 565 893 493 940 q 595 855 589 876 q 581 813 601 833 l 578 810 q 534 786 560 792 q 485 793 508 781 q 441 817 465 804 q 389 829 417 829 q 280 782 324 829 q 215 656 236 735 q 194 482 194 576 l 194 410 q 242 190 194 268 q 389 111 290 111 q 467 123 429 111 q 539 149 506 135 q 574 183 567 160 q 577 256 581 206 q 568 400 574 307 q 563 411 567 407 q 553 414 560 415 q 499 410 526 413 q 443 403 471 407 q 410 410 426 400 q 385 437 394 419 q 375 471 375 454 q 396 513 375 499 q 443 528 417 528 l 633 528 q 677 519 656 528 q 710 496 699 511 q 715 460 722 481 l 701 417 q 693 347 696 392 q 692 249 690 303 q 701 136 694 194 q 692 88 704 108 q 653 56 679 68 l 599 29 q 592 26 596 28 q 586 24 589 25 q 488 -4 539 6 q 389 -14 438 -14 m 681 1100 q 672 1072 681 1086 q 649 1049 663 1058 q 622 1042 636 1040 q 156 1042 389 1063 q 123 1060 135 1040 q 111 1100 111 1079 l 111 1101 q 123 1134 111 1122 q 156 1146 135 1146 q 389 1148 272 1146 q 622 1160 506 1150 q 649 1152 636 1161 q 672 1129 663 1143 q 681 1101 681 1115 l 681 1100 z "},"H":{"ha":826,"x_min":35,"x_max":758,"o":"m 186 0 q 136 18 154 0 q 118 68 118 36 q 118 230 118 150 q 117 390 118 310 q 113 401 117 397 q 103 404 110 404 q 51 419 67 403 q 35 471 35 435 l 35 474 q 101 528 35 528 q 112 532 108 528 q 115 542 115 536 q 111 700 114 621 q 104 858 108 779 q 115 895 103 881 q 146 918 126 910 q 186 926 165 926 q 230 918 210 926 q 262 895 250 910 q 271 858 274 881 q 266 787 268 835 q 263 676 264 739 q 261 542 261 613 q 265 532 261 536 q 275 528 269 528 q 433 531 354 529 q 589 538 511 533 q 599 542 596 539 q 603 553 603 546 q 604 683 604 622 q 604 790 604 744 q 604 858 604 836 q 622 908 604 890 q 675 926 640 926 q 716 918 697 926 q 747 895 735 910 q 757 858 758 881 q 748 595 750 726 q 748 332 746 464 q 757 68 750 200 q 747 32 758 47 q 716 8 735 17 q 675 0 697 0 q 632 8 653 0 q 599 32 611 17 q 590 68 588 47 q 597 145 594 94 q 600 263 599 196 q 601 403 601 331 q 598 413 601 410 q 588 417 594 417 q 431 416 508 417 q 275 413 353 415 q 265 404 268 413 q 261 379 261 396 q 263 248 261 310 q 266 140 264 186 q 271 68 268 93 q 262 32 274 47 q 230 8 250 17 q 186 0 210 0 z "},"Ħ":{"ha":865,"x_min":10,"x_max":847,"o":"m 10 717 q 23 753 10 740 q 60 767 36 767 q 139 767 83 767 q 268 767 194 767 q 422 769 342 768 q 575 771 501 769 q 704 775 649 772 q 783 781 760 778 q 815 774 800 783 q 838 749 829 764 q 847 717 847 733 l 847 714 q 827 675 847 690 q 783 664 807 660 q 704 669 760 668 q 575 669 649 669 q 422 667 501 669 q 268 663 342 665 q 139 657 194 660 q 60 650 83 654 q 23 667 36 646 q 10 714 10 689 l 10 717 m 178 0 q 128 18 146 0 q 110 68 110 36 q 110 230 110 150 q 108 390 110 310 q 105 401 108 397 q 94 404 101 404 q 42 419 58 403 q 26 471 26 435 l 26 474 q 93 528 26 528 q 103 532 100 528 q 107 542 107 536 q 103 700 106 621 q 96 858 100 779 q 106 895 94 881 q 138 918 118 910 q 178 926 157 926 q 222 918 201 926 q 253 895 242 910 q 263 858 265 881 q 258 787 260 835 q 254 676 256 739 q 253 542 253 613 q 257 532 253 536 q 267 528 261 528 q 424 531 346 529 q 581 538 503 533 q 591 542 588 539 q 594 553 594 546 q 596 683 596 622 q 596 790 596 744 q 596 858 596 836 q 614 908 596 890 q 667 926 632 926 q 708 918 689 926 q 738 895 726 910 q 749 858 750 881 q 740 595 742 726 q 740 332 738 464 q 749 68 742 200 q 738 32 750 47 q 708 8 726 17 q 667 0 689 0 q 624 8 644 0 q 591 32 603 17 q 582 68 579 47 q 588 145 586 94 q 592 263 590 196 q 593 403 593 331 q 590 413 593 410 q 579 417 586 417 q 422 416 500 417 q 267 413 344 415 q 256 404 260 413 q 253 379 253 396 q 254 248 253 310 q 258 140 256 186 q 263 68 260 93 q 253 32 265 47 q 222 8 242 17 q 178 0 201 0 z "},"I":{"ha":486,"x_min":56,"x_max":431,"o":"m 110 -7 q 69 14 83 -7 q 56 61 56 35 q 69 106 56 89 q 110 118 83 122 q 131 116 121 117 q 153 114 142 115 q 163 117 160 113 q 167 126 167 121 l 167 796 q 151 808 167 811 q 131 805 142 807 q 110 801 121 803 q 81 809 93 799 q 62 837 68 819 q 56 872 56 854 q 69 912 56 899 q 110 926 83 925 q 363 926 236 936 q 403 911 389 925 q 417 869 417 897 q 403 827 417 843 q 363 815 389 811 q 342 817 353 817 q 319 819 331 818 q 310 817 314 821 q 306 807 306 814 l 306 138 q 321 125 306 122 q 342 129 332 128 q 363 132 353 131 q 410 118 389 136 q 431 61 431 100 q 410 23 431 35 q 363 7 389 11 q 236 -5 299 -3 q 110 -7 174 -7 z "},"Ĳ":{"ha":1199,"x_min":56,"x_max":1143,"o":"m 110 -7 q 69 14 83 -7 q 56 61 56 35 q 69 106 56 89 q 110 118 83 122 q 131 116 121 117 q 153 114 142 115 q 163 117 160 113 q 167 126 167 121 l 167 796 q 151 808 167 811 q 131 805 142 807 q 110 801 121 803 q 81 809 93 799 q 62 837 68 819 q 56 872 56 854 q 69 912 56 899 q 110 926 83 925 q 363 926 236 936 q 403 911 389 925 q 417 869 417 897 q 403 827 417 843 q 363 815 389 811 q 342 817 353 817 q 319 819 331 818 q 310 817 314 821 q 306 807 306 814 l 306 138 q 321 125 306 122 q 342 129 332 128 q 363 132 353 131 q 410 118 389 136 q 431 61 431 100 q 410 23 431 35 q 363 7 389 11 q 236 -5 299 -3 q 110 -7 174 -7 m 726 -14 q 633 -10 681 -14 q 540 8 585 -6 q 512 27 522 14 q 500 58 501 40 q 507 93 499 76 q 538 129 515 110 q 592 140 561 149 q 656 122 621 132 q 726 111 692 111 q 836 138 793 111 q 900 222 879 164 q 921 375 921 281 l 921 800 q 917 810 921 807 q 907 814 914 814 q 835 812 871 814 q 763 804 799 810 q 730 809 744 801 q 707 832 715 817 q 699 864 699 847 q 716 909 699 892 q 760 926 733 926 l 1088 926 q 1127 910 1111 926 q 1143 868 1143 894 q 1128 831 1143 846 q 1090 814 1114 815 l 1074 814 q 1064 810 1068 814 q 1060 800 1060 807 l 1060 375 q 974 87 1060 188 q 726 -14 888 -14 z "},"Í":{"ha":486,"x_min":56,"x_max":431,"o":"m 110 -7 q 69 14 83 -7 q 56 61 56 35 q 69 106 56 89 q 110 118 83 122 q 131 116 121 117 q 153 114 142 115 q 163 117 160 113 q 167 126 167 121 l 167 796 q 151 808 167 811 q 131 805 142 807 q 110 801 121 803 q 81 809 93 799 q 62 837 68 819 q 56 872 56 854 q 69 912 56 899 q 110 926 83 925 q 363 926 236 936 q 403 911 389 925 q 417 869 417 897 q 403 827 417 843 q 363 815 389 811 q 342 817 353 817 q 319 819 331 818 q 310 817 314 821 q 306 807 306 814 l 306 138 q 321 125 306 122 q 342 129 332 128 q 363 132 353 131 q 410 118 389 136 q 431 61 431 100 q 410 23 431 35 q 363 7 389 11 q 236 -5 299 -3 q 110 -7 174 -7 m 169 999 q 139 992 154 988 q 113 1014 124 996 l 111 1017 q 104 1048 101 1033 q 124 1074 107 1063 q 205 1128 164 1100 q 286 1192 246 1156 q 309 1202 296 1201 q 335 1197 322 1203 q 357 1178 349 1190 l 363 1169 q 369 1136 371 1157 q 359 1098 368 1115 q 336 1076 350 1081 q 243 1043 285 1064 q 169 999 201 1022 z "},"Î":{"ha":486,"x_min":0,"x_max":472,"o":"m 110 -7 q 69 14 83 -7 q 56 61 56 35 q 69 106 56 89 q 110 118 83 122 q 131 116 121 117 q 153 114 142 115 q 163 117 160 113 q 167 126 167 121 l 167 796 q 151 808 167 811 q 131 805 142 807 q 110 801 121 803 q 81 809 93 799 q 62 837 68 819 q 56 872 56 854 q 69 912 56 899 q 110 926 83 925 q 363 926 236 936 q 403 911 389 925 q 417 869 417 897 q 403 827 417 843 q 363 815 389 811 q 342 817 353 817 q 319 819 331 818 q 310 817 314 821 q 306 807 306 814 l 306 138 q 321 125 306 122 q 342 129 332 128 q 363 132 353 131 q 410 118 389 136 q 431 61 431 100 q 410 23 431 35 q 363 7 389 11 q 236 -5 299 -3 q 110 -7 174 -7 m 457 1050 q 467 1020 472 1042 q 451 983 461 999 l 451 982 q 433 967 446 972 q 408 964 421 963 q 385 971 394 965 q 322 1012 350 992 q 263 1053 294 1032 q 210 1053 236 1071 q 151 1012 179 1032 q 88 971 122 992 q 52 965 74 961 q 21 982 31 968 l 19 983 q 5 1013 10 999 q 15 1036 0 1028 q 82 1074 46 1051 q 153 1121 118 1096 q 210 1168 188 1146 q 235 1179 222 1179 q 263 1168 249 1179 q 360 1104 307 1135 q 457 1050 413 1074 z "},"Ï":{"ha":486,"x_min":24,"x_max":447,"o":"m 110 -7 q 69 14 83 -7 q 56 61 56 35 q 69 106 56 89 q 110 118 83 122 q 131 116 121 117 q 153 114 142 115 q 163 117 160 113 q 167 126 167 121 l 167 796 q 151 808 167 811 q 131 805 142 807 q 110 801 121 803 q 81 809 93 799 q 62 837 68 819 q 56 872 56 854 q 69 912 56 899 q 110 926 83 925 q 363 926 236 936 q 403 911 389 925 q 417 869 417 897 q 403 827 417 843 q 363 815 389 811 q 342 817 353 817 q 319 819 331 818 q 310 817 314 821 q 306 807 306 814 l 306 138 q 321 125 306 122 q 342 129 332 128 q 363 132 353 131 q 410 118 389 136 q 431 61 431 100 q 410 23 431 35 q 363 7 389 11 q 236 -5 299 -3 q 110 -7 174 -7 m 111 1000 q 49 1025 74 1000 q 24 1088 24 1050 q 49 1149 24 1124 q 111 1174 74 1174 q 172 1149 147 1174 q 197 1088 197 1124 q 172 1025 197 1050 q 111 1000 147 1000 m 361 1014 q 299 1039 324 1014 q 274 1101 274 1064 q 299 1163 274 1138 q 361 1188 324 1188 q 422 1163 397 1188 q 447 1101 447 1138 q 422 1039 447 1064 q 361 1014 397 1014 z "},"İ":{"ha":486,"x_min":56,"x_max":431,"o":"m 110 -7 q 69 14 83 -7 q 56 61 56 35 q 69 106 56 89 q 110 118 83 122 q 131 116 121 117 q 153 114 142 115 q 163 117 160 113 q 167 126 167 121 l 167 796 q 151 808 167 811 q 131 805 142 807 q 110 801 121 803 q 81 809 93 799 q 62 837 68 819 q 56 872 56 854 q 69 912 56 899 q 110 926 83 925 q 363 926 236 936 q 403 911 389 925 q 417 869 417 897 q 403 827 417 843 q 363 815 389 811 q 342 817 353 817 q 319 819 331 818 q 310 817 314 821 q 306 807 306 814 l 306 138 q 321 125 306 122 q 342 129 332 128 q 363 132 353 131 q 410 118 389 136 q 431 61 431 100 q 410 23 431 35 q 363 7 389 11 q 236 -5 299 -3 q 110 -7 174 -7 m 153 1090 q 178 1150 153 1126 q 236 1174 203 1174 q 296 1150 272 1174 q 319 1090 319 1126 q 296 1032 319 1057 q 236 1007 272 1007 q 178 1032 203 1007 q 153 1090 153 1057 z "},"Ì":{"ha":486,"x_min":56,"x_max":431,"o":"m 110 -7 q 69 14 83 -7 q 56 61 56 35 q 69 106 56 89 q 110 118 83 122 q 131 116 121 117 q 153 114 142 115 q 163 117 160 113 q 167 126 167 121 l 167 796 q 151 808 167 811 q 131 805 142 807 q 110 801 121 803 q 81 809 93 799 q 62 837 68 819 q 56 872 56 854 q 69 912 56 899 q 110 926 83 925 q 363 926 236 936 q 403 911 389 925 q 417 869 417 897 q 403 827 417 843 q 363 815 389 811 q 342 817 353 817 q 319 819 331 818 q 310 817 314 821 q 306 807 306 814 l 306 138 q 321 125 306 122 q 342 129 332 128 q 363 132 353 131 q 410 118 389 136 q 431 61 431 100 q 410 23 431 35 q 363 7 389 11 q 236 -5 299 -3 q 110 -7 174 -7 m 342 1075 q 371 1041 360 1064 q 371 1000 382 1018 l 369 997 q 337 981 360 979 q 294 994 314 983 q 213 1040 254 1018 q 132 1075 172 1061 q 113 1093 118 1081 q 108 1122 107 1106 q 115 1150 108 1138 l 122 1161 q 151 1193 133 1181 q 183 1190 168 1206 q 269 1122 235 1144 q 342 1075 303 1100 z "},"Ī":{"ha":486,"x_min":-42,"x_max":528,"o":"m 110 -7 q 69 14 83 -7 q 56 61 56 35 q 69 106 56 89 q 110 118 83 122 q 131 116 121 117 q 153 114 142 115 q 163 117 160 113 q 167 126 167 121 l 167 796 q 151 808 167 811 q 131 805 142 807 q 110 801 121 803 q 81 809 93 799 q 62 837 68 819 q 56 872 56 854 q 69 912 56 899 q 110 926 83 925 q 363 926 236 936 q 403 911 389 925 q 417 869 417 897 q 403 827 417 843 q 363 815 389 811 q 342 817 353 817 q 319 819 331 818 q 310 817 314 821 q 306 807 306 814 l 306 138 q 321 125 306 122 q 342 129 332 128 q 363 132 353 131 q 410 118 389 136 q 431 61 431 100 q 410 23 431 35 q 363 7 389 11 q 236 -5 299 -3 q 110 -7 174 -7 m 528 1100 q 519 1072 528 1086 q 497 1049 510 1058 q 469 1042 483 1040 q 3 1042 236 1063 q -30 1060 -18 1040 q -42 1100 -42 1079 l -42 1101 q -30 1134 -42 1122 q 3 1146 -18 1146 q 236 1148 119 1146 q 469 1160 353 1150 q 497 1152 483 1161 q 519 1129 510 1143 q 528 1101 528 1115 l 528 1100 z "},"Į":{"ha":486,"x_min":56,"x_max":431,"o":"m 110 -7 q 69 14 83 -7 q 56 61 56 35 q 69 106 56 89 q 110 118 83 122 q 131 116 121 117 q 153 114 142 115 q 163 117 160 113 q 167 126 167 121 l 167 796 q 151 808 167 811 q 131 805 142 807 q 110 801 121 803 q 81 809 93 799 q 62 837 68 819 q 56 872 56 854 q 69 912 56 899 q 110 926 83 925 q 363 926 236 936 q 403 911 389 925 q 417 869 417 897 q 403 827 417 843 q 363 815 389 811 q 342 817 353 817 q 319 819 331 818 q 310 817 314 821 q 306 807 306 814 l 306 138 q 321 125 306 122 q 342 129 332 128 q 363 132 353 131 q 410 118 389 136 q 431 61 431 100 q 410 23 431 35 q 363 7 389 11 q 236 -5 299 -3 q 110 -7 174 -7 m 326 -208 q 252 -191 283 -208 q 206 -144 221 -174 q 197 -76 190 -114 q 215 -31 203 -51 q 249 4 228 -11 q 301 28 271 19 l 344 40 l 358 14 q 340 6 358 14 q 305 -21 322 -1 q 288 -76 288 -40 q 301 -108 288 -99 q 334 -120 315 -118 q 367 -122 353 -122 q 388 -127 378 -122 q 399 -147 399 -132 q 374 -195 399 -182 q 326 -208 350 -208 z "},"Ĩ":{"ha":486,"x_min":4,"x_max":483,"o":"m 110 -7 q 69 14 83 -7 q 56 61 56 35 q 69 106 56 89 q 110 118 83 122 q 131 116 121 117 q 153 114 142 115 q 163 117 160 113 q 167 126 167 121 l 167 796 q 151 808 167 811 q 131 805 142 807 q 110 801 121 803 q 81 809 93 799 q 62 837 68 819 q 56 872 56 854 q 69 912 56 899 q 110 926 83 925 q 363 926 236 936 q 403 911 389 925 q 417 869 417 897 q 403 827 417 843 q 363 815 389 811 q 342 817 353 817 q 319 819 331 818 q 310 817 314 821 q 306 807 306 814 l 306 138 q 321 125 306 122 q 342 129 332 128 q 363 132 353 131 q 410 118 389 136 q 431 61 431 100 q 410 23 431 35 q 363 7 389 11 q 236 -5 299 -3 q 110 -7 174 -7 m 14 1043 q 4 1067 4 1054 q 14 1090 4 1079 q 48 1120 28 1104 q 92 1148 68 1136 q 142 1160 117 1160 q 196 1146 175 1160 q 233 1115 217 1132 q 272 1083 250 1097 q 328 1069 293 1069 q 368 1087 347 1069 q 403 1114 389 1104 q 433 1124 415 1124 q 463 1113 451 1124 l 469 1107 q 481 1085 478 1100 q 481 1055 483 1069 q 471 1032 479 1040 q 406 992 449 1010 q 328 975 364 975 q 272 989 293 975 q 233 1020 250 1003 q 197 1051 217 1038 q 142 1065 176 1065 q 103 1055 124 1065 q 67 1033 82 1044 q 42 1024 54 1024 q 19 1036 31 1025 l 14 1043 z "},"J":{"ha":713,"x_min":13,"x_max":657,"o":"m 240 -14 q 147 -10 194 -14 q 54 8 99 -6 q 26 27 36 14 q 14 58 15 40 q 21 93 13 76 q 52 129 29 110 q 106 140 75 149 q 170 122 135 132 q 240 111 206 111 q 350 138 307 111 q 414 222 393 164 q 435 375 435 281 l 435 800 q 431 810 435 807 q 421 814 428 814 q 349 812 385 814 q 276 804 313 810 q 244 809 258 801 q 221 832 229 817 q 213 864 213 847 q 230 909 213 892 q 274 926 247 926 l 601 926 q 641 910 625 926 q 657 868 657 894 q 642 831 657 846 q 604 814 628 815 l 588 814 q 578 810 582 814 q 574 800 574 807 l 574 375 q 488 87 574 188 q 240 -14 401 -14 z "},"K":{"ha":692,"x_min":35,"x_max":678,"o":"m 117 0 q 78 9 97 0 q 47 33 58 18 q 35 68 35 49 q 44 332 42 200 q 44 595 46 464 q 35 858 42 726 q 47 893 35 878 q 78 917 58 908 q 117 926 97 926 q 169 908 149 926 q 189 858 189 889 l 189 531 q 194 519 189 521 q 206 525 200 518 q 297 647 251 586 q 390 768 343 707 q 481 889 436 829 q 537 933 508 925 q 589 924 565 940 q 611 899 603 915 q 618 863 619 882 q 599 822 617 843 q 514 722 556 771 q 433 627 472 674 q 356 532 394 581 q 351 522 350 526 q 358 513 353 517 q 426 463 383 497 q 518 375 469 428 q 608 250 567 322 q 672 86 650 178 q 667 43 678 63 q 635 12 656 24 q 590 0 614 0 q 540 15 564 0 q 511 56 515 31 q 467 208 497 143 q 401 318 438 274 q 334 388 365 363 q 286 424 303 414 q 276 427 281 428 q 267 421 271 426 q 232 375 249 399 q 197 328 215 351 q 193 319 194 324 q 192 310 192 315 q 194 229 193 269 q 198 149 196 189 q 201 68 200 108 q 190 33 203 49 q 158 8 178 17 q 117 0 138 0 z "},"Ķ":{"ha":692,"x_min":35,"x_max":678,"o":"m 117 0 q 78 9 97 0 q 47 33 58 18 q 35 68 35 49 q 44 332 42 200 q 44 595 46 464 q 35 858 42 726 q 47 893 35 878 q 78 917 58 908 q 117 926 97 926 q 169 908 149 926 q 189 858 189 889 l 189 531 q 194 519 189 521 q 206 525 200 518 q 297 647 251 586 q 390 768 343 707 q 481 889 436 829 q 537 933 508 925 q 589 924 565 940 q 611 899 603 915 q 618 863 619 882 q 599 822 617 843 q 514 722 556 771 q 433 627 472 674 q 356 532 394 581 q 351 522 350 526 q 358 513 353 517 q 426 463 383 497 q 518 375 469 428 q 608 250 567 322 q 672 86 650 178 q 667 43 678 63 q 635 12 656 24 q 590 0 614 0 q 540 15 564 0 q 511 56 515 31 q 467 208 497 143 q 401 318 438 274 q 334 388 365 363 q 286 424 303 414 q 276 427 281 428 q 267 421 271 426 q 232 375 249 399 q 197 328 215 351 q 193 319 194 324 q 192 310 192 315 q 194 229 193 269 q 198 149 196 189 q 201 68 200 108 q 190 33 203 49 q 158 8 178 17 q 117 0 138 0 m 324 -325 q 303 -340 318 -335 q 274 -346 288 -346 l 268 -346 q 244 -342 258 -346 q 222 -331 231 -339 q 219 -312 214 -324 q 265 -219 247 -258 q 299 -125 282 -179 q 321 -112 301 -117 q 365 -106 340 -108 q 404 -104 389 -104 l 414 -104 q 432 -108 426 -104 q 438 -120 438 -112 q 433 -139 439 -128 q 379 -232 403 -192 q 324 -325 356 -272 z "},"L":{"ha":569,"x_min":68,"x_max":583,"o":"m 151 0 q 111 8 131 0 q 80 32 92 17 q 69 68 68 47 q 78 332 76 200 q 78 595 81 464 q 69 858 76 726 q 80 895 68 881 q 111 918 92 910 q 151 926 131 926 q 206 908 186 926 q 222 858 225 890 q 213 614 215 736 q 209 369 210 492 q 208 125 208 247 q 213 115 208 119 q 222 111 217 111 q 362 122 292 113 q 501 139 432 131 q 544 130 526 142 q 573 99 563 118 q 583 61 583 81 q 573 30 583 43 q 544 8 563 17 q 501 0 526 0 l 151 0 z "},"Ĺ":{"ha":569,"x_min":68,"x_max":583,"o":"m 151 0 q 111 8 131 0 q 80 32 92 17 q 69 68 68 47 q 78 332 76 200 q 78 595 81 464 q 69 858 76 726 q 80 895 68 881 q 111 918 92 910 q 151 926 131 926 q 206 908 186 926 q 222 858 225 890 q 213 614 215 736 q 209 369 210 492 q 208 125 208 247 q 213 115 208 119 q 222 111 217 111 q 362 122 292 113 q 501 139 432 131 q 544 130 526 142 q 573 99 563 118 q 583 61 583 81 q 573 30 583 43 q 544 8 563 17 q 501 0 526 0 l 151 0 m 218 1057 q 188 1050 203 1046 q 161 1072 172 1054 l 160 1075 q 153 1106 150 1092 q 172 1132 156 1121 q 253 1186 213 1158 q 335 1250 294 1214 q 358 1260 344 1260 q 384 1255 371 1261 q 406 1236 397 1249 l 411 1228 q 418 1194 419 1215 q 408 1156 417 1174 q 385 1135 399 1139 q 292 1101 333 1122 q 218 1057 250 1081 z "},"Ľ":{"ha":569,"x_min":68,"x_max":693,"o":"m 151 0 q 111 8 131 0 q 80 32 92 17 q 69 68 68 47 q 78 332 76 200 q 78 595 81 464 q 69 858 76 726 q 80 895 68 881 q 111 918 92 910 q 151 926 131 926 q 206 908 186 926 q 222 858 225 890 q 213 614 215 736 q 209 369 210 492 q 208 125 208 247 q 213 115 208 119 q 222 111 217 111 q 362 122 292 113 q 501 139 432 131 q 544 130 526 142 q 573 99 563 118 q 583 61 583 81 q 573 30 583 43 q 544 8 563 17 q 501 0 526 0 l 151 0 m 569 900 q 579 922 569 914 q 603 935 589 931 q 629 940 617 940 l 632 940 q 658 935 644 940 q 683 922 672 931 q 692 900 693 914 l 681 675 q 665 646 679 657 q 632 635 650 635 l 629 635 q 599 646 617 635 q 581 675 582 657 l 569 900 z "},"Ļ":{"ha":569,"x_min":68,"x_max":583,"o":"m 151 0 q 111 8 131 0 q 80 32 92 17 q 69 68 68 47 q 78 332 76 200 q 78 595 81 464 q 69 858 76 726 q 80 895 68 881 q 111 918 92 910 q 151 926 131 926 q 206 908 186 926 q 222 858 225 890 q 213 614 215 736 q 209 369 210 492 q 208 125 208 247 q 213 115 208 119 q 222 111 217 111 q 362 122 292 113 q 501 139 432 131 q 544 130 526 142 q 573 99 563 118 q 583 61 583 81 q 573 30 583 43 q 544 8 563 17 q 501 0 526 0 l 151 0 m 263 -325 q 242 -340 257 -335 q 213 -346 226 -346 l 207 -346 q 183 -342 197 -346 q 161 -331 169 -339 q 158 -312 153 -324 q 203 -219 186 -258 q 238 -125 221 -179 q 260 -112 240 -117 q 303 -106 279 -108 q 343 -104 328 -104 l 353 -104 q 371 -108 365 -104 q 377 -120 376 -112 q 372 -139 378 -128 q 318 -232 342 -192 q 263 -325 294 -272 z "},"Ŀ":{"ha":569,"x_min":68,"x_max":583,"o":"m 424 299 q 354 326 382 299 q 326 396 326 354 q 354 465 326 436 q 424 493 382 493 q 492 465 464 493 q 521 396 521 436 q 492 326 521 354 q 424 299 464 299 m 151 0 q 111 8 131 0 q 80 32 92 17 q 69 68 68 47 q 78 332 76 200 q 78 595 81 464 q 69 858 76 726 q 80 895 68 881 q 111 918 92 910 q 151 926 131 926 q 206 908 186 926 q 222 858 225 890 q 213 614 215 736 q 209 369 210 492 q 208 125 208 247 q 213 115 208 119 q 222 111 217 111 q 362 122 292 113 q 501 139 432 131 q 544 130 526 142 q 573 99 563 118 q 583 61 583 81 q 573 30 583 43 q 544 8 563 17 q 501 0 526 0 l 151 0 z "},"Ł":{"ha":607,"x_min":-28,"x_max":621,"o":"m 292 653 q 338 672 311 672 q 382 653 364 671 l 383 651 q 403 613 403 633 q 383 574 403 592 q 217 424 299 499 q 69 274 135 349 q 32 255 51 254 q -7 274 13 256 l -8 275 q -27 322 -26 294 q -8 367 -28 349 q 147 510 78 442 q 292 653 217 578 m 189 0 q 149 8 168 0 q 117 32 129 17 q 107 68 106 47 q 116 332 114 200 q 116 595 118 464 q 107 858 114 726 q 117 895 106 881 q 149 918 129 910 q 189 926 168 926 q 243 908 224 926 q 260 858 263 890 q 250 614 253 736 q 247 369 247 492 q 246 125 246 247 q 250 115 246 119 q 260 111 254 111 q 399 122 329 113 q 539 139 469 131 q 582 130 564 142 q 610 99 600 118 q 621 61 621 81 q 610 30 621 43 q 582 8 600 17 q 539 0 564 0 l 189 0 z "},"M":{"ha":1014,"x_min":24,"x_max":990,"o":"m 261 744 q 253 752 260 751 q 246 746 247 753 q 218 578 231 679 q 198 349 206 478 q 189 67 190 219 q 163 17 189 35 q 104 0 138 0 q 47 19 71 0 q 28 72 24 38 q 72 388 47 238 q 122 660 96 538 q 168 864 147 782 q 203 910 176 893 q 258 926 229 926 q 318 909 290 926 q 351 863 346 892 q 406 633 379 743 q 456 425 432 522 q 500 247 481 328 q 507 242 501 242 q 514 247 513 242 q 558 425 533 328 q 609 633 582 522 q 663 863 636 743 q 697 909 669 892 q 756 926 725 926 q 811 910 785 926 q 846 864 838 893 q 893 660 868 782 q 942 388 918 538 q 986 72 967 238 q 967 19 990 38 q 911 0 943 0 q 849 19 876 0 q 821 72 821 38 q 817 272 821 174 q 805 460 813 371 q 788 621 797 549 q 768 743 779 693 q 760 749 767 749 q 753 742 754 749 q 676 453 710 583 q 621 226 643 324 q 588 67 599 129 q 560 18 582 36 q 506 0 538 0 q 454 18 475 0 q 428 67 433 36 q 399 206 419 117 q 344 429 378 296 q 261 744 311 563 z "},"N":{"ha":792,"x_min":68,"x_max":724,"o":"m 611 0 q 565 15 585 0 q 533 54 544 29 q 442 269 481 181 q 375 420 404 358 q 323 526 346 482 q 279 603 300 569 q 235 672 258 638 q 227 675 232 676 q 222 668 222 674 q 224 369 222 513 q 236 68 226 225 q 225 33 238 49 q 192 9 213 18 q 151 0 172 0 q 113 9 132 0 q 81 33 93 18 q 69 68 68 49 q 78 324 76 196 q 78 578 81 451 q 69 833 76 706 q 82 882 68 861 q 117 915 96 903 q 160 926 139 926 q 212 913 188 926 q 260 869 236 900 q 327 772 289 832 q 407 639 365 713 q 487 484 449 565 q 554 322 525 403 q 564 313 558 311 q 569 325 569 314 q 569 509 569 422 q 565 684 568 596 q 556 872 563 772 q 567 907 554 892 q 599 931 579 922 q 638 940 618 940 q 678 931 658 940 q 711 907 699 922 q 722 872 724 892 q 713 614 715 744 q 709 352 710 483 q 708 93 708 221 q 682 26 708 53 q 611 0 656 0 z "},"Ń":{"ha":792,"x_min":68,"x_max":724,"o":"m 611 0 q 565 15 585 0 q 533 54 544 29 q 442 269 481 181 q 375 420 404 358 q 323 526 346 482 q 279 603 300 569 q 235 672 258 638 q 227 675 232 676 q 222 668 222 674 q 224 369 222 513 q 236 68 226 225 q 225 33 238 49 q 192 9 213 18 q 151 0 172 0 q 113 9 132 0 q 81 33 93 18 q 69 68 68 49 q 78 324 76 196 q 78 578 81 451 q 69 833 76 706 q 82 882 68 861 q 117 915 96 903 q 160 926 139 926 q 212 913 188 926 q 260 869 236 900 q 327 772 289 832 q 407 639 365 713 q 487 484 449 565 q 554 322 525 403 q 564 313 558 311 q 569 325 569 314 q 569 509 569 422 q 565 684 568 596 q 556 872 563 772 q 567 907 554 892 q 599 931 579 922 q 638 940 618 940 q 678 931 658 940 q 711 907 699 922 q 722 872 724 892 q 713 614 715 744 q 709 352 710 483 q 708 93 708 221 q 682 26 708 53 q 611 0 656 0 m 347 999 q 317 992 332 988 q 290 1014 301 996 l 289 1017 q 282 1048 279 1033 q 301 1074 285 1063 q 383 1128 342 1100 q 464 1192 424 1156 q 487 1202 474 1201 q 513 1197 500 1203 q 535 1178 526 1190 l 540 1169 q 547 1136 549 1157 q 537 1098 546 1115 q 514 1076 528 1081 q 421 1043 463 1064 q 347 999 379 1022 z "},"Ň":{"ha":792,"x_min":68,"x_max":724,"o":"m 611 0 q 565 15 585 0 q 533 54 544 29 q 442 269 481 181 q 375 420 404 358 q 323 526 346 482 q 279 603 300 569 q 235 672 258 638 q 227 675 232 676 q 222 668 222 674 q 224 369 222 513 q 236 68 226 225 q 225 33 238 49 q 192 9 213 18 q 151 0 172 0 q 113 9 132 0 q 81 33 93 18 q 69 68 68 49 q 78 324 76 196 q 78 578 81 451 q 69 833 76 706 q 82 882 68 861 q 117 915 96 903 q 160 926 139 926 q 212 913 188 926 q 260 869 236 900 q 327 772 289 832 q 407 639 365 713 q 487 484 449 565 q 554 322 525 403 q 564 313 558 311 q 569 325 569 314 q 569 509 569 422 q 565 684 568 596 q 556 872 563 772 q 567 907 554 892 q 599 931 579 922 q 638 940 618 940 q 678 931 658 940 q 711 907 699 922 q 722 872 724 892 q 713 614 715 744 q 709 352 710 483 q 708 93 708 221 q 682 26 708 53 q 611 0 656 0 m 629 1176 q 638 1153 636 1167 q 635 1128 639 1140 q 621 1110 632 1117 q 525 1051 565 1076 q 440 992 485 1025 q 388 992 414 971 q 297 1063 343 1025 q 207 1124 251 1101 q 190 1147 192 1132 q 199 1176 189 1163 l 199 1178 q 223 1196 208 1193 q 251 1189 238 1199 q 328 1142 290 1165 q 404 1096 365 1119 q 414 1093 410 1093 q 424 1096 418 1093 q 492 1150 460 1121 q 563 1203 524 1179 q 599 1203 578 1213 q 629 1178 619 1193 l 629 1176 z "},"Ņ":{"ha":792,"x_min":68,"x_max":724,"o":"m 611 0 q 565 15 585 0 q 533 54 544 29 q 442 269 481 181 q 375 420 404 358 q 323 526 346 482 q 279 603 300 569 q 235 672 258 638 q 227 675 232 676 q 222 668 222 674 q 224 369 222 513 q 236 68 226 225 q 225 33 238 49 q 192 9 213 18 q 151 0 172 0 q 113 9 132 0 q 81 33 93 18 q 69 68 68 49 q 78 324 76 196 q 78 578 81 451 q 69 833 76 706 q 82 882 68 861 q 117 915 96 903 q 160 926 139 926 q 212 913 188 926 q 260 869 236 900 q 327 772 289 832 q 407 639 365 713 q 487 484 449 565 q 554 322 525 403 q 564 313 558 311 q 569 325 569 314 q 569 509 569 422 q 565 684 568 596 q 556 872 563 772 q 567 907 554 892 q 599 931 579 922 q 638 940 618 940 q 678 931 658 940 q 711 907 699 922 q 722 872 724 892 q 713 614 715 744 q 709 352 710 483 q 708 93 708 221 q 682 26 708 53 q 611 0 656 0 m 392 -325 q 371 -340 386 -335 q 342 -346 356 -346 l 336 -346 q 313 -342 326 -346 q 290 -331 299 -339 q 288 -312 282 -324 q 333 -219 315 -258 q 367 -125 350 -179 q 389 -112 369 -117 q 433 -106 408 -108 q 472 -104 457 -104 l 482 -104 q 500 -108 494 -104 q 506 -120 506 -112 q 501 -139 507 -128 q 447 -232 471 -192 q 392 -325 424 -272 z "},"Ñ":{"ha":792,"x_min":68,"x_max":724,"o":"m 611 0 q 565 15 585 0 q 533 54 544 29 q 442 269 481 181 q 375 420 404 358 q 323 526 346 482 q 279 603 300 569 q 235 672 258 638 q 227 675 232 676 q 222 668 222 674 q 224 369 222 513 q 236 68 226 225 q 225 33 238 49 q 192 9 213 18 q 151 0 172 0 q 113 9 132 0 q 81 33 93 18 q 69 68 68 49 q 78 324 76 196 q 78 578 81 451 q 69 833 76 706 q 82 882 68 861 q 117 915 96 903 q 160 926 139 926 q 212 913 188 926 q 260 869 236 900 q 327 772 289 832 q 407 639 365 713 q 487 484 449 565 q 554 322 525 403 q 564 313 558 311 q 569 325 569 314 q 569 509 569 422 q 565 684 568 596 q 556 872 563 772 q 567 907 554 892 q 599 931 579 922 q 638 940 618 940 q 678 931 658 940 q 711 907 699 922 q 722 872 724 892 q 713 614 715 744 q 709 352 710 483 q 708 93 708 221 q 682 26 708 53 q 611 0 656 0 m 192 1043 q 182 1067 182 1054 q 192 1090 182 1079 q 226 1120 206 1104 q 270 1148 246 1136 q 319 1160 294 1160 q 374 1146 353 1160 q 411 1115 394 1132 q 449 1083 428 1097 q 506 1069 471 1069 q 546 1087 525 1069 q 581 1114 567 1104 q 611 1124 593 1124 q 640 1113 629 1124 l 647 1107 q 658 1085 656 1100 q 659 1055 661 1069 q 649 1032 657 1040 q 584 992 626 1010 q 506 975 542 975 q 449 989 471 975 q 411 1020 428 1003 q 374 1051 394 1038 q 319 1065 354 1065 q 281 1055 301 1065 q 244 1033 260 1044 q 220 1024 232 1024 q 197 1036 208 1025 l 192 1043 z "},"O":{"ha":792,"x_min":56,"x_max":736,"o":"m 736 482 q 658 116 736 235 q 410 -14 581 -3 q 204 35 282 -21 q 91 204 126 90 q 56 482 56 318 q 78 666 56 582 q 145 811 101 750 q 252 906 189 872 q 396 940 315 940 q 540 905 476 940 q 647 806 603 869 q 713 660 690 743 q 736 482 736 578 m 194 444 q 247 191 194 281 q 396 111 299 101 q 546 201 494 122 q 597 444 597 281 l 597 482 q 574 656 597 576 q 507 782 551 735 q 396 829 463 829 q 285 782 331 829 q 217 656 240 735 q 194 482 194 576 l 194 444 z "},"Ó":{"ha":792,"x_min":56,"x_max":736,"o":"m 736 482 q 658 116 736 235 q 410 -14 581 -3 q 204 35 282 -21 q 91 204 126 90 q 56 482 56 318 q 78 666 56 582 q 145 811 101 750 q 252 906 189 872 q 396 940 315 940 q 540 905 476 940 q 647 806 603 869 q 713 660 690 743 q 736 482 736 578 m 194 444 q 247 191 194 281 q 396 111 299 101 q 546 201 494 122 q 597 444 597 281 l 597 482 q 574 656 597 576 q 507 782 551 735 q 396 829 463 829 q 285 782 331 829 q 217 656 240 735 q 194 482 194 576 l 194 444 m 329 999 q 299 992 314 988 q 272 1014 283 996 l 271 1017 q 264 1048 261 1033 q 283 1074 267 1063 q 365 1128 324 1100 q 446 1192 406 1156 q 469 1202 456 1201 q 495 1197 482 1203 q 517 1178 508 1190 l 522 1169 q 529 1136 531 1157 q 519 1098 528 1115 q 496 1076 510 1081 q 403 1043 444 1064 q 329 999 361 1022 z "},"Ô":{"ha":792,"x_min":56,"x_max":736,"o":"m 736 482 q 658 116 736 235 q 410 -14 581 -3 q 204 35 282 -21 q 91 204 126 90 q 56 482 56 318 q 78 666 56 582 q 145 811 101 750 q 252 906 189 872 q 396 940 315 940 q 540 905 476 940 q 647 806 603 869 q 713 660 690 743 q 736 482 736 578 m 194 444 q 247 191 194 281 q 396 111 299 101 q 546 201 494 122 q 597 444 597 281 l 597 482 q 574 656 597 576 q 507 782 551 735 q 396 829 463 829 q 285 782 331 829 q 217 656 240 735 q 194 482 194 576 l 194 444 m 617 1050 q 626 1020 632 1042 q 611 983 621 999 l 611 982 q 593 967 606 972 q 567 964 581 963 q 544 971 554 965 q 482 1012 510 992 q 422 1053 454 1032 q 369 1053 396 1071 q 310 1012 339 1032 q 247 971 282 992 q 212 965 233 961 q 181 982 190 968 l 179 983 q 165 1013 169 999 q 175 1036 160 1028 q 242 1074 206 1051 q 313 1121 278 1096 q 369 1168 347 1146 q 395 1179 382 1179 q 422 1168 408 1179 q 519 1104 467 1135 q 617 1050 572 1074 z "},"Ö":{"ha":792,"x_min":56,"x_max":736,"o":"m 736 482 q 658 116 736 235 q 410 -14 581 -3 q 204 35 282 -21 q 91 204 126 90 q 56 482 56 318 q 78 666 56 582 q 145 811 101 750 q 252 906 189 872 q 396 940 315 940 q 540 905 476 940 q 647 806 603 869 q 713 660 690 743 q 736 482 736 578 m 194 444 q 247 191 194 281 q 396 111 299 101 q 546 201 494 122 q 597 444 597 281 l 597 482 q 574 656 597 576 q 507 782 551 735 q 396 829 463 829 q 285 782 331 829 q 217 656 240 735 q 194 482 194 576 l 194 444 m 271 1000 q 208 1025 233 1000 q 183 1088 183 1050 q 208 1149 183 1124 q 271 1174 233 1174 q 332 1149 307 1174 q 357 1088 357 1124 q 332 1025 357 1050 q 271 1000 307 1000 m 521 1014 q 458 1039 483 1014 q 433 1101 433 1064 q 458 1163 433 1138 q 521 1188 483 1188 q 582 1163 557 1188 q 607 1101 607 1138 q 582 1039 607 1064 q 521 1014 557 1014 z "},"Ò":{"ha":792,"x_min":56,"x_max":736,"o":"m 736 482 q 658 116 736 235 q 410 -14 581 -3 q 204 35 282 -21 q 91 204 126 90 q 56 482 56 318 q 78 666 56 582 q 145 811 101 750 q 252 906 189 872 q 396 940 315 940 q 540 905 476 940 q 647 806 603 869 q 713 660 690 743 q 736 482 736 578 m 194 444 q 247 191 194 281 q 396 111 299 101 q 546 201 494 122 q 597 444 597 281 l 597 482 q 574 656 597 576 q 507 782 551 735 q 396 829 463 829 q 285 782 331 829 q 217 656 240 735 q 194 482 194 576 l 194 444 m 501 1075 q 531 1041 519 1064 q 531 1000 542 1018 l 529 997 q 497 981 519 979 q 454 994 474 983 q 373 1040 414 1018 q 292 1075 332 1061 q 272 1093 278 1081 q 267 1122 267 1106 q 275 1150 268 1138 l 282 1161 q 310 1193 293 1181 q 343 1190 328 1206 q 428 1122 394 1144 q 501 1075 463 1100 z "},"Ő":{"ha":792,"x_min":56,"x_max":736,"o":"m 736 482 q 658 116 736 235 q 410 -14 581 -3 q 204 35 282 -21 q 91 204 126 90 q 56 482 56 318 q 78 666 56 582 q 145 811 101 750 q 252 906 189 872 q 396 940 315 940 q 540 905 476 940 q 647 806 603 869 q 713 660 690 743 q 736 482 736 578 m 194 444 q 247 191 194 281 q 396 111 299 101 q 546 201 494 122 q 597 444 597 281 l 597 482 q 574 656 597 576 q 507 782 551 735 q 396 829 463 829 q 285 782 331 829 q 217 656 240 735 q 194 482 194 576 l 194 444 m 344 982 q 322 965 339 971 q 290 958 304 958 l 285 958 q 252 969 267 958 q 246 997 238 979 q 298 1105 274 1051 q 339 1213 322 1158 q 359 1227 342 1222 q 398 1234 376 1232 q 435 1236 419 1236 l 444 1236 q 465 1231 458 1236 q 474 1216 472 1225 q 468 1196 475 1207 q 407 1089 438 1143 q 344 982 376 1035 m 518 982 q 495 965 513 971 q 464 958 478 958 l 458 958 q 426 969 440 958 q 419 997 411 979 q 474 1105 447 1051 q 526 1213 500 1158 q 559 1231 533 1225 q 608 1236 585 1236 l 618 1236 q 643 1230 632 1236 q 659 1215 654 1224 q 656 1196 664 1206 q 582 1089 614 1143 q 518 982 550 1035 z "},"Ō":{"ha":792,"x_min":56,"x_max":736,"o":"m 736 482 q 658 116 736 235 q 410 -14 581 -3 q 204 35 282 -21 q 91 204 126 90 q 56 482 56 318 q 78 666 56 582 q 145 811 101 750 q 252 906 189 872 q 396 940 315 940 q 540 905 476 940 q 647 806 603 869 q 713 660 690 743 q 736 482 736 578 m 194 444 q 247 191 194 281 q 396 111 299 101 q 546 201 494 122 q 597 444 597 281 l 597 482 q 574 656 597 576 q 507 782 551 735 q 396 829 463 829 q 285 782 331 829 q 217 656 240 735 q 194 482 194 576 l 194 444 m 688 1100 q 678 1072 688 1086 q 656 1049 669 1058 q 629 1042 643 1040 q 163 1042 396 1063 q 130 1060 142 1040 q 118 1100 118 1079 l 118 1101 q 130 1134 118 1122 q 163 1146 142 1146 q 396 1148 279 1146 q 629 1160 513 1150 q 656 1152 643 1161 q 678 1129 669 1143 q 688 1101 688 1115 l 688 1100 z "},"Ø":{"ha":792,"x_min":56,"x_max":736,"o":"m 165 -35 l 161 -33 q 135 -13 147 -26 q 120 17 124 0 q 124 47 117 33 q 340 485 236 267 q 546 922 444 704 q 574 952 557 946 q 613 947 590 958 l 617 946 q 652 919 639 936 q 654 879 665 901 q 440 442 542 661 q 246 4 338 224 q 226 -22 240 -11 q 197 -37 213 -33 q 165 -35 181 -42 m 736 482 q 658 116 736 235 q 410 -14 581 -3 q 204 35 282 -21 q 91 204 126 90 q 56 482 56 318 q 78 666 56 582 q 145 811 101 750 q 252 906 189 872 q 396 940 315 940 q 540 905 476 940 q 647 806 603 869 q 713 660 690 743 q 736 482 736 578 m 194 444 q 247 191 194 281 q 396 111 299 101 q 546 201 494 122 q 597 444 597 281 l 597 482 q 574 656 597 576 q 507 782 551 735 q 396 829 463 829 q 285 782 331 829 q 217 656 240 735 q 194 482 194 576 l 194 444 z "},"Õ":{"ha":792,"x_min":56,"x_max":736,"o":"m 736 482 q 658 116 736 235 q 410 -14 581 -3 q 204 35 282 -21 q 91 204 126 90 q 56 482 56 318 q 78 666 56 582 q 145 811 101 750 q 252 906 189 872 q 396 940 315 940 q 540 905 476 940 q 647 806 603 869 q 713 660 690 743 q 736 482 736 578 m 194 444 q 247 191 194 281 q 396 111 299 101 q 546 201 494 122 q 597 444 597 281 l 597 482 q 574 656 597 576 q 507 782 551 735 q 396 829 463 829 q 285 782 331 829 q 217 656 240 735 q 194 482 194 576 l 194 444 m 174 1043 q 164 1067 164 1054 q 174 1090 164 1079 q 208 1120 188 1104 q 252 1148 228 1136 q 301 1160 276 1160 q 356 1146 335 1160 q 393 1115 376 1132 q 431 1083 410 1097 q 488 1069 453 1069 q 528 1087 507 1069 q 563 1114 549 1104 q 593 1124 575 1124 q 622 1113 611 1124 l 629 1107 q 640 1085 638 1100 q 641 1055 643 1069 q 631 1032 639 1040 q 566 992 608 1010 q 488 975 524 975 q 431 989 453 975 q 393 1020 410 1003 q 356 1051 376 1038 q 301 1065 336 1065 q 263 1055 283 1065 q 226 1033 242 1044 q 202 1024 214 1024 q 179 1036 190 1025 l 174 1043 z "},"Œ":{"ha":1181,"x_min":56,"x_max":1146,"o":"m 410 -14 q 204 35 282 -21 q 91 204 126 90 q 56 482 56 318 q 78 666 56 582 q 145 811 101 750 q 252 906 189 872 q 396 940 315 940 q 529 905 476 940 q 612 806 582 869 q 654 660 642 743 q 667 482 667 578 q 658 267 667 358 q 624 116 650 176 q 547 24 597 56 q 410 -14 496 -8 m 194 444 q 247 191 194 281 q 396 111 299 101 q 546 201 494 122 q 597 444 597 281 l 597 482 q 574 656 597 576 q 507 782 551 735 q 396 829 463 829 q 285 782 331 829 q 217 656 240 735 q 194 482 194 576 l 194 444 m 1139 869 q 1125 821 1139 843 q 1085 801 1111 799 q 973 811 1031 808 q 857 815 915 814 q 743 815 799 815 q 724 808 729 815 q 719 788 718 801 q 728 665 726 728 q 729 542 729 601 q 736 522 729 528 q 757 518 743 517 q 890 528 824 525 q 1022 542 957 532 q 1052 534 1040 544 q 1070 507 1064 524 q 1076 471 1076 490 q 1063 431 1076 444 q 1022 417 1049 417 q 888 415 956 417 q 754 406 821 414 q 735 397 742 404 q 729 378 729 390 q 727 258 729 317 q 718 139 725 200 q 723 118 717 125 q 743 111 729 111 q 860 112 801 111 q 976 116 918 113 q 1092 125 1035 119 q 1132 105 1118 128 q 1146 54 1146 82 q 1132 14 1146 28 q 1092 0 1118 0 l 644 0 q 596 14 618 0 q 576 54 574 28 q 595 326 590 190 q 595 599 600 463 q 576 872 590 736 q 596 913 574 899 q 644 926 618 926 l 1085 926 q 1125 912 1111 926 q 1139 869 1139 897 z "},"P":{"ha":726,"x_min":68,"x_max":708,"o":"m 153 0 q 114 9 133 0 q 82 34 94 18 q 69 69 69 50 q 78 333 76 201 q 78 595 81 464 q 69 857 76 726 q 81 892 68 878 q 115 915 94 906 q 153 926 135 924 q 230 937 185 933 q 354 940 275 940 q 547 906 468 940 q 667 810 625 872 q 708 663 708 747 q 664 515 708 578 q 537 419 619 453 q 340 385 454 385 q 286 389 314 385 q 242 394 258 393 q 229 392 235 397 q 224 381 224 388 q 226 225 224 303 q 238 69 228 147 q 228 34 240 50 q 194 9 215 18 q 153 0 174 0 m 219 818 q 211 813 214 817 q 210 803 208 810 q 221 662 219 733 q 222 521 222 590 q 233 507 222 510 q 281 501 249 506 q 356 496 314 496 q 476 516 428 496 q 547 574 524 536 q 571 663 571 611 q 547 752 571 715 q 476 809 524 789 q 356 829 429 829 q 288 828 322 829 q 219 818 254 826 z "},"Þ":{"ha":718,"x_min":68,"x_max":700,"o":"m 147 -14 q 92 3 117 -14 q 69 50 68 19 q 79 322 76 182 q 83 603 82 463 q 83 876 83 744 q 107 924 83 907 q 161 940 131 940 l 164 940 q 195 933 185 940 q 210 911 206 925 q 214 876 214 897 l 214 732 l 350 732 q 542 701 464 732 q 660 613 619 671 q 700 472 700 556 q 677 356 700 410 q 609 264 654 303 q 499 208 564 225 q 350 199 433 190 l 215 213 l 215 50 q 199 3 215 19 q 151 -14 182 -14 l 147 -14 m 214 629 l 215 315 l 351 308 q 517 347 463 303 q 571 472 571 392 q 517 591 571 553 q 351 629 463 629 l 214 629 z "},"Q":{"ha":792,"x_min":56,"x_max":736,"o":"m 736 482 q 673 135 736 258 q 471 -10 610 13 q 460 -25 458 -12 q 497 -127 464 -89 q 588 -176 531 -165 q 619 -193 607 -181 q 631 -226 631 -206 q 616 -262 631 -249 q 578 -275 601 -276 q 406 -193 471 -260 q 333 -21 340 -126 q 321 -6 333 -10 q 117 143 179 22 q 56 482 56 264 q 78 666 56 582 q 145 811 101 750 q 252 906 189 872 q 396 940 315 940 q 540 905 476 940 q 647 806 603 869 q 713 660 690 743 q 736 482 736 578 m 194 444 q 247 191 194 281 q 396 111 299 101 q 546 201 494 122 q 597 444 597 281 l 597 482 q 574 656 597 576 q 507 782 551 735 q 396 829 463 829 q 285 782 331 829 q 217 656 240 735 q 194 482 194 576 l 194 444 z "},"R":{"ha":742,"x_min":68,"x_max":713,"o":"m 151 0 q 113 9 132 0 q 81 33 93 18 q 69 68 69 49 q 78 265 75 167 q 81 463 81 364 q 78 661 81 563 q 69 858 75 760 q 97 903 68 888 q 151 926 125 919 q 227 940 175 933 q 354 947 279 947 q 535 913 461 947 q 649 816 610 878 q 688 672 688 754 q 641 519 688 583 q 506 424 594 454 q 501 419 501 422 q 504 414 501 417 q 566 358 528 397 q 643 253 604 319 q 706 90 682 188 q 701 45 713 65 q 668 13 689 25 q 624 0 647 0 q 576 15 600 0 q 546 56 551 31 q 491 221 525 151 q 424 335 457 290 q 368 400 390 379 q 364 402 367 401 q 354 403 361 403 q 295 407 331 403 q 239 414 260 411 q 222 400 222 417 q 224 234 222 317 q 236 68 226 151 q 226 33 239 49 q 192 9 213 18 q 151 0 172 0 m 356 514 q 502 556 454 514 q 550 672 550 599 q 502 788 550 746 q 356 829 454 829 q 280 825 317 829 q 224 818 243 821 q 215 813 218 817 q 211 801 211 808 q 222 670 221 736 q 224 538 224 604 q 226 530 224 533 q 233 525 229 526 q 278 518 247 522 q 356 514 310 514 z "},"Ŕ":{"ha":742,"x_min":68,"x_max":713,"o":"m 151 0 q 113 9 132 0 q 81 33 93 18 q 69 68 69 49 q 78 265 75 167 q 81 463 81 364 q 78 661 81 563 q 69 858 75 760 q 97 903 68 888 q 151 926 125 919 q 227 940 175 933 q 354 947 279 947 q 535 913 461 947 q 649 816 610 878 q 688 672 688 754 q 641 519 688 583 q 506 424 594 454 q 501 419 501 422 q 504 414 501 417 q 566 358 528 397 q 643 253 604 319 q 706 90 682 188 q 701 45 713 65 q 668 13 689 25 q 624 0 647 0 q 576 15 600 0 q 546 56 551 31 q 491 221 525 151 q 424 335 457 290 q 368 400 390 379 q 364 402 367 401 q 354 403 361 403 q 295 407 331 403 q 239 414 260 411 q 222 400 222 417 q 224 234 222 317 q 236 68 226 151 q 226 33 239 49 q 192 9 213 18 q 151 0 172 0 m 356 514 q 502 556 454 514 q 550 672 550 599 q 502 788 550 746 q 356 829 454 829 q 280 825 317 829 q 224 818 243 821 q 215 813 218 817 q 211 801 211 808 q 222 670 221 736 q 224 538 224 604 q 226 530 224 533 q 233 525 229 526 q 278 518 247 522 q 356 514 310 514 m 322 999 q 292 992 307 988 q 265 1014 276 996 l 264 1017 q 257 1048 254 1033 q 276 1074 260 1063 q 358 1128 317 1100 q 439 1192 399 1156 q 462 1202 449 1201 q 488 1197 475 1203 q 510 1178 501 1190 l 515 1169 q 522 1136 524 1157 q 512 1098 521 1115 q 489 1076 503 1081 q 396 1043 438 1064 q 322 999 354 1022 z "},"Ř":{"ha":742,"x_min":68,"x_max":713,"o":"m 151 0 q 113 9 132 0 q 81 33 93 18 q 69 68 69 49 q 78 265 75 167 q 81 463 81 364 q 78 661 81 563 q 69 858 75 760 q 97 903 68 888 q 151 926 125 919 q 227 940 175 933 q 354 947 279 947 q 535 913 461 947 q 649 816 610 878 q 688 672 688 754 q 641 519 688 583 q 506 424 594 454 q 501 419 501 422 q 504 414 501 417 q 566 358 528 397 q 643 253 604 319 q 706 90 682 188 q 701 45 713 65 q 668 13 689 25 q 624 0 647 0 q 576 15 600 0 q 546 56 551 31 q 491 221 525 151 q 424 335 457 290 q 368 400 390 379 q 364 402 367 401 q 354 403 361 403 q 295 407 331 403 q 239 414 260 411 q 222 400 222 417 q 224 234 222 317 q 236 68 226 151 q 226 33 239 49 q 192 9 213 18 q 151 0 172 0 m 356 514 q 502 556 454 514 q 550 672 550 599 q 502 788 550 746 q 356 829 454 829 q 280 825 317 829 q 224 818 243 821 q 215 813 218 817 q 211 801 211 808 q 222 670 221 736 q 224 538 224 604 q 226 530 224 533 q 233 525 229 526 q 278 518 247 522 q 356 514 310 514 m 604 1176 q 613 1153 611 1167 q 610 1128 614 1140 q 596 1110 607 1117 q 500 1051 540 1076 q 415 992 460 1025 q 363 992 389 971 q 272 1063 318 1025 q 182 1124 226 1101 q 165 1147 167 1132 q 174 1176 164 1163 l 174 1178 q 198 1196 183 1193 q 226 1189 213 1199 q 303 1142 265 1165 q 379 1096 340 1119 q 389 1093 385 1093 q 399 1096 393 1093 q 467 1150 435 1121 q 538 1203 499 1179 q 574 1203 553 1213 q 604 1178 594 1193 l 604 1176 z "},"Ŗ":{"ha":742,"x_min":68,"x_max":713,"o":"m 151 0 q 113 9 132 0 q 81 33 93 18 q 69 68 69 49 q 78 265 75 167 q 81 463 81 364 q 78 661 81 563 q 69 858 75 760 q 97 903 68 888 q 151 926 125 919 q 227 940 175 933 q 354 947 279 947 q 535 913 461 947 q 649 816 610 878 q 688 672 688 754 q 641 519 688 583 q 506 424 594 454 q 501 419 501 422 q 504 414 501 417 q 566 358 528 397 q 643 253 604 319 q 706 90 682 188 q 701 45 713 65 q 668 13 689 25 q 624 0 647 0 q 576 15 600 0 q 546 56 551 31 q 491 221 525 151 q 424 335 457 290 q 368 400 390 379 q 364 402 367 401 q 354 403 361 403 q 295 407 331 403 q 239 414 260 411 q 222 400 222 417 q 224 234 222 317 q 236 68 226 151 q 226 33 239 49 q 192 9 213 18 q 151 0 172 0 m 356 514 q 502 556 454 514 q 550 672 550 599 q 502 788 550 746 q 356 829 454 829 q 280 825 317 829 q 224 818 243 821 q 215 813 218 817 q 211 801 211 808 q 222 670 221 736 q 224 538 224 604 q 226 530 224 533 q 233 525 229 526 q 278 518 247 522 q 356 514 310 514 m 367 -325 q 346 -340 361 -335 q 317 -346 331 -346 l 311 -346 q 288 -342 301 -346 q 265 -331 274 -339 q 263 -312 257 -324 q 308 -219 290 -258 q 342 -125 325 -179 q 364 -112 344 -117 q 408 -106 383 -108 q 447 -104 432 -104 l 457 -104 q 475 -108 469 -104 q 481 -120 481 -112 q 476 -139 482 -128 q 422 -232 446 -192 q 367 -325 399 -272 z "},"S":{"ha":613,"x_min":26,"x_max":585,"o":"m 585 278 q 544 124 585 190 q 432 22 504 58 q 261 -14 360 -14 q 163 -5 213 -14 q 67 22 113 4 q 34 52 42 33 q 28 93 26 71 q 38 125 28 110 q 60 151 47 140 q 88 165 74 161 q 114 161 103 168 q 185 126 147 140 q 261 111 222 111 q 399 151 351 111 q 446 278 446 190 q 399 366 446 326 q 261 431 351 406 q 89 531 149 463 q 29 693 29 599 q 96 873 29 806 q 275 940 163 940 q 454 892 378 940 q 483 856 478 876 q 469 815 489 835 l 463 808 q 419 785 444 790 q 372 793 394 779 q 328 817 353 804 q 275 829 304 829 q 185 794 217 829 q 154 694 154 760 q 190 606 154 640 q 303 556 226 572 q 512 452 439 524 q 585 278 585 381 z "},"Ś":{"ha":613,"x_min":26,"x_max":585,"o":"m 585 278 q 544 124 585 190 q 432 22 504 58 q 261 -14 360 -14 q 163 -5 213 -14 q 67 22 113 4 q 34 52 42 33 q 28 93 26 71 q 38 125 28 110 q 60 151 47 140 q 88 165 74 161 q 114 161 103 168 q 185 126 147 140 q 261 111 222 111 q 399 151 351 111 q 446 278 446 190 q 399 366 446 326 q 261 431 351 406 q 89 531 149 463 q 29 693 29 599 q 96 873 29 806 q 275 940 163 940 q 454 892 378 940 q 483 856 478 876 q 469 815 489 835 l 463 808 q 419 785 444 790 q 372 793 394 779 q 328 817 353 804 q 275 829 304 829 q 185 794 217 829 q 154 694 154 760 q 190 606 154 640 q 303 556 226 572 q 512 452 439 524 q 585 278 585 381 m 207 999 q 176 992 192 988 q 150 1014 161 996 l 149 1017 q 142 1048 139 1033 q 161 1074 144 1063 q 242 1128 201 1100 q 324 1192 283 1156 q 347 1202 333 1201 q 373 1197 360 1203 q 394 1178 386 1190 l 400 1169 q 407 1136 408 1157 q 397 1098 406 1115 q 374 1076 388 1081 q 281 1043 322 1064 q 207 999 239 1022 z "},"Š":{"ha":613,"x_min":26,"x_max":585,"o":"m 585 278 q 544 124 585 190 q 432 22 504 58 q 261 -14 360 -14 q 163 -5 213 -14 q 67 22 113 4 q 34 52 42 33 q 28 93 26 71 q 38 125 28 110 q 60 151 47 140 q 88 165 74 161 q 114 161 103 168 q 185 126 147 140 q 261 111 222 111 q 399 151 351 111 q 446 278 446 190 q 399 366 446 326 q 261 431 351 406 q 89 531 149 463 q 29 693 29 599 q 96 873 29 806 q 275 940 163 940 q 454 892 378 940 q 483 856 478 876 q 469 815 489 835 l 463 808 q 419 785 444 790 q 372 793 394 779 q 328 817 353 804 q 275 829 304 829 q 185 794 217 829 q 154 694 154 760 q 190 606 154 640 q 303 556 226 572 q 512 452 439 524 q 585 278 585 381 m 489 1176 q 497 1153 496 1167 q 495 1128 499 1140 q 481 1110 492 1117 q 385 1051 425 1076 q 300 992 344 1025 q 247 992 274 971 q 157 1063 203 1025 q 67 1124 111 1101 q 50 1147 51 1132 q 58 1176 49 1163 l 58 1178 q 83 1196 68 1193 q 111 1189 97 1199 q 188 1142 150 1165 q 264 1096 225 1119 q 274 1093 269 1093 q 283 1096 278 1093 q 351 1150 319 1121 q 422 1203 383 1179 q 458 1203 438 1213 q 489 1178 479 1193 l 489 1176 z "},"Ş":{"ha":613,"x_min":26,"x_max":585,"o":"m 585 278 q 544 124 585 190 q 432 22 504 58 q 261 -14 360 -14 q 163 -5 213 -14 q 67 22 113 4 q 34 52 42 33 q 28 93 26 71 q 38 125 28 110 q 60 151 47 140 q 88 165 74 161 q 114 161 103 168 q 185 126 147 140 q 261 111 222 111 q 399 151 351 111 q 446 278 446 190 q 399 366 446 326 q 261 431 351 406 q 89 531 149 463 q 29 693 29 599 q 96 873 29 806 q 275 940 163 940 q 454 892 378 940 q 483 856 478 876 q 469 815 489 835 l 463 808 q 419 785 444 790 q 372 793 394 779 q 328 817 353 804 q 275 829 304 829 q 185 794 217 829 q 154 694 154 760 q 190 606 154 640 q 303 556 226 572 q 512 452 439 524 q 585 278 585 381 m 265 -229 q 241 -226 254 -229 q 217 -219 228 -224 q 199 -194 203 -212 q 201 -162 196 -176 l 201 -161 q 239 -144 213 -136 q 253 -147 246 -146 q 265 -147 260 -147 q 297 -125 297 -147 q 285 -111 297 -111 q 260 -111 274 -111 q 237 -106 249 -111 q 218 -90 225 -100 q 213 -71 211 -81 l 226 7 l 296 7 l 282 -57 q 322 -58 300 -51 q 358 -81 343 -64 q 374 -125 374 -99 q 359 -178 374 -154 q 320 -215 344 -201 q 265 -229 296 -229 z "},"Ș":{"ha":613,"x_min":26,"x_max":585,"o":"m 585 278 q 544 124 585 190 q 432 22 504 58 q 261 -14 360 -14 q 163 -5 213 -14 q 67 22 113 4 q 34 52 42 33 q 28 93 26 71 q 38 125 28 110 q 60 151 47 140 q 88 165 74 161 q 114 161 103 168 q 185 126 147 140 q 261 111 222 111 q 399 151 351 111 q 446 278 446 190 q 399 366 446 326 q 261 431 351 406 q 89 531 149 463 q 29 693 29 599 q 96 873 29 806 q 275 940 163 940 q 454 892 378 940 q 483 856 478 876 q 469 815 489 835 l 463 808 q 419 785 444 790 q 372 793 394 779 q 328 817 353 804 q 275 829 304 829 q 185 794 217 829 q 154 694 154 760 q 190 606 154 640 q 303 556 226 572 q 512 452 439 524 q 585 278 585 381 m 239 -325 q 218 -340 233 -335 q 189 -346 203 -346 l 183 -346 q 160 -342 174 -346 q 138 -331 146 -339 q 135 -312 129 -324 q 180 -219 163 -258 q 214 -125 197 -179 q 236 -112 217 -117 q 280 -106 256 -108 q 319 -104 304 -104 l 329 -104 q 347 -108 342 -104 q 353 -120 353 -112 q 349 -139 354 -128 q 294 -232 318 -192 q 239 -325 271 -272 z "},"ẞ":{"ha":861,"x_min":68,"x_max":833,"o":"m 236 69 q 226 30 238 49 q 195 -1 214 11 q 154 -12 176 -12 l 151 -12 q 111 -1 131 -12 q 80 30 92 11 q 69 69 68 49 q 78 267 75 168 q 81 464 81 365 q 78 661 81 563 q 69 858 75 760 q 94 908 68 890 q 151 926 119 926 l 692 926 q 717 915 710 926 q 722 888 724 904 q 708 857 719 872 l 497 571 q 494 560 493 565 q 504 553 496 556 q 688 497 615 526 q 797 419 761 467 q 833 293 833 372 q 793 136 833 206 q 681 27 753 67 q 510 -12 608 -12 q 409 4 460 -12 q 311 39 358 21 q 283 67 289 49 q 289 107 278 85 l 292 113 q 326 151 303 132 q 372 164 350 171 q 439 133 407 153 q 510 113 471 113 q 647 159 600 113 q 694 293 694 206 q 646 374 694 342 q 510 431 597 406 l 379 468 q 342 488 354 475 q 331 519 331 501 q 346 557 332 538 l 525 799 q 528 810 531 806 q 517 815 525 815 l 236 815 q 222 801 222 815 q 223 557 222 679 q 226 313 224 435 q 236 69 229 192 z "},"T":{"ha":681,"x_min":28,"x_max":653,"o":"m 424 54 q 399 4 425 22 q 342 -14 374 -14 q 281 4 307 -14 q 257 54 256 22 q 267 303 264 181 q 270 549 269 426 q 271 797 271 672 q 257 811 271 811 q 170 808 214 810 q 82 801 126 806 q 42 822 56 800 q 28 869 28 843 q 42 913 28 897 q 82 926 56 929 q 340 924 211 917 q 599 940 469 931 q 639 920 625 943 q 653 869 653 897 q 639 822 653 843 q 599 801 625 800 q 512 808 556 806 q 424 811 468 810 q 410 797 410 811 q 410 549 410 674 q 415 301 411 425 q 424 54 418 178 z "},"Ť":{"ha":681,"x_min":28,"x_max":653,"o":"m 424 54 q 399 4 425 22 q 342 -14 374 -14 q 281 4 307 -14 q 257 54 256 22 q 267 303 264 181 q 270 549 269 426 q 271 797 271 672 q 257 811 271 811 q 170 808 214 810 q 82 801 126 806 q 42 822 56 800 q 28 869 28 843 q 42 913 28 897 q 82 926 56 929 q 340 924 211 917 q 599 940 469 931 q 639 920 625 943 q 653 869 653 897 q 639 822 653 843 q 599 801 625 800 q 512 808 556 806 q 424 811 468 810 q 410 797 410 811 q 410 549 410 674 q 415 301 411 425 q 424 54 418 178 m 556 1176 q 564 1153 563 1167 q 562 1128 565 1140 q 547 1110 558 1117 q 451 1051 492 1076 q 367 992 411 1025 q 314 992 340 971 q 224 1063 269 1025 q 133 1124 178 1101 q 117 1147 118 1132 q 125 1176 115 1163 l 125 1178 q 149 1196 135 1193 q 178 1189 164 1199 q 254 1142 217 1165 q 331 1096 292 1119 q 340 1093 336 1093 q 350 1096 344 1093 q 418 1150 386 1121 q 489 1203 450 1179 q 525 1203 504 1213 q 556 1178 546 1193 l 556 1176 z "},"Ţ":{"ha":681,"x_min":28,"x_max":653,"o":"m 424 54 q 399 4 425 22 q 342 -14 374 -14 q 281 4 307 -14 q 257 54 256 22 q 267 303 264 181 q 270 549 269 426 q 271 797 271 672 q 257 811 271 811 q 170 808 214 810 q 82 801 126 806 q 42 822 56 800 q 28 869 28 843 q 42 913 28 897 q 82 926 56 929 q 340 924 211 917 q 599 940 469 931 q 639 920 625 943 q 653 869 653 897 q 639 822 653 843 q 599 801 625 800 q 512 808 556 806 q 424 811 468 810 q 410 797 410 811 q 410 549 410 674 q 415 301 411 425 q 424 54 418 178 m 344 -229 q 320 -226 333 -229 q 296 -219 307 -224 q 278 -194 282 -212 q 281 -162 275 -176 l 281 -161 q 318 -144 292 -136 q 332 -147 325 -146 q 344 -147 339 -147 q 376 -125 376 -147 q 365 -111 376 -111 q 339 -111 353 -111 q 316 -106 328 -111 q 297 -90 304 -100 q 292 -71 290 -81 l 306 7 l 375 7 l 361 -57 q 401 -58 379 -51 q 438 -81 422 -64 q 453 -125 453 -99 q 438 -178 453 -154 q 399 -215 424 -201 q 344 -229 375 -229 z "},"Ț":{"ha":681,"x_min":28,"x_max":653,"o":"m 424 54 q 399 4 425 22 q 342 -14 374 -14 q 281 4 307 -14 q 257 54 256 22 q 267 303 264 181 q 270 549 269 426 q 271 797 271 672 q 257 811 271 811 q 170 808 214 810 q 82 801 126 806 q 42 822 56 800 q 28 869 28 843 q 42 913 28 897 q 82 926 56 929 q 340 924 211 917 q 599 940 469 931 q 639 920 625 943 q 653 869 653 897 q 639 822 653 843 q 599 801 625 800 q 512 808 556 806 q 424 811 468 810 q 410 797 410 811 q 410 549 410 674 q 415 301 411 425 q 424 54 418 178 m 318 -325 q 297 -340 313 -335 q 268 -346 282 -346 l 263 -346 q 239 -342 253 -346 q 217 -331 225 -339 q 214 -312 208 -324 q 259 -219 242 -258 q 293 -125 276 -179 q 315 -112 296 -117 q 359 -106 335 -108 q 399 -104 383 -104 l 408 -104 q 426 -108 421 -104 q 433 -120 432 -112 q 428 -139 433 -128 q 374 -232 397 -192 q 318 -325 350 -272 z "},"U":{"ha":757,"x_min":33,"x_max":689,"o":"m 118 926 q 168 907 149 926 q 188 857 188 888 q 188 696 188 776 q 188 535 188 615 q 188 375 188 456 q 230 172 188 233 q 361 111 272 111 q 492 172 450 111 q 535 375 535 233 q 534 540 535 456 q 531 707 533 624 q 521 871 528 790 q 532 907 519 892 q 565 931 544 922 q 604 940 585 940 q 644 931 625 940 q 676 907 664 922 q 688 871 689 892 q 678 707 681 790 q 674 540 675 624 q 674 375 674 456 q 640 160 674 250 q 538 25 607 71 q 361 -14 469 -21 q 129 92 210 -4 q 49 375 49 188 q 48 535 49 456 q 44 696 47 615 q 35 857 42 776 q 46 893 33 878 q 78 917 58 908 q 118 926 99 926 z "},"Ú":{"ha":757,"x_min":33,"x_max":689,"o":"m 118 926 q 168 907 149 926 q 188 857 188 888 q 188 696 188 776 q 188 535 188 615 q 188 375 188 456 q 230 172 188 233 q 361 111 272 111 q 492 172 450 111 q 535 375 535 233 q 534 540 535 456 q 531 707 533 624 q 521 871 528 790 q 532 907 519 892 q 565 931 544 922 q 604 940 585 940 q 644 931 625 940 q 676 907 664 922 q 688 871 689 892 q 678 707 681 790 q 674 540 675 624 q 674 375 674 456 q 640 160 674 250 q 538 25 607 71 q 361 -14 469 -21 q 129 92 210 -4 q 49 375 49 188 q 48 535 49 456 q 44 696 47 615 q 35 857 42 776 q 46 893 33 878 q 78 917 58 908 q 118 926 99 926 m 294 999 q 264 992 279 988 q 238 1014 249 996 l 236 1017 q 229 1048 226 1033 q 249 1074 232 1063 q 330 1128 289 1100 q 411 1192 371 1156 q 434 1202 421 1201 q 460 1197 447 1203 q 482 1178 474 1190 l 488 1169 q 494 1136 496 1157 q 484 1098 493 1115 q 461 1076 475 1081 q 368 1043 410 1064 q 294 999 326 1022 z "},"Û":{"ha":757,"x_min":33,"x_max":689,"o":"m 118 926 q 168 907 149 926 q 188 857 188 888 q 188 696 188 776 q 188 535 188 615 q 188 375 188 456 q 230 172 188 233 q 361 111 272 111 q 492 172 450 111 q 535 375 535 233 q 534 540 535 456 q 531 707 533 624 q 521 871 528 790 q 532 907 519 892 q 565 931 544 922 q 604 940 585 940 q 644 931 625 940 q 676 907 664 922 q 688 871 689 892 q 678 707 681 790 q 674 540 675 624 q 674 375 674 456 q 640 160 674 250 q 538 25 607 71 q 361 -14 469 -21 q 129 92 210 -4 q 49 375 49 188 q 48 535 49 456 q 44 696 47 615 q 35 857 42 776 q 46 893 33 878 q 78 917 58 908 q 118 926 99 926 m 582 1050 q 592 1020 597 1042 q 576 983 586 999 l 576 982 q 558 967 571 972 q 533 964 546 963 q 510 971 519 965 q 447 1012 475 992 q 388 1053 419 1032 q 335 1053 361 1071 q 276 1012 304 1032 q 213 971 247 992 q 177 965 199 961 q 146 982 156 968 l 144 983 q 130 1013 135 999 q 140 1036 125 1028 q 207 1074 171 1051 q 278 1121 243 1096 q 335 1168 313 1146 q 360 1179 347 1179 q 388 1168 374 1179 q 485 1104 432 1135 q 582 1050 538 1074 z "},"Ü":{"ha":757,"x_min":33,"x_max":689,"o":"m 118 926 q 168 907 149 926 q 188 857 188 888 q 188 696 188 776 q 188 535 188 615 q 188 375 188 456 q 230 172 188 233 q 361 111 272 111 q 492 172 450 111 q 535 375 535 233 q 534 540 535 456 q 531 707 533 624 q 521 871 528 790 q 532 907 519 892 q 565 931 544 922 q 604 940 585 940 q 644 931 625 940 q 676 907 664 922 q 688 871 689 892 q 678 707 681 790 q 674 540 675 624 q 674 375 674 456 q 640 160 674 250 q 538 25 607 71 q 361 -14 469 -21 q 129 92 210 -4 q 49 375 49 188 q 48 535 49 456 q 44 696 47 615 q 35 857 42 776 q 46 893 33 878 q 78 917 58 908 q 118 926 99 926 m 236 1000 q 174 1025 199 1000 q 149 1088 149 1050 q 174 1149 149 1124 q 236 1174 199 1174 q 297 1149 272 1174 q 322 1088 322 1124 q 297 1025 322 1050 q 236 1000 272 1000 m 486 1014 q 424 1039 449 1014 q 399 1101 399 1064 q 424 1163 399 1138 q 486 1188 449 1188 q 547 1163 522 1188 q 572 1101 572 1138 q 547 1039 572 1064 q 486 1014 522 1014 z "},"Ù":{"ha":757,"x_min":33,"x_max":689,"o":"m 118 926 q 168 907 149 926 q 188 857 188 888 q 188 696 188 776 q 188 535 188 615 q 188 375 188 456 q 230 172 188 233 q 361 111 272 111 q 492 172 450 111 q 535 375 535 233 q 534 540 535 456 q 531 707 533 624 q 521 871 528 790 q 532 907 519 892 q 565 931 544 922 q 604 940 585 940 q 644 931 625 940 q 676 907 664 922 q 688 871 689 892 q 678 707 681 790 q 674 540 675 624 q 674 375 674 456 q 640 160 674 250 q 538 25 607 71 q 361 -14 469 -21 q 129 92 210 -4 q 49 375 49 188 q 48 535 49 456 q 44 696 47 615 q 35 857 42 776 q 46 893 33 878 q 78 917 58 908 q 118 926 99 926 m 467 1075 q 496 1041 485 1064 q 496 1000 507 1018 l 494 997 q 462 981 485 979 q 419 994 439 983 q 338 1040 379 1018 q 257 1075 297 1061 q 238 1093 243 1081 q 233 1122 232 1106 q 240 1150 233 1138 l 247 1161 q 276 1193 258 1181 q 308 1190 293 1206 q 394 1122 360 1144 q 467 1075 428 1100 z "},"Ű":{"ha":757,"x_min":33,"x_max":689,"o":"m 118 926 q 168 907 149 926 q 188 857 188 888 q 188 696 188 776 q 188 535 188 615 q 188 375 188 456 q 230 172 188 233 q 361 111 272 111 q 492 172 450 111 q 535 375 535 233 q 534 540 535 456 q 531 707 533 624 q 521 871 528 790 q 532 907 519 892 q 565 931 544 922 q 604 940 585 940 q 644 931 625 940 q 676 907 664 922 q 688 871 689 892 q 678 707 681 790 q 674 540 675 624 q 674 375 674 456 q 640 160 674 250 q 538 25 607 71 q 361 -14 469 -21 q 129 92 210 -4 q 49 375 49 188 q 48 535 49 456 q 44 696 47 615 q 35 857 42 776 q 46 893 33 878 q 78 917 58 908 q 118 926 99 926 m 310 982 q 287 965 304 971 q 256 958 269 958 l 250 958 q 217 969 232 958 q 211 997 203 979 q 263 1105 239 1051 q 304 1213 288 1158 q 324 1227 307 1222 q 363 1234 342 1232 q 400 1236 385 1236 l 410 1236 q 431 1231 424 1236 q 439 1216 438 1225 q 433 1196 440 1207 q 372 1089 403 1143 q 310 982 342 1035 m 483 982 q 460 965 478 971 q 429 958 443 958 l 424 958 q 391 969 406 958 q 385 997 376 979 q 439 1105 413 1051 q 492 1213 465 1158 q 524 1231 499 1225 q 574 1236 550 1236 l 583 1236 q 608 1230 597 1236 q 624 1215 619 1224 q 621 1196 629 1206 q 547 1089 579 1143 q 483 982 515 1035 z "},"Ū":{"ha":757,"x_min":33,"x_max":689,"o":"m 118 926 q 168 907 149 926 q 188 857 188 888 q 188 696 188 776 q 188 535 188 615 q 188 375 188 456 q 230 172 188 233 q 361 111 272 111 q 492 172 450 111 q 535 375 535 233 q 534 540 535 456 q 531 707 533 624 q 521 871 528 790 q 532 907 519 892 q 565 931 544 922 q 604 940 585 940 q 644 931 625 940 q 676 907 664 922 q 688 871 689 892 q 678 707 681 790 q 674 540 675 624 q 674 375 674 456 q 640 160 674 250 q 538 25 607 71 q 361 -14 469 -21 q 129 92 210 -4 q 49 375 49 188 q 48 535 49 456 q 44 696 47 615 q 35 857 42 776 q 46 893 33 878 q 78 917 58 908 q 118 926 99 926 m 653 1100 q 644 1072 653 1086 q 622 1049 635 1058 q 594 1042 608 1040 q 128 1042 361 1063 q 95 1060 107 1040 q 83 1100 83 1079 l 83 1101 q 95 1134 83 1122 q 128 1146 107 1146 q 361 1148 244 1146 q 594 1160 478 1150 q 622 1152 608 1161 q 644 1129 635 1143 q 653 1101 653 1115 l 653 1100 z "},"Ų":{"ha":757,"x_min":33,"x_max":689,"o":"m 118 926 q 168 907 149 926 q 188 857 188 888 q 188 696 188 776 q 188 535 188 615 q 188 375 188 456 q 230 172 188 233 q 361 111 272 111 q 492 172 450 111 q 535 375 535 233 q 534 540 535 456 q 531 707 533 624 q 521 871 528 790 q 532 907 519 892 q 565 931 544 922 q 604 940 585 940 q 644 931 625 940 q 676 907 664 922 q 688 871 689 892 q 678 707 681 790 q 674 540 675 624 q 674 375 674 456 q 640 160 674 250 q 538 25 607 71 q 361 -14 469 -21 q 129 92 210 -4 q 49 375 49 188 q 48 535 49 456 q 44 696 47 615 q 35 857 42 776 q 46 893 33 878 q 78 917 58 908 q 118 926 99 926 m 485 -208 q 410 -191 442 -208 q 364 -144 379 -174 q 356 -76 349 -114 q 374 -31 361 -51 q 408 4 386 -11 q 460 28 429 19 l 503 40 l 517 14 q 499 6 517 14 q 463 -21 481 -1 q 446 -76 446 -40 q 460 -108 446 -99 q 492 -120 474 -118 q 525 -122 511 -122 q 547 -127 536 -122 q 557 -147 557 -132 q 533 -195 557 -182 q 485 -208 508 -208 z "},"Ů":{"ha":757,"x_min":33,"x_max":689,"o":"m 118 926 q 168 907 149 926 q 188 857 188 888 q 188 696 188 776 q 188 535 188 615 q 188 375 188 456 q 230 172 188 233 q 361 111 272 111 q 492 172 450 111 q 535 375 535 233 q 534 540 535 456 q 531 707 533 624 q 521 871 528 790 q 532 907 519 892 q 565 931 544 922 q 604 940 585 940 q 644 931 625 940 q 676 907 664 922 q 688 871 689 892 q 678 707 681 790 q 674 540 675 624 q 674 375 674 456 q 640 160 674 250 q 538 25 607 71 q 361 -14 469 -21 q 129 92 210 -4 q 49 375 49 188 q 48 535 49 456 q 44 696 47 615 q 35 857 42 776 q 46 893 33 878 q 78 917 58 908 q 118 926 99 926 m 257 1056 q 271 1108 257 1085 q 309 1146 285 1132 q 361 1160 333 1160 q 414 1146 390 1160 q 451 1108 438 1132 q 465 1056 465 1085 q 454 1002 465 1028 q 420 960 443 976 q 361 944 397 944 q 309 960 333 944 q 271 1002 285 976 q 257 1056 257 1028 m 313 1056 q 327 1022 313 1036 q 361 1007 342 1007 q 395 1022 381 1007 q 410 1056 410 1036 q 395 1090 410 1075 q 361 1104 381 1104 q 327 1090 342 1104 q 313 1056 313 1075 z "},"Ũ":{"ha":757,"x_min":33,"x_max":689,"o":"m 118 926 q 168 907 149 926 q 188 857 188 888 q 188 696 188 776 q 188 535 188 615 q 188 375 188 456 q 230 172 188 233 q 361 111 272 111 q 492 172 450 111 q 535 375 535 233 q 534 540 535 456 q 531 707 533 624 q 521 871 528 790 q 532 907 519 892 q 565 931 544 922 q 604 940 585 940 q 644 931 625 940 q 676 907 664 922 q 688 871 689 892 q 678 707 681 790 q 674 540 675 624 q 674 375 674 456 q 640 160 674 250 q 538 25 607 71 q 361 -14 469 -21 q 129 92 210 -4 q 49 375 49 188 q 48 535 49 456 q 44 696 47 615 q 35 857 42 776 q 46 893 33 878 q 78 917 58 908 q 118 926 99 926 m 139 1043 q 129 1067 129 1054 q 139 1090 129 1079 q 173 1120 153 1104 q 217 1148 193 1136 q 267 1160 242 1160 q 321 1146 300 1160 q 358 1115 342 1132 q 397 1083 375 1097 q 453 1069 418 1069 q 493 1087 472 1069 q 528 1114 514 1104 q 558 1124 540 1124 q 588 1113 576 1124 l 594 1107 q 606 1085 603 1100 q 606 1055 608 1069 q 596 1032 604 1040 q 531 992 574 1010 q 453 975 489 975 q 397 989 418 975 q 358 1020 375 1003 q 322 1051 342 1038 q 267 1065 301 1065 q 228 1055 249 1065 q 192 1033 207 1044 q 167 1024 179 1024 q 144 1036 156 1025 l 139 1043 z "},"V":{"ha":763,"x_min":24,"x_max":738,"o":"m 375 168 q 381 164 376 164 q 386 168 385 164 q 457 376 424 264 q 517 612 490 488 q 561 867 544 736 q 577 901 564 885 q 609 929 590 918 q 646 940 628 940 q 706 923 685 940 q 732 879 726 906 q 729 825 738 853 q 651 572 693 703 q 566 310 610 440 q 475 63 522 181 q 439 17 464 33 q 382 0 414 0 q 323 17 349 0 q 286 63 297 33 q 196 310 240 181 q 110 572 151 440 q 32 825 69 703 q 33 876 24 853 q 60 913 42 899 q 99 926 78 926 q 161 906 139 926 q 189 850 183 885 q 243 601 214 722 q 306 371 272 481 q 375 168 339 261 z "},"W":{"ha":1064,"x_min":24,"x_max":1040,"o":"m 306 0 q 244 17 275 0 q 207 63 214 33 q 143 333 176 194 q 81 606 110 472 q 29 854 51 739 q 40 908 24 889 q 93 926 56 926 q 149 911 125 926 q 176 864 172 896 q 207 642 190 758 q 247 404 224 525 q 303 163 271 283 q 306 160 304 160 q 308 163 307 160 q 367 403 340 283 q 415 640 394 524 q 449 863 436 757 q 471 910 453 894 q 519 926 489 926 q 578 910 560 926 q 601 863 597 894 q 635 640 615 757 q 683 403 656 524 q 742 163 710 283 q 744 160 743 160 q 747 163 746 160 q 803 408 779 283 q 844 652 826 532 q 874 878 861 772 q 902 925 878 910 q 960 940 926 940 q 1002 932 983 940 q 1031 908 1021 924 q 1035 868 1040 892 q 990 681 1014 781 q 941 477 965 582 q 892 267 917 372 q 843 63 867 161 q 806 17 836 33 q 744 0 775 0 q 683 17 714 0 q 646 64 651 33 q 610 237 631 144 q 569 431 590 329 q 528 636 547 532 q 525 639 526 639 q 522 636 524 639 q 482 431 504 532 q 440 237 460 329 q 404 64 419 144 q 367 17 399 33 q 306 0 336 0 z "},"Ẃ":{"ha":1064,"x_min":24,"x_max":1040,"o":"m 306 0 q 244 17 275 0 q 207 63 214 33 q 143 333 176 194 q 81 606 110 472 q 29 854 51 739 q 40 908 24 889 q 93 926 56 926 q 149 911 125 926 q 176 864 172 896 q 207 642 190 758 q 247 404 224 525 q 303 163 271 283 q 306 160 304 160 q 308 163 307 160 q 367 403 340 283 q 415 640 394 524 q 449 863 436 757 q 471 910 453 894 q 519 926 489 926 q 578 910 560 926 q 601 863 597 894 q 635 640 615 757 q 683 403 656 524 q 742 163 710 283 q 744 160 743 160 q 747 163 746 160 q 803 408 779 283 q 844 652 826 532 q 874 878 861 772 q 902 925 878 910 q 960 940 926 940 q 1002 932 983 940 q 1031 908 1021 924 q 1035 868 1040 892 q 990 681 1014 781 q 941 477 965 582 q 892 267 917 372 q 843 63 867 161 q 806 17 836 33 q 744 0 775 0 q 683 17 714 0 q 646 64 651 33 q 610 237 631 144 q 569 431 590 329 q 528 636 547 532 q 525 639 526 639 q 522 636 524 639 q 482 431 504 532 q 440 237 460 329 q 404 64 419 144 q 367 17 399 33 q 306 0 336 0 m 458 999 q 428 992 443 988 q 401 1014 413 996 l 400 1017 q 393 1048 390 1033 q 413 1074 396 1063 q 494 1128 453 1100 q 575 1192 535 1156 q 598 1202 585 1201 q 624 1197 611 1203 q 646 1178 638 1190 l 651 1169 q 658 1136 660 1157 q 648 1098 657 1115 q 625 1076 639 1081 q 532 1043 574 1064 q 458 999 490 1022 z "},"Ŵ":{"ha":1064,"x_min":24,"x_max":1040,"o":"m 306 0 q 244 17 275 0 q 207 63 214 33 q 143 333 176 194 q 81 606 110 472 q 29 854 51 739 q 40 908 24 889 q 93 926 56 926 q 149 911 125 926 q 176 864 172 896 q 207 642 190 758 q 247 404 224 525 q 303 163 271 283 q 306 160 304 160 q 308 163 307 160 q 367 403 340 283 q 415 640 394 524 q 449 863 436 757 q 471 910 453 894 q 519 926 489 926 q 578 910 560 926 q 601 863 597 894 q 635 640 615 757 q 683 403 656 524 q 742 163 710 283 q 744 160 743 160 q 747 163 746 160 q 803 408 779 283 q 844 652 826 532 q 874 878 861 772 q 902 925 878 910 q 960 940 926 940 q 1002 932 983 940 q 1031 908 1021 924 q 1035 868 1040 892 q 990 681 1014 781 q 941 477 965 582 q 892 267 917 372 q 843 63 867 161 q 806 17 836 33 q 744 0 775 0 q 683 17 714 0 q 646 64 651 33 q 610 237 631 144 q 569 431 590 329 q 528 636 547 532 q 525 639 526 639 q 522 636 524 639 q 482 431 504 532 q 440 237 460 329 q 404 64 419 144 q 367 17 399 33 q 306 0 336 0 m 746 1050 q 756 1020 761 1042 q 740 983 750 999 l 740 982 q 722 967 735 972 q 697 964 710 963 q 674 971 683 965 q 611 1012 639 992 q 551 1053 583 1032 q 499 1053 525 1071 q 440 1012 468 1032 q 376 971 411 992 q 341 965 363 961 q 310 982 319 968 l 308 983 q 294 1013 299 999 q 304 1036 289 1028 q 371 1074 335 1051 q 442 1121 407 1096 q 499 1168 476 1146 q 524 1179 511 1179 q 551 1168 538 1179 q 649 1104 596 1135 q 746 1050 701 1074 z "},"Ẅ":{"ha":1064,"x_min":24,"x_max":1040,"o":"m 306 0 q 244 17 275 0 q 207 63 214 33 q 143 333 176 194 q 81 606 110 472 q 29 854 51 739 q 40 908 24 889 q 93 926 56 926 q 149 911 125 926 q 176 864 172 896 q 207 642 190 758 q 247 404 224 525 q 303 163 271 283 q 306 160 304 160 q 308 163 307 160 q 367 403 340 283 q 415 640 394 524 q 449 863 436 757 q 471 910 453 894 q 519 926 489 926 q 578 910 560 926 q 601 863 597 894 q 635 640 615 757 q 683 403 656 524 q 742 163 710 283 q 744 160 743 160 q 747 163 746 160 q 803 408 779 283 q 844 652 826 532 q 874 878 861 772 q 902 925 878 910 q 960 940 926 940 q 1002 932 983 940 q 1031 908 1021 924 q 1035 868 1040 892 q 990 681 1014 781 q 941 477 965 582 q 892 267 917 372 q 843 63 867 161 q 806 17 836 33 q 744 0 775 0 q 683 17 714 0 q 646 64 651 33 q 610 237 631 144 q 569 431 590 329 q 528 636 547 532 q 525 639 526 639 q 522 636 524 639 q 482 431 504 532 q 440 237 460 329 q 404 64 419 144 q 367 17 399 33 q 306 0 336 0 m 400 1000 q 338 1025 363 1000 q 313 1088 313 1050 q 338 1149 313 1124 q 400 1174 363 1174 q 461 1149 436 1174 q 486 1088 486 1124 q 461 1025 486 1050 q 400 1000 436 1000 m 650 1014 q 588 1039 613 1014 q 563 1101 563 1064 q 588 1163 563 1138 q 650 1188 613 1188 q 711 1163 686 1188 q 736 1101 736 1138 q 711 1039 736 1064 q 650 1014 686 1014 z "},"Ẁ":{"ha":1064,"x_min":24,"x_max":1040,"o":"m 306 0 q 244 17 275 0 q 207 63 214 33 q 143 333 176 194 q 81 606 110 472 q 29 854 51 739 q 40 908 24 889 q 93 926 56 926 q 149 911 125 926 q 176 864 172 896 q 207 642 190 758 q 247 404 224 525 q 303 163 271 283 q 306 160 304 160 q 308 163 307 160 q 367 403 340 283 q 415 640 394 524 q 449 863 436 757 q 471 910 453 894 q 519 926 489 926 q 578 910 560 926 q 601 863 597 894 q 635 640 615 757 q 683 403 656 524 q 742 163 710 283 q 744 160 743 160 q 747 163 746 160 q 803 408 779 283 q 844 652 826 532 q 874 878 861 772 q 902 925 878 910 q 960 940 926 940 q 1002 932 983 940 q 1031 908 1021 924 q 1035 868 1040 892 q 990 681 1014 781 q 941 477 965 582 q 892 267 917 372 q 843 63 867 161 q 806 17 836 33 q 744 0 775 0 q 683 17 714 0 q 646 64 651 33 q 610 237 631 144 q 569 431 590 329 q 528 636 547 532 q 525 639 526 639 q 522 636 524 639 q 482 431 504 532 q 440 237 460 329 q 404 64 419 144 q 367 17 399 33 q 306 0 336 0 m 631 1075 q 660 1041 649 1064 q 660 1000 671 1018 l 658 997 q 626 981 649 979 q 583 994 603 983 q 502 1040 543 1018 q 421 1075 461 1061 q 401 1093 407 1081 q 397 1122 396 1106 q 404 1150 397 1138 l 411 1161 q 440 1193 422 1181 q 472 1190 457 1206 q 558 1122 524 1144 q 631 1075 592 1100 z "},"X":{"ha":724,"x_min":8,"x_max":703,"o":"m 67 0 q 32 10 47 0 q 13 38 17 19 q 19 79 8 56 q 92 211 51 143 q 178 345 132 279 q 269 469 224 411 q 269 475 272 472 q 147 658 201 560 q 49 847 93 756 q 38 889 38 871 q 51 917 39 907 q 85 926 63 926 q 138 913 114 926 q 185 844 163 899 q 230 745 207 793 q 283 650 253 697 q 353 551 313 603 q 358 551 356 546 q 428 653 399 603 q 482 754 458 703 q 526 858 506 806 q 565 913 538 886 q 629 940 593 940 q 664 926 650 940 q 683 891 678 913 q 676 847 688 869 q 572 658 633 756 q 442 475 511 560 q 442 469 439 472 q 534 345 489 411 q 620 211 579 279 q 692 79 661 143 q 699 38 703 56 q 680 10 694 19 q 644 0 665 0 q 582 20 613 0 q 540 68 551 40 q 463 226 506 151 q 358 390 419 300 q 353 390 356 396 q 249 224 293 310 q 171 54 206 138 q 129 13 160 26 q 67 0 99 0 z "},"Y":{"ha":740,"x_min":26,"x_max":715,"o":"m 364 0 q 321 8 342 0 q 288 32 300 17 q 279 68 276 47 q 292 215 290 142 q 293 361 293 289 q 288 379 293 369 q 194 530 240 450 q 108 691 149 610 q 36 847 68 772 q 28 889 26 871 q 41 917 29 907 q 74 926 53 926 q 138 913 110 926 q 175 871 165 899 q 253 666 210 769 q 360 467 297 563 q 365 467 363 461 q 447 594 407 531 q 517 724 486 658 q 564 857 547 789 q 600 918 574 896 q 656 940 626 940 q 694 926 679 940 q 712 892 708 913 q 703 847 715 871 q 621 691 664 772 q 531 530 578 610 q 438 379 485 450 q 432 361 432 369 q 434 215 432 289 q 446 68 436 142 q 437 32 449 47 q 406 8 425 17 q 364 0 386 0 z "},"Ý":{"ha":740,"x_min":26,"x_max":715,"o":"m 364 0 q 321 8 342 0 q 288 32 300 17 q 279 68 276 47 q 292 215 290 142 q 293 361 293 289 q 288 379 293 369 q 194 530 240 450 q 108 691 149 610 q 36 847 68 772 q 28 889 26 871 q 41 917 29 907 q 74 926 53 926 q 138 913 110 926 q 175 871 165 899 q 253 666 210 769 q 360 467 297 563 q 365 467 363 461 q 447 594 407 531 q 517 724 486 658 q 564 857 547 789 q 600 918 574 896 q 656 940 626 940 q 694 926 679 940 q 712 892 708 913 q 703 847 715 871 q 621 691 664 772 q 531 530 578 610 q 438 379 485 450 q 432 361 432 369 q 434 215 432 289 q 446 68 436 142 q 437 32 449 47 q 406 8 425 17 q 364 0 386 0 m 304 999 q 274 992 289 988 q 247 1014 258 996 l 246 1017 q 239 1048 236 1033 q 258 1074 242 1063 q 340 1128 299 1100 q 421 1192 381 1156 q 444 1202 431 1201 q 470 1197 457 1203 q 492 1178 483 1190 l 497 1169 q 504 1136 506 1157 q 494 1098 503 1115 q 471 1076 485 1081 q 378 1043 419 1064 q 304 999 336 1022 z "},"Ŷ":{"ha":740,"x_min":26,"x_max":715,"o":"m 364 0 q 321 8 342 0 q 288 32 300 17 q 279 68 276 47 q 292 215 290 142 q 293 361 293 289 q 288 379 293 369 q 194 530 240 450 q 108 691 149 610 q 36 847 68 772 q 28 889 26 871 q 41 917 29 907 q 74 926 53 926 q 138 913 110 926 q 175 871 165 899 q 253 666 210 769 q 360 467 297 563 q 365 467 363 461 q 447 594 407 531 q 517 724 486 658 q 564 857 547 789 q 600 918 574 896 q 656 940 626 940 q 694 926 679 940 q 712 892 708 913 q 703 847 715 871 q 621 691 664 772 q 531 530 578 610 q 438 379 485 450 q 432 361 432 369 q 434 215 432 289 q 446 68 436 142 q 437 32 449 47 q 406 8 425 17 q 364 0 386 0 m 592 1050 q 601 1020 607 1042 q 586 983 596 999 l 586 982 q 568 967 581 972 q 542 964 556 963 q 519 971 529 965 q 457 1012 485 992 q 397 1053 429 1032 q 344 1053 371 1071 q 285 1012 314 1032 q 222 971 257 992 q 187 965 208 961 q 156 982 165 968 l 154 983 q 140 1013 144 999 q 150 1036 135 1028 q 217 1074 181 1051 q 288 1121 253 1096 q 344 1168 322 1146 q 370 1179 357 1179 q 397 1168 383 1179 q 494 1104 442 1135 q 592 1050 547 1074 z "},"Ÿ":{"ha":740,"x_min":26,"x_max":715,"o":"m 364 0 q 321 8 342 0 q 288 32 300 17 q 279 68 276 47 q 292 215 290 142 q 293 361 293 289 q 288 379 293 369 q 194 530 240 450 q 108 691 149 610 q 36 847 68 772 q 28 889 26 871 q 41 917 29 907 q 74 926 53 926 q 138 913 110 926 q 175 871 165 899 q 253 666 210 769 q 360 467 297 563 q 365 467 363 461 q 447 594 407 531 q 517 724 486 658 q 564 857 547 789 q 600 918 574 896 q 656 940 626 940 q 694 926 679 940 q 712 892 708 913 q 703 847 715 871 q 621 691 664 772 q 531 530 578 610 q 438 379 485 450 q 432 361 432 369 q 434 215 432 289 q 446 68 436 142 q 437 32 449 47 q 406 8 425 17 q 364 0 386 0 m 246 1000 q 183 1025 208 1000 q 158 1088 158 1050 q 183 1149 158 1124 q 246 1174 208 1174 q 307 1149 282 1174 q 332 1088 332 1124 q 307 1025 332 1050 q 246 1000 282 1000 m 496 1014 q 433 1039 458 1014 q 408 1101 408 1064 q 433 1163 408 1138 q 496 1188 458 1188 q 557 1163 532 1188 q 582 1101 582 1138 q 557 1039 582 1064 q 496 1014 532 1014 z "},"Ỳ":{"ha":740,"x_min":26,"x_max":715,"o":"m 364 0 q 321 8 342 0 q 288 32 300 17 q 279 68 276 47 q 292 215 290 142 q 293 361 293 289 q 288 379 293 369 q 194 530 240 450 q 108 691 149 610 q 36 847 68 772 q 28 889 26 871 q 41 917 29 907 q 74 926 53 926 q 138 913 110 926 q 175 871 165 899 q 253 666 210 769 q 360 467 297 563 q 365 467 363 461 q 447 594 407 531 q 517 724 486 658 q 564 857 547 789 q 600 918 574 896 q 656 940 626 940 q 694 926 679 940 q 712 892 708 913 q 703 847 715 871 q 621 691 664 772 q 531 530 578 610 q 438 379 485 450 q 432 361 432 369 q 434 215 432 289 q 446 68 436 142 q 437 32 449 47 q 406 8 425 17 q 364 0 386 0 m 476 1075 q 506 1041 494 1064 q 506 1000 517 1018 l 504 997 q 472 981 494 979 q 429 994 449 983 q 348 1040 389 1018 q 267 1075 307 1061 q 247 1093 253 1081 q 242 1122 242 1106 q 250 1150 243 1138 l 257 1161 q 285 1193 268 1181 q 318 1190 303 1206 q 403 1122 369 1144 q 476 1075 438 1100 z "},"Ỹ":{"ha":740,"x_min":26,"x_max":715,"o":"m 364 0 q 321 8 342 0 q 288 32 300 17 q 279 68 276 47 q 292 215 290 142 q 293 361 293 289 q 288 379 293 369 q 194 530 240 450 q 108 691 149 610 q 36 847 68 772 q 28 889 26 871 q 41 917 29 907 q 74 926 53 926 q 138 913 110 926 q 175 871 165 899 q 253 666 210 769 q 360 467 297 563 q 365 467 363 461 q 447 594 407 531 q 517 724 486 658 q 564 857 547 789 q 600 918 574 896 q 656 940 626 940 q 694 926 679 940 q 712 892 708 913 q 703 847 715 871 q 621 691 664 772 q 531 530 578 610 q 438 379 485 450 q 432 361 432 369 q 434 215 432 289 q 446 68 436 142 q 437 32 449 47 q 406 8 425 17 q 364 0 386 0 m 149 1043 q 139 1067 139 1054 q 149 1090 139 1079 q 183 1120 163 1104 q 227 1148 203 1136 q 276 1160 251 1160 q 331 1146 310 1160 q 368 1115 351 1132 q 406 1083 385 1097 q 463 1069 428 1069 q 503 1087 482 1069 q 538 1114 524 1104 q 568 1124 550 1124 q 597 1113 586 1124 l 604 1107 q 615 1085 613 1100 q 616 1055 618 1069 q 606 1032 614 1040 q 541 992 583 1010 q 463 975 499 975 q 406 989 428 975 q 368 1020 385 1003 q 331 1051 351 1038 q 276 1065 311 1065 q 238 1055 258 1065 q 201 1033 217 1044 q 177 1024 189 1024 q 154 1036 165 1025 l 149 1043 z "},"Z":{"ha":693,"x_min":8,"x_max":675,"o":"m 43 869 q 49 906 43 889 q 68 933 56 922 q 97 940 81 943 q 361 928 229 926 q 624 926 493 929 q 651 917 642 926 q 664 895 661 908 q 664 868 667 882 q 654 843 661 854 l 186 142 q 184 131 182 136 q 196 125 186 125 q 394 127 299 125 q 593 139 490 129 q 630 133 611 140 q 662 106 649 125 q 675 54 675 88 q 665 21 675 38 q 640 -6 656 4 q 607 -14 625 -15 q 342 -1 471 -3 q 76 0 213 0 q 44 7 60 0 q 18 28 28 14 q 8 64 8 42 q 15 109 8 89 q 35 150 21 129 l 472 799 q 474 810 476 806 q 463 815 472 815 q 288 813 374 815 q 111 801 203 811 q 78 810 94 800 q 53 836 63 819 q 43 869 43 853 z "},"Ź":{"ha":693,"x_min":8,"x_max":675,"o":"m 43 869 q 49 906 43 889 q 68 933 56 922 q 97 940 81 943 q 361 928 229 926 q 624 926 493 929 q 651 917 642 926 q 664 895 661 908 q 664 868 667 882 q 654 843 661 854 l 186 142 q 184 131 182 136 q 196 125 186 125 q 394 127 299 125 q 593 139 490 129 q 630 133 611 140 q 662 106 649 125 q 675 54 675 88 q 665 21 675 38 q 640 -6 656 4 q 607 -14 625 -15 q 342 -1 471 -3 q 76 0 213 0 q 44 7 60 0 q 18 28 28 14 q 8 64 8 42 q 15 109 8 89 q 35 150 21 129 l 472 799 q 474 810 476 806 q 463 815 472 815 q 288 813 374 815 q 111 801 203 811 q 78 810 94 800 q 53 836 63 819 q 43 869 43 853 m 272 999 q 242 992 257 988 q 215 1014 226 996 l 214 1017 q 207 1048 204 1033 q 226 1074 210 1063 q 308 1128 267 1100 q 389 1192 349 1156 q 412 1202 399 1201 q 438 1197 425 1203 q 460 1178 451 1190 l 465 1169 q 472 1136 474 1157 q 462 1098 471 1115 q 439 1076 453 1081 q 346 1043 388 1064 q 272 999 304 1022 z "},"Ž":{"ha":693,"x_min":8,"x_max":675,"o":"m 43 869 q 49 906 43 889 q 68 933 56 922 q 97 940 81 943 q 361 928 229 926 q 624 926 493 929 q 651 917 642 926 q 664 895 661 908 q 664 868 667 882 q 654 843 661 854 l 186 142 q 184 131 182 136 q 196 125 186 125 q 394 127 299 125 q 593 139 490 129 q 630 133 611 140 q 662 106 649 125 q 675 54 675 88 q 665 21 675 38 q 640 -6 656 4 q 607 -14 625 -15 q 342 -1 471 -3 q 76 0 213 0 q 44 7 60 0 q 18 28 28 14 q 8 64 8 42 q 15 109 8 89 q 35 150 21 129 l 472 799 q 474 810 476 806 q 463 815 472 815 q 288 813 374 815 q 111 801 203 811 q 78 810 94 800 q 53 836 63 819 q 43 869 43 853 m 554 1176 q 563 1153 561 1167 q 560 1128 564 1140 q 546 1110 557 1117 q 450 1051 490 1076 q 365 992 410 1025 q 313 992 339 971 q 222 1063 268 1025 q 132 1124 176 1101 q 115 1147 117 1132 q 124 1176 114 1163 l 124 1178 q 148 1196 133 1193 q 176 1189 163 1199 q 253 1142 215 1165 q 329 1096 290 1119 q 339 1093 335 1093 q 349 1096 343 1093 q 417 1150 385 1121 q 488 1203 449 1179 q 524 1203 503 1213 q 554 1178 544 1193 l 554 1176 z "},"Ż":{"ha":693,"x_min":8,"x_max":675,"o":"m 43 869 q 49 906 43 889 q 68 933 56 922 q 97 940 81 943 q 361 928 229 926 q 624 926 493 929 q 651 917 642 926 q 664 895 661 908 q 664 868 667 882 q 654 843 661 854 l 186 142 q 184 131 182 136 q 196 125 186 125 q 394 127 299 125 q 593 139 490 129 q 630 133 611 140 q 662 106 649 125 q 675 54 675 88 q 665 21 675 38 q 640 -6 656 4 q 607 -14 625 -15 q 342 -1 471 -3 q 76 0 213 0 q 44 7 60 0 q 18 28 28 14 q 8 64 8 42 q 15 109 8 89 q 35 150 21 129 l 472 799 q 474 810 476 806 q 463 815 472 815 q 288 813 374 815 q 111 801 203 811 q 78 810 94 800 q 53 836 63 819 q 43 869 43 853 m 256 1090 q 281 1150 256 1126 q 339 1174 306 1174 q 399 1150 375 1174 q 422 1090 422 1126 q 399 1032 422 1057 q 339 1007 375 1007 q 281 1032 306 1007 q 256 1090 256 1057 z "},"Ꞌ":{"ha":261,"x_min":69,"x_max":193,"o":"m 69 946 q 79 968 69 960 q 103 981 89 976 q 129 986 117 986 l 132 986 q 158 981 144 986 q 183 968 172 976 q 192 946 193 960 l 181 721 q 165 692 179 703 q 132 681 150 681 l 129 681 q 99 692 117 681 q 81 721 82 703 l 69 946 z "},"a":{"ha":715,"x_min":69,"x_max":628,"o":"m 278 -14 q 118 72 167 -14 q 69 313 69 157 l 69 347 q 83 464 69 401 q 128 582 96 526 q 216 673 161 638 q 354 708 271 708 q 469 699 421 708 q 558 674 518 689 q 607 644 586 664 q 625 596 628 625 q 617 451 619 528 q 615 300 615 375 q 617 160 615 225 q 625 47 619 94 q 608 13 628 25 q 564 0 588 0 q 527 11 539 0 q 510 44 515 22 q 501 68 507 60 q 486 76 496 76 q 462 63 478 76 q 420 31 446 49 q 359 0 394 14 q 278 -14 324 -14 m 313 104 q 389 128 353 104 q 449 191 425 151 q 472 278 472 231 q 474 378 472 328 q 479 478 476 428 q 485 578 482 528 q 474 593 488 590 q 424 600 457 596 q 354 604 392 604 q 278 579 307 604 q 233 514 249 554 q 213 429 218 474 q 208 347 208 385 l 208 313 q 231 156 208 207 q 313 104 254 104 z "},"á":{"ha":715,"x_min":69,"x_max":628,"o":"m 278 -14 q 118 72 167 -14 q 69 313 69 157 l 69 347 q 83 464 69 401 q 128 582 96 526 q 216 673 161 638 q 354 708 271 708 q 469 699 421 708 q 558 674 518 689 q 607 644 586 664 q 625 596 628 625 q 617 451 619 528 q 615 300 615 375 q 617 160 615 225 q 625 47 619 94 q 608 13 628 25 q 564 0 588 0 q 527 11 539 0 q 510 44 515 22 q 501 68 507 60 q 486 76 496 76 q 462 63 478 76 q 420 31 446 49 q 359 0 394 14 q 278 -14 324 -14 m 313 104 q 389 128 353 104 q 449 191 425 151 q 472 278 472 231 q 474 378 472 328 q 479 478 476 428 q 485 578 482 528 q 474 593 488 590 q 424 600 457 596 q 354 604 392 604 q 278 579 307 604 q 233 514 249 554 q 213 429 218 474 q 208 347 208 385 l 208 313 q 231 156 208 207 q 313 104 254 104 m 292 825 q 261 818 276 814 q 235 840 246 822 l 233 843 q 226 874 224 860 q 246 900 229 889 q 327 954 286 926 q 408 1018 368 982 q 431 1028 418 1028 q 458 1023 444 1029 q 479 1004 471 1017 l 485 996 q 492 963 493 983 q 481 924 490 942 q 458 903 472 907 q 365 869 407 890 q 292 825 324 849 z "},"ă":{"ha":715,"x_min":69,"x_max":628,"o":"m 278 -14 q 118 72 167 -14 q 69 313 69 157 l 69 347 q 83 464 69 401 q 128 582 96 526 q 216 673 161 638 q 354 708 271 708 q 469 699 421 708 q 558 674 518 689 q 607 644 586 664 q 625 596 628 625 q 617 451 619 528 q 615 300 615 375 q 617 160 615 225 q 625 47 619 94 q 608 13 628 25 q 564 0 588 0 q 527 11 539 0 q 510 44 515 22 q 501 68 507 60 q 486 76 496 76 q 462 63 478 76 q 420 31 446 49 q 359 0 394 14 q 278 -14 324 -14 m 313 104 q 389 128 353 104 q 449 191 425 151 q 472 278 472 231 q 474 378 472 328 q 479 478 476 428 q 485 578 482 528 q 474 593 488 590 q 424 600 457 596 q 354 604 392 604 q 278 579 307 604 q 233 514 249 554 q 213 429 218 474 q 208 347 208 385 l 208 313 q 231 156 208 207 q 313 104 254 104 m 175 1014 q 206 1003 194 1014 q 222 974 217 993 q 271 906 236 932 q 351 879 306 879 q 412 891 382 879 q 461 924 442 903 q 482 974 481 946 q 497 1010 483 993 q 529 1028 510 1028 l 531 1028 q 559 1019 546 1028 q 581 996 572 1010 q 588 967 589 982 q 550 874 583 917 q 465 807 517 832 q 351 782 413 782 q 251 807 297 782 q 174 874 206 832 q 131 967 142 917 q 139 1002 126 990 q 174 1014 151 1014 l 175 1014 z "},"ǎ":{"ha":715,"x_min":69,"x_max":628,"o":"m 278 -14 q 118 72 167 -14 q 69 313 69 157 l 69 347 q 83 464 69 401 q 128 582 96 526 q 216 673 161 638 q 354 708 271 708 q 469 699 421 708 q 558 674 518 689 q 607 644 586 664 q 625 596 628 625 q 617 451 619 528 q 615 300 615 375 q 617 160 615 225 q 625 47 619 94 q 608 13 628 25 q 564 0 588 0 q 527 11 539 0 q 510 44 515 22 q 501 68 507 60 q 486 76 496 76 q 462 63 478 76 q 420 31 446 49 q 359 0 394 14 q 278 -14 324 -14 m 313 104 q 389 128 353 104 q 449 191 425 151 q 472 278 472 231 q 474 378 472 328 q 479 478 476 428 q 485 578 482 528 q 474 593 488 590 q 424 600 457 596 q 354 604 392 604 q 278 579 307 604 q 233 514 249 554 q 213 429 218 474 q 208 347 208 385 l 208 313 q 231 156 208 207 q 313 104 254 104 m 574 1003 q 582 980 581 993 q 580 955 583 967 q 565 936 576 943 q 469 877 510 903 q 385 818 429 851 q 332 818 358 797 q 242 890 288 851 q 151 950 196 928 q 135 974 136 958 q 143 1003 133 989 l 143 1004 q 167 1022 153 1019 q 196 1015 182 1025 q 272 969 235 992 q 349 922 310 946 q 358 919 354 919 q 368 922 363 919 q 436 976 404 947 q 507 1029 468 1006 q 543 1029 522 1039 q 574 1004 564 1019 l 574 1003 z "},"â":{"ha":715,"x_min":69,"x_max":628,"o":"m 278 -14 q 118 72 167 -14 q 69 313 69 157 l 69 347 q 83 464 69 401 q 128 582 96 526 q 216 673 161 638 q 354 708 271 708 q 469 699 421 708 q 558 674 518 689 q 607 644 586 664 q 625 596 628 625 q 617 451 619 528 q 615 300 615 375 q 617 160 615 225 q 625 47 619 94 q 608 13 628 25 q 564 0 588 0 q 527 11 539 0 q 510 44 515 22 q 501 68 507 60 q 486 76 496 76 q 462 63 478 76 q 420 31 446 49 q 359 0 394 14 q 278 -14 324 -14 m 313 104 q 389 128 353 104 q 449 191 425 151 q 472 278 472 231 q 474 378 472 328 q 479 478 476 428 q 485 578 482 528 q 474 593 488 590 q 424 600 457 596 q 354 604 392 604 q 278 579 307 604 q 233 514 249 554 q 213 429 218 474 q 208 347 208 385 l 208 313 q 231 156 208 207 q 313 104 254 104 m 579 876 q 589 847 594 868 q 574 810 583 825 l 574 808 q 556 794 568 799 q 530 790 543 789 q 507 797 517 792 q 444 838 472 818 q 385 879 417 858 q 332 879 358 897 q 273 838 301 858 q 210 797 244 818 q 174 791 196 788 q 143 808 153 794 l 142 810 q 127 840 132 825 q 138 863 122 854 q 204 900 168 878 q 275 947 240 922 q 332 994 310 972 q 358 1006 344 1006 q 385 994 371 1006 q 482 931 429 961 q 579 876 535 900 z "},"ä":{"ha":715,"x_min":69,"x_max":628,"o":"m 278 -14 q 118 72 167 -14 q 69 313 69 157 l 69 347 q 83 464 69 401 q 128 582 96 526 q 216 673 161 638 q 354 708 271 708 q 469 699 421 708 q 558 674 518 689 q 607 644 586 664 q 625 596 628 625 q 617 451 619 528 q 615 300 615 375 q 617 160 615 225 q 625 47 619 94 q 608 13 628 25 q 564 0 588 0 q 527 11 539 0 q 510 44 515 22 q 501 68 507 60 q 486 76 496 76 q 462 63 478 76 q 420 31 446 49 q 359 0 394 14 q 278 -14 324 -14 m 313 104 q 389 128 353 104 q 449 191 425 151 q 472 278 472 231 q 474 378 472 328 q 479 478 476 428 q 485 578 482 528 q 474 593 488 590 q 424 600 457 596 q 354 604 392 604 q 278 579 307 604 q 233 514 249 554 q 213 429 218 474 q 208 347 208 385 l 208 313 q 231 156 208 207 q 313 104 254 104 m 233 826 q 171 851 196 826 q 146 914 146 876 q 171 975 146 950 q 233 1000 196 1000 q 294 975 269 1000 q 319 914 319 950 q 294 851 319 876 q 233 826 269 826 m 483 840 q 421 865 446 840 q 396 928 396 890 q 421 989 396 964 q 483 1014 446 1014 q 544 989 519 1014 q 569 928 569 964 q 544 865 569 890 q 483 840 519 840 z "},"à":{"ha":715,"x_min":69,"x_max":628,"o":"m 278 -14 q 118 72 167 -14 q 69 313 69 157 l 69 347 q 83 464 69 401 q 128 582 96 526 q 216 673 161 638 q 354 708 271 708 q 469 699 421 708 q 558 674 518 689 q 607 644 586 664 q 625 596 628 625 q 617 451 619 528 q 615 300 615 375 q 617 160 615 225 q 625 47 619 94 q 608 13 628 25 q 564 0 588 0 q 527 11 539 0 q 510 44 515 22 q 501 68 507 60 q 486 76 496 76 q 462 63 478 76 q 420 31 446 49 q 359 0 394 14 q 278 -14 324 -14 m 313 104 q 389 128 353 104 q 449 191 425 151 q 472 278 472 231 q 474 378 472 328 q 479 478 476 428 q 485 578 482 528 q 474 593 488 590 q 424 600 457 596 q 354 604 392 604 q 278 579 307 604 q 233 514 249 554 q 213 429 218 474 q 208 347 208 385 l 208 313 q 231 156 208 207 q 313 104 254 104 m 464 901 q 493 867 482 890 q 493 826 504 844 l 492 824 q 459 808 482 806 q 417 821 436 810 q 335 866 376 844 q 254 901 294 888 q 235 919 240 907 q 230 948 229 932 q 238 976 231 964 l 244 988 q 273 1019 256 1007 q 306 1017 290 1032 q 391 949 357 971 q 464 901 425 926 z "},"ā":{"ha":715,"x_min":69,"x_max":650,"o":"m 278 -14 q 118 72 167 -14 q 69 313 69 157 l 69 347 q 83 464 69 401 q 128 582 96 526 q 216 673 161 638 q 354 708 271 708 q 469 699 421 708 q 558 674 518 689 q 607 644 586 664 q 625 596 628 625 q 617 451 619 528 q 615 300 615 375 q 617 160 615 225 q 625 47 619 94 q 608 13 628 25 q 564 0 588 0 q 527 11 539 0 q 510 44 515 22 q 501 68 507 60 q 486 76 496 76 q 462 63 478 76 q 420 31 446 49 q 359 0 394 14 q 278 -14 324 -14 m 313 104 q 389 128 353 104 q 449 191 425 151 q 472 278 472 231 q 474 378 472 328 q 479 478 476 428 q 485 578 482 528 q 474 593 488 590 q 424 600 457 596 q 354 604 392 604 q 278 579 307 604 q 233 514 249 554 q 213 429 218 474 q 208 347 208 385 l 208 313 q 231 156 208 207 q 313 104 254 104 m 650 926 q 641 899 650 913 q 619 876 632 885 q 592 868 606 867 q 125 868 358 889 q 92 886 104 867 q 81 926 81 906 l 81 928 q 92 960 81 949 q 125 972 104 972 q 358 974 242 972 q 592 986 475 976 q 619 978 606 988 q 641 956 632 969 q 650 928 650 942 l 650 926 z "},"ą":{"ha":715,"x_min":69,"x_max":649,"o":"m 278 -14 q 118 72 167 -14 q 69 313 69 157 l 69 347 q 83 464 69 401 q 128 582 96 526 q 216 673 161 638 q 354 708 271 708 q 469 699 421 708 q 558 674 518 689 q 607 644 586 664 q 625 596 628 625 q 617 451 619 528 q 615 300 615 375 q 617 160 615 225 q 625 47 619 94 q 608 13 628 25 q 564 0 588 0 q 527 11 539 0 q 510 44 515 22 q 501 68 507 60 q 486 76 496 76 q 462 63 478 76 q 420 31 446 49 q 359 0 394 14 q 278 -14 324 -14 m 313 104 q 389 128 353 104 q 449 191 425 151 q 472 278 472 231 q 474 378 472 328 q 479 478 476 428 q 485 578 482 528 q 474 593 488 590 q 424 600 457 596 q 354 604 392 604 q 278 579 307 604 q 233 514 249 554 q 213 429 218 474 q 208 347 208 385 l 208 313 q 231 156 208 207 q 313 104 254 104 m 576 -208 q 502 -191 533 -208 q 456 -144 471 -174 q 447 -76 440 -114 q 465 -31 453 -51 q 499 4 478 -11 q 551 28 521 19 l 594 40 l 608 14 q 590 6 608 14 q 555 -21 572 -1 q 538 -76 538 -40 q 551 -108 538 -99 q 584 -120 565 -118 q 617 -122 603 -122 q 638 -127 628 -122 q 649 -147 649 -132 q 624 -195 649 -182 q 576 -208 600 -208 z "},"å":{"ha":715,"x_min":69,"x_max":628,"o":"m 278 -14 q 118 72 167 -14 q 69 313 69 157 l 69 347 q 83 464 69 401 q 128 582 96 526 q 216 673 161 638 q 354 708 271 708 q 469 699 421 708 q 558 674 518 689 q 607 644 586 664 q 625 596 628 625 q 617 451 619 528 q 615 300 615 375 q 617 160 615 225 q 625 47 619 94 q 608 13 628 25 q 564 0 588 0 q 527 11 539 0 q 510 44 515 22 q 501 68 507 60 q 486 76 496 76 q 462 63 478 76 q 420 31 446 49 q 359 0 394 14 q 278 -14 324 -14 m 313 104 q 389 128 353 104 q 449 191 425 151 q 472 278 472 231 q 474 378 472 328 q 479 478 476 428 q 485 578 482 528 q 474 593 488 590 q 424 600 457 596 q 354 604 392 604 q 278 579 307 604 q 233 514 249 554 q 213 429 218 474 q 208 347 208 385 l 208 313 q 231 156 208 207 q 313 104 254 104 m 254 882 q 268 935 254 911 q 306 972 282 958 q 358 986 331 986 q 411 972 388 986 q 449 935 435 958 q 463 882 463 911 q 451 828 463 854 q 417 787 440 803 q 358 771 394 771 q 306 787 331 771 q 268 828 282 803 q 254 882 254 854 m 310 882 q 324 848 310 863 q 358 833 339 833 q 392 848 378 833 q 407 882 407 863 q 392 916 407 901 q 358 931 378 931 q 324 916 339 931 q 310 882 310 901 z "},"ã":{"ha":715,"x_min":69,"x_max":628,"o":"m 278 -14 q 118 72 167 -14 q 69 313 69 157 l 69 347 q 83 464 69 401 q 128 582 96 526 q 216 673 161 638 q 354 708 271 708 q 469 699 421 708 q 558 674 518 689 q 607 644 586 664 q 625 596 628 625 q 617 451 619 528 q 615 300 615 375 q 617 160 615 225 q 625 47 619 94 q 608 13 628 25 q 564 0 588 0 q 527 11 539 0 q 510 44 515 22 q 501 68 507 60 q 486 76 496 76 q 462 63 478 76 q 420 31 446 49 q 359 0 394 14 q 278 -14 324 -14 m 313 104 q 389 128 353 104 q 449 191 425 151 q 472 278 472 231 q 474 378 472 328 q 479 478 476 428 q 485 578 482 528 q 474 593 488 590 q 424 600 457 596 q 354 604 392 604 q 278 579 307 604 q 233 514 249 554 q 213 429 218 474 q 208 347 208 385 l 208 313 q 231 156 208 207 q 313 104 254 104 m 136 869 q 126 893 126 881 q 136 917 126 906 q 170 947 150 931 q 215 974 190 963 q 264 986 239 986 q 318 972 297 986 q 356 941 339 958 q 394 910 372 924 q 450 896 415 896 q 490 913 469 896 q 525 940 511 931 q 556 950 538 950 q 585 939 574 950 l 592 933 q 603 911 600 926 q 603 881 606 896 q 593 858 601 867 q 528 819 571 836 q 450 801 486 801 q 394 815 415 801 q 356 847 372 829 q 319 878 339 864 q 264 892 299 892 q 225 881 246 892 q 189 860 204 871 q 165 851 176 850 q 142 863 153 851 l 136 869 z "},"æ":{"ha":1046,"x_min":69,"x_max":976,"o":"m 729 -14 q 591 16 646 -14 q 503 94 536 46 q 458 201 471 143 q 444 313 444 258 l 444 347 q 458 464 444 401 q 503 582 471 526 q 591 673 536 638 q 729 708 646 708 q 853 685 806 708 q 928 626 901 661 q 966 553 956 590 q 976 489 976 517 q 949 400 976 435 q 878 346 922 365 q 781 317 833 326 q 676 305 728 307 q 583 303 624 303 q 573 299 576 303 q 569 289 569 296 q 606 145 572 200 q 729 90 639 90 q 808 111 774 90 q 864 139 842 132 q 895 137 879 144 q 924 115 911 129 q 939 85 936 100 q 938 41 947 53 q 922 26 929 29 q 847 1 899 17 q 729 -14 794 -14 m 585 400 q 784 422 729 401 q 838 486 839 442 q 811 574 836 536 q 729 611 786 611 q 635 585 669 611 q 585 514 600 558 q 569 414 571 469 q 574 404 569 408 q 585 400 578 400 m 243 -14 q 151 3 186 -14 q 99 51 117 19 q 76 124 82 82 q 69 215 69 165 q 101 324 69 282 q 186 389 132 365 q 307 422 240 413 q 444 431 374 431 q 440 535 444 497 q 412 588 435 572 q 333 604 389 604 q 269 591 299 604 q 219 571 240 578 q 181 575 197 563 q 158 611 165 588 q 158 613 158 613 q 157 615 157 614 q 157 653 150 638 q 186 678 164 669 q 258 699 214 689 q 354 708 303 708 q 473 683 432 708 q 530 612 514 657 q 547 508 546 567 q 549 382 549 449 l 549 346 q 520 178 549 247 q 445 67 492 110 q 345 6 399 25 q 243 -14 292 -14 m 285 90 q 361 117 325 90 q 421 188 397 144 q 444 278 444 231 l 444 347 q 364 342 407 347 q 282 324 321 338 q 219 285 243 311 q 194 215 194 258 q 214 124 194 157 q 285 90 233 90 z "},"b":{"ha":715,"x_min":89,"x_max":646,"o":"m 361 -14 q 254 -10 297 -14 q 171 -3 211 -6 q 114 17 139 0 q 90 67 89 35 q 100 350 97 207 q 103 636 103 493 q 104 918 104 779 q 122 968 104 950 q 175 986 140 986 q 217 978 197 986 q 248 955 236 969 q 257 918 260 940 q 247 807 251 867 q 243 694 243 747 q 245 651 243 663 q 257 640 247 640 q 283 658 264 640 q 339 692 301 675 q 438 708 376 708 q 597 624 549 708 q 646 382 646 539 l 646 347 q 638 254 646 304 q 610 157 629 204 q 558 71 590 110 q 476 9 525 32 q 361 -14 428 -14 m 361 111 q 438 133 410 111 q 482 191 467 156 q 502 268 497 226 q 507 347 507 310 l 507 382 q 484 546 507 488 q 403 604 461 604 q 327 577 364 604 q 267 507 290 550 q 243 417 243 464 l 243 138 q 245 128 243 132 q 251 122 247 124 q 300 114 271 117 q 361 111 329 111 z "},"c":{"ha":564,"x_min":69,"x_max":550,"o":"m 354 -14 q 216 16 271 -14 q 128 94 161 46 q 83 201 96 143 q 69 313 69 258 l 69 347 q 83 464 69 401 q 128 582 96 526 q 216 673 161 638 q 354 708 271 708 q 435 701 399 708 q 500 681 472 694 q 522 662 517 674 q 522 638 526 650 q 506 613 518 625 l 489 597 q 458 583 474 583 q 422 592 442 583 q 354 604 393 604 q 278 578 307 604 q 235 511 250 551 q 214 427 219 471 q 208 347 208 383 l 208 313 q 214 239 208 278 q 235 166 219 200 q 278 111 250 132 q 354 90 307 90 q 419 110 390 90 q 467 138 447 131 q 499 135 483 143 q 526 114 514 128 q 543 83 538 100 q 540 41 550 56 q 519 22 529 26 q 449 -1 494 11 q 354 -14 403 -14 z "},"ć":{"ha":564,"x_min":69,"x_max":550,"o":"m 354 -14 q 216 16 271 -14 q 128 94 161 46 q 83 201 96 143 q 69 313 69 258 l 69 347 q 83 464 69 401 q 128 582 96 526 q 216 673 161 638 q 354 708 271 708 q 435 701 399 708 q 500 681 472 694 q 522 662 517 674 q 522 638 526 650 q 506 613 518 625 l 489 597 q 458 583 474 583 q 422 592 442 583 q 354 604 393 604 q 278 578 307 604 q 235 511 250 551 q 214 427 219 471 q 208 347 208 383 l 208 313 q 214 239 208 278 q 235 166 219 200 q 278 111 250 132 q 354 90 307 90 q 419 110 390 90 q 467 138 447 131 q 499 135 483 143 q 526 114 514 128 q 543 83 538 100 q 540 41 550 56 q 519 22 529 26 q 449 -1 494 11 q 354 -14 403 -14 m 288 825 q 257 818 272 814 q 231 840 242 822 l 229 843 q 222 874 219 860 q 242 900 225 889 q 323 954 282 926 q 404 1018 364 982 q 427 1028 414 1028 q 453 1023 440 1029 q 475 1004 467 1017 l 481 996 q 488 963 489 983 q 477 924 486 942 q 454 903 468 907 q 361 869 403 890 q 288 825 319 849 z "},"č":{"ha":564,"x_min":69,"x_max":579,"o":"m 354 -14 q 216 16 271 -14 q 128 94 161 46 q 83 201 96 143 q 69 313 69 258 l 69 347 q 83 464 69 401 q 128 582 96 526 q 216 673 161 638 q 354 708 271 708 q 435 701 399 708 q 500 681 472 694 q 522 662 517 674 q 522 638 526 650 q 506 613 518 625 l 489 597 q 458 583 474 583 q 422 592 442 583 q 354 604 393 604 q 278 578 307 604 q 235 511 250 551 q 214 427 219 471 q 208 347 208 383 l 208 313 q 214 239 208 278 q 235 166 219 200 q 278 111 250 132 q 354 90 307 90 q 419 110 390 90 q 467 138 447 131 q 499 135 483 143 q 526 114 514 128 q 543 83 538 100 q 540 41 550 56 q 519 22 529 26 q 449 -1 494 11 q 354 -14 403 -14 m 569 1003 q 578 980 576 993 q 576 955 579 967 q 561 936 572 943 q 465 877 506 903 q 381 818 425 851 q 328 818 354 797 q 238 890 283 851 q 147 950 192 928 q 131 974 132 958 q 139 1003 129 989 l 139 1004 q 163 1022 149 1019 q 192 1015 178 1025 q 268 969 231 992 q 344 922 306 946 q 354 919 350 919 q 364 922 358 919 q 432 976 400 947 q 503 1029 464 1006 q 539 1029 518 1039 q 569 1004 560 1019 l 569 1003 z "},"ç":{"ha":564,"x_min":69,"x_max":550,"o":"m 354 -14 q 216 16 271 -14 q 128 94 161 46 q 83 201 96 143 q 69 313 69 258 l 69 347 q 83 464 69 401 q 128 582 96 526 q 216 673 161 638 q 354 708 271 708 q 435 701 399 708 q 500 681 472 694 q 522 662 517 674 q 522 638 526 650 q 506 613 518 625 l 489 597 q 458 583 474 583 q 422 592 442 583 q 354 604 393 604 q 278 578 307 604 q 235 511 250 551 q 214 427 219 471 q 208 347 208 383 l 208 313 q 214 239 208 278 q 235 166 219 200 q 278 111 250 132 q 354 90 307 90 q 419 110 390 90 q 467 138 447 131 q 499 135 483 143 q 526 114 514 128 q 543 83 538 100 q 540 41 550 56 q 519 22 529 26 q 449 -1 494 11 q 354 -14 403 -14 m 358 -229 q 334 -226 347 -229 q 310 -219 321 -224 q 292 -194 296 -212 q 294 -162 289 -176 l 294 -161 q 332 -144 306 -136 q 346 -147 339 -146 q 358 -147 353 -147 q 390 -125 390 -147 q 378 -111 390 -111 q 353 -111 367 -111 q 330 -106 342 -111 q 311 -90 318 -100 q 306 -71 304 -81 l 319 7 l 389 7 l 375 -57 q 415 -58 393 -51 q 451 -81 436 -64 q 467 -125 467 -99 q 452 -178 467 -154 q 413 -215 438 -201 q 358 -229 389 -229 z "},"ċ":{"ha":564,"x_min":69,"x_max":550,"o":"m 354 -14 q 216 16 271 -14 q 128 94 161 46 q 83 201 96 143 q 69 313 69 258 l 69 347 q 83 464 69 401 q 128 582 96 526 q 216 673 161 638 q 354 708 271 708 q 435 701 399 708 q 500 681 472 694 q 522 662 517 674 q 522 638 526 650 q 506 613 518 625 l 489 597 q 458 583 474 583 q 422 592 442 583 q 354 604 393 604 q 278 578 307 604 q 235 511 250 551 q 214 427 219 471 q 208 347 208 383 l 208 313 q 214 239 208 278 q 235 166 219 200 q 278 111 250 132 q 354 90 307 90 q 419 110 390 90 q 467 138 447 131 q 499 135 483 143 q 526 114 514 128 q 543 83 538 100 q 540 41 550 56 q 519 22 529 26 q 449 -1 494 11 q 354 -14 403 -14 m 271 917 q 296 976 271 953 q 354 1000 321 1000 q 414 976 390 1000 q 438 917 438 953 q 414 858 438 883 q 354 833 390 833 q 296 858 321 833 q 271 917 271 883 z "},"d":{"ha":732,"x_min":69,"x_max":647,"o":"m 278 -14 q 118 72 167 -14 q 69 313 69 157 l 69 347 q 83 464 69 401 q 128 582 96 526 q 216 673 161 638 q 354 708 271 708 q 416 705 389 708 q 457 699 443 701 q 472 710 472 694 l 472 918 q 490 968 472 950 q 540 986 508 986 q 583 978 564 986 q 615 955 603 969 q 625 918 626 940 q 607 504 611 675 q 610 225 603 333 q 639 61 618 117 q 633 16 647 39 q 582 -7 618 -7 q 529 8 543 -7 q 510 44 515 22 q 501 68 507 60 q 486 76 496 76 q 462 63 478 76 q 420 31 446 49 q 359 0 394 14 q 278 -14 324 -14 m 313 104 q 389 128 353 104 q 449 191 425 151 q 472 278 472 231 l 472 578 q 460 593 472 592 q 418 600 446 596 q 354 604 390 604 q 278 579 307 604 q 233 514 249 554 q 213 429 218 474 q 208 347 208 385 l 208 313 q 231 156 208 207 q 313 104 254 104 z "},"ď":{"ha":760,"x_min":69,"x_max":828,"o":"m 278 -14 q 118 72 167 -14 q 69 313 69 157 l 69 347 q 83 464 69 401 q 128 582 96 526 q 216 673 161 638 q 354 708 271 708 q 416 705 389 708 q 457 699 443 701 q 472 710 472 694 l 472 918 q 490 968 472 950 q 540 986 508 986 q 583 978 564 986 q 615 955 603 969 q 625 918 626 940 q 607 504 611 675 q 610 225 603 333 q 639 61 618 117 q 633 16 647 39 q 582 -7 618 -7 q 529 8 543 -7 q 510 44 515 22 q 501 68 507 60 q 486 76 496 76 q 462 63 478 76 q 420 31 446 49 q 359 0 394 14 q 278 -14 324 -14 m 313 104 q 389 128 353 104 q 449 191 425 151 q 472 278 472 231 l 472 578 q 460 593 472 592 q 418 600 446 596 q 354 604 390 604 q 278 579 307 604 q 233 514 249 554 q 213 429 218 474 q 208 347 208 385 l 208 313 q 231 156 208 207 q 313 104 254 104 m 704 946 q 714 968 704 960 q 738 981 724 976 q 764 986 751 986 l 767 986 q 793 981 779 986 q 817 968 807 976 q 826 946 828 960 l 815 721 q 799 692 814 703 q 767 681 785 681 l 764 681 q 734 692 751 681 q 715 721 717 703 l 704 946 z "},"đ":{"ha":757,"x_min":69,"x_max":757,"o":"m 757 833 q 738 793 757 813 q 699 775 719 774 q 232 775 465 796 q 199 793 211 774 q 188 833 188 813 l 188 835 q 199 867 188 856 q 232 879 211 879 q 465 881 349 879 q 699 893 582 883 q 738 876 719 896 q 757 835 757 856 l 757 833 m 278 -14 q 118 72 167 -14 q 69 313 69 157 l 69 347 q 83 464 69 401 q 128 582 96 526 q 216 673 161 638 q 354 708 271 708 q 416 705 389 708 q 457 699 443 701 q 472 710 472 694 l 472 918 q 490 968 472 950 q 540 986 508 986 q 583 978 564 986 q 615 955 603 969 q 625 918 626 940 q 607 504 611 675 q 610 225 603 333 q 639 61 618 117 q 633 16 647 39 q 582 -7 618 -7 q 529 8 543 -7 q 510 44 515 22 q 501 68 507 60 q 486 76 496 76 q 462 63 478 76 q 420 31 446 49 q 359 0 394 14 q 278 -14 324 -14 m 313 104 q 389 128 353 104 q 449 191 425 151 q 472 278 472 231 l 472 578 q 460 593 472 592 q 418 600 446 596 q 354 604 390 604 q 278 579 307 604 q 233 514 249 554 q 213 429 218 474 q 208 347 208 385 l 208 313 q 231 156 208 207 q 313 104 254 104 z "},"ð":{"ha":767,"x_min":76,"x_max":711,"o":"m 525 936 q 542 910 538 924 q 542 885 546 897 q 525 860 538 872 q 472 804 499 832 q 418 749 444 776 q 367 692 392 721 q 318 631 342 663 q 276 617 301 611 q 231 642 250 624 l 229 643 q 213 669 217 656 q 213 694 208 682 q 229 719 217 707 q 337 830 283 774 q 438 947 390 886 q 479 963 453 968 q 524 938 506 957 l 525 936 m 711 347 q 674 148 711 232 q 565 22 636 64 q 390 -14 493 -21 q 225 28 296 -7 q 115 127 154 64 q 76 278 76 190 q 115 435 76 367 q 225 540 154 504 q 390 569 296 576 q 460 558 422 567 q 532 532 497 550 q 545 531 540 528 q 547 544 550 535 q 440 742 517 668 q 253 832 364 815 q 204 849 221 836 q 188 889 188 863 q 206 927 188 914 q 257 936 224 940 q 445 877 361 924 q 589 754 529 831 q 680 575 649 678 q 711 347 711 472 m 565 278 q 569 353 572 321 q 553 408 567 385 q 520 433 547 419 q 458 456 493 446 q 390 465 424 465 q 263 415 310 465 q 215 278 215 364 q 263 151 215 193 q 390 104 310 110 q 511 147 469 99 q 565 278 553 194 z "},"e":{"ha":671,"x_min":69,"x_max":601,"o":"m 354 -14 q 216 16 271 -14 q 128 94 161 46 q 83 201 96 143 q 69 313 69 258 l 69 347 q 83 464 69 401 q 128 582 96 526 q 216 673 161 638 q 354 708 271 708 q 478 685 431 708 q 553 626 526 661 q 591 553 581 590 q 601 489 601 517 q 574 400 601 435 q 503 346 547 365 q 406 317 458 326 q 301 305 353 307 q 208 303 249 303 q 198 299 201 303 q 194 289 194 296 q 210 185 196 229 q 260 115 225 140 q 354 90 294 90 q 433 111 399 90 q 489 139 467 132 q 520 137 504 144 q 549 115 536 129 q 564 85 561 100 q 563 41 572 53 q 547 26 554 29 q 472 1 524 17 q 354 -14 419 -14 m 210 400 q 409 422 354 401 q 463 486 464 442 q 450 548 461 519 q 415 594 439 576 q 354 611 392 611 q 260 585 294 611 q 211 514 226 558 q 194 414 196 469 q 199 404 194 408 q 210 400 203 400 z "},"é":{"ha":671,"x_min":69,"x_max":601,"o":"m 354 -14 q 216 16 271 -14 q 128 94 161 46 q 83 201 96 143 q 69 313 69 258 l 69 347 q 83 464 69 401 q 128 582 96 526 q 216 673 161 638 q 354 708 271 708 q 478 685 431 708 q 553 626 526 661 q 591 553 581 590 q 601 489 601 517 q 574 400 601 435 q 503 346 547 365 q 406 317 458 326 q 301 305 353 307 q 208 303 249 303 q 198 299 201 303 q 194 289 194 296 q 210 185 196 229 q 260 115 225 140 q 354 90 294 90 q 433 111 399 90 q 489 139 467 132 q 520 137 504 144 q 549 115 536 129 q 564 85 561 100 q 563 41 572 53 q 547 26 554 29 q 472 1 524 17 q 354 -14 419 -14 m 210 400 q 409 422 354 401 q 463 486 464 442 q 450 548 461 519 q 415 594 439 576 q 354 611 392 611 q 260 585 294 611 q 211 514 226 558 q 194 414 196 469 q 199 404 194 408 q 210 400 203 400 m 288 825 q 257 818 272 814 q 231 840 242 822 l 229 843 q 222 874 219 860 q 242 900 225 889 q 323 954 282 926 q 404 1018 364 982 q 427 1028 414 1028 q 453 1023 440 1029 q 475 1004 467 1017 l 481 996 q 488 963 489 983 q 477 924 486 942 q 454 903 468 907 q 361 869 403 890 q 288 825 319 849 z "},"ě":{"ha":671,"x_min":69,"x_max":601,"o":"m 354 -14 q 216 16 271 -14 q 128 94 161 46 q 83 201 96 143 q 69 313 69 258 l 69 347 q 83 464 69 401 q 128 582 96 526 q 216 673 161 638 q 354 708 271 708 q 478 685 431 708 q 553 626 526 661 q 591 553 581 590 q 601 489 601 517 q 574 400 601 435 q 503 346 547 365 q 406 317 458 326 q 301 305 353 307 q 208 303 249 303 q 198 299 201 303 q 194 289 194 296 q 210 185 196 229 q 260 115 225 140 q 354 90 294 90 q 433 111 399 90 q 489 139 467 132 q 520 137 504 144 q 549 115 536 129 q 564 85 561 100 q 563 41 572 53 q 547 26 554 29 q 472 1 524 17 q 354 -14 419 -14 m 210 400 q 409 422 354 401 q 463 486 464 442 q 450 548 461 519 q 415 594 439 576 q 354 611 392 611 q 260 585 294 611 q 211 514 226 558 q 194 414 196 469 q 199 404 194 408 q 210 400 203 400 m 569 1003 q 578 980 576 993 q 576 955 579 967 q 561 936 572 943 q 465 877 506 903 q 381 818 425 851 q 328 818 354 797 q 238 890 283 851 q 147 950 192 928 q 131 974 132 958 q 139 1003 129 989 l 139 1004 q 163 1022 149 1019 q 192 1015 178 1025 q 268 969 231 992 q 344 922 306 946 q 354 919 350 919 q 364 922 358 919 q 432 976 400 947 q 503 1029 464 1006 q 539 1029 518 1039 q 569 1004 560 1019 l 569 1003 z "},"ê":{"ha":671,"x_min":69,"x_max":601,"o":"m 354 -14 q 216 16 271 -14 q 128 94 161 46 q 83 201 96 143 q 69 313 69 258 l 69 347 q 83 464 69 401 q 128 582 96 526 q 216 673 161 638 q 354 708 271 708 q 478 685 431 708 q 553 626 526 661 q 591 553 581 590 q 601 489 601 517 q 574 400 601 435 q 503 346 547 365 q 406 317 458 326 q 301 305 353 307 q 208 303 249 303 q 198 299 201 303 q 194 289 194 296 q 210 185 196 229 q 260 115 225 140 q 354 90 294 90 q 433 111 399 90 q 489 139 467 132 q 520 137 504 144 q 549 115 536 129 q 564 85 561 100 q 563 41 572 53 q 547 26 554 29 q 472 1 524 17 q 354 -14 419 -14 m 210 400 q 409 422 354 401 q 463 486 464 442 q 450 548 461 519 q 415 594 439 576 q 354 611 392 611 q 260 585 294 611 q 211 514 226 558 q 194 414 196 469 q 199 404 194 408 q 210 400 203 400 m 575 876 q 585 847 590 868 q 569 810 579 825 l 569 808 q 551 794 564 799 q 526 790 539 789 q 503 797 513 792 q 440 838 468 818 q 381 879 413 858 q 328 879 354 897 q 269 838 297 858 q 206 797 240 818 q 170 791 192 788 q 139 808 149 794 l 138 810 q 123 840 128 825 q 133 863 118 854 q 200 900 164 878 q 271 947 236 922 q 328 994 306 972 q 353 1006 340 1006 q 381 994 367 1006 q 478 931 425 961 q 575 876 531 900 z "},"ë":{"ha":671,"x_min":69,"x_max":601,"o":"m 354 -14 q 216 16 271 -14 q 128 94 161 46 q 83 201 96 143 q 69 313 69 258 l 69 347 q 83 464 69 401 q 128 582 96 526 q 216 673 161 638 q 354 708 271 708 q 478 685 431 708 q 553 626 526 661 q 591 553 581 590 q 601 489 601 517 q 574 400 601 435 q 503 346 547 365 q 406 317 458 326 q 301 305 353 307 q 208 303 249 303 q 198 299 201 303 q 194 289 194 296 q 210 185 196 229 q 260 115 225 140 q 354 90 294 90 q 433 111 399 90 q 489 139 467 132 q 520 137 504 144 q 549 115 536 129 q 564 85 561 100 q 563 41 572 53 q 547 26 554 29 q 472 1 524 17 q 354 -14 419 -14 m 210 400 q 409 422 354 401 q 463 486 464 442 q 450 548 461 519 q 415 594 439 576 q 354 611 392 611 q 260 585 294 611 q 211 514 226 558 q 194 414 196 469 q 199 404 194 408 q 210 400 203 400 m 229 826 q 167 851 192 826 q 142 914 142 876 q 167 975 142 950 q 229 1000 192 1000 q 290 975 265 1000 q 315 914 315 950 q 290 851 315 876 q 229 826 265 826 m 479 840 q 417 865 442 840 q 392 928 392 890 q 417 989 392 964 q 479 1014 442 1014 q 540 989 515 1014 q 565 928 565 964 q 540 865 565 890 q 479 840 515 840 z "},"ė":{"ha":671,"x_min":69,"x_max":601,"o":"m 354 -14 q 216 16 271 -14 q 128 94 161 46 q 83 201 96 143 q 69 313 69 258 l 69 347 q 83 464 69 401 q 128 582 96 526 q 216 673 161 638 q 354 708 271 708 q 478 685 431 708 q 553 626 526 661 q 591 553 581 590 q 601 489 601 517 q 574 400 601 435 q 503 346 547 365 q 406 317 458 326 q 301 305 353 307 q 208 303 249 303 q 198 299 201 303 q 194 289 194 296 q 210 185 196 229 q 260 115 225 140 q 354 90 294 90 q 433 111 399 90 q 489 139 467 132 q 520 137 504 144 q 549 115 536 129 q 564 85 561 100 q 563 41 572 53 q 547 26 554 29 q 472 1 524 17 q 354 -14 419 -14 m 210 400 q 409 422 354 401 q 463 486 464 442 q 450 548 461 519 q 415 594 439 576 q 354 611 392 611 q 260 585 294 611 q 211 514 226 558 q 194 414 196 469 q 199 404 194 408 q 210 400 203 400 m 271 917 q 296 976 271 953 q 354 1000 321 1000 q 414 976 390 1000 q 438 917 438 953 q 414 858 438 883 q 354 833 390 833 q 296 858 321 833 q 271 917 271 883 z "},"è":{"ha":671,"x_min":69,"x_max":601,"o":"m 354 -14 q 216 16 271 -14 q 128 94 161 46 q 83 201 96 143 q 69 313 69 258 l 69 347 q 83 464 69 401 q 128 582 96 526 q 216 673 161 638 q 354 708 271 708 q 478 685 431 708 q 553 626 526 661 q 591 553 581 590 q 601 489 601 517 q 574 400 601 435 q 503 346 547 365 q 406 317 458 326 q 301 305 353 307 q 208 303 249 303 q 198 299 201 303 q 194 289 194 296 q 210 185 196 229 q 260 115 225 140 q 354 90 294 90 q 433 111 399 90 q 489 139 467 132 q 520 137 504 144 q 549 115 536 129 q 564 85 561 100 q 563 41 572 53 q 547 26 554 29 q 472 1 524 17 q 354 -14 419 -14 m 210 400 q 409 422 354 401 q 463 486 464 442 q 450 548 461 519 q 415 594 439 576 q 354 611 392 611 q 260 585 294 611 q 211 514 226 558 q 194 414 196 469 q 199 404 194 408 q 210 400 203 400 m 460 901 q 489 867 478 890 q 489 826 500 844 l 488 824 q 455 808 478 806 q 413 821 432 810 q 331 866 372 844 q 250 901 290 888 q 231 919 236 907 q 226 948 225 932 q 233 976 226 964 l 240 988 q 269 1019 251 1007 q 301 1017 286 1032 q 387 949 353 971 q 460 901 421 926 z "},"ē":{"ha":671,"x_min":69,"x_max":646,"o":"m 354 -14 q 216 16 271 -14 q 128 94 161 46 q 83 201 96 143 q 69 313 69 258 l 69 347 q 83 464 69 401 q 128 582 96 526 q 216 673 161 638 q 354 708 271 708 q 478 685 431 708 q 553 626 526 661 q 591 553 581 590 q 601 489 601 517 q 574 400 601 435 q 503 346 547 365 q 406 317 458 326 q 301 305 353 307 q 208 303 249 303 q 198 299 201 303 q 194 289 194 296 q 210 185 196 229 q 260 115 225 140 q 354 90 294 90 q 433 111 399 90 q 489 139 467 132 q 520 137 504 144 q 549 115 536 129 q 564 85 561 100 q 563 41 572 53 q 547 26 554 29 q 472 1 524 17 q 354 -14 419 -14 m 210 400 q 409 422 354 401 q 463 486 464 442 q 450 548 461 519 q 415 594 439 576 q 354 611 392 611 q 260 585 294 611 q 211 514 226 558 q 194 414 196 469 q 199 404 194 408 q 210 400 203 400 m 646 926 q 637 899 646 913 q 615 876 628 885 q 588 868 601 867 q 121 868 354 889 q 88 886 100 867 q 76 926 76 906 l 76 928 q 88 960 76 949 q 121 972 100 972 q 354 974 238 972 q 588 986 471 976 q 615 978 601 988 q 637 956 628 969 q 646 928 646 942 l 646 926 z "},"ę":{"ha":671,"x_min":69,"x_max":601,"o":"m 354 -14 q 216 16 271 -14 q 128 94 161 46 q 83 201 96 143 q 69 313 69 258 l 69 347 q 83 464 69 401 q 128 582 96 526 q 216 673 161 638 q 354 708 271 708 q 478 685 431 708 q 553 626 526 661 q 591 553 581 590 q 601 489 601 517 q 574 400 601 435 q 503 346 547 365 q 406 317 458 326 q 301 305 353 307 q 208 303 249 303 q 198 299 201 303 q 194 289 194 296 q 210 185 196 229 q 260 115 225 140 q 354 90 294 90 q 433 111 399 90 q 489 139 467 132 q 520 137 504 144 q 549 115 536 129 q 564 85 561 100 q 563 41 572 53 q 547 26 554 29 q 472 1 524 17 q 354 -14 419 -14 m 210 400 q 409 422 354 401 q 463 486 464 442 q 450 548 461 519 q 415 594 439 576 q 354 611 392 611 q 260 585 294 611 q 211 514 226 558 q 194 414 196 469 q 199 404 194 408 q 210 400 203 400 m 515 -196 q 441 -178 472 -196 q 394 -131 410 -161 q 386 -64 379 -101 q 404 -19 392 -39 q 438 17 417 1 q 490 40 460 32 l 533 53 l 547 26 q 529 19 547 26 q 494 -8 511 11 q 476 -64 476 -28 q 490 -96 476 -86 q 523 -108 504 -106 q 556 -110 542 -110 q 577 -115 567 -110 q 588 -135 588 -119 q 563 -183 588 -169 q 515 -196 539 -196 z "},"ẽ":{"ha":671,"x_min":69,"x_max":601,"o":"m 354 -14 q 216 16 271 -14 q 128 94 161 46 q 83 201 96 143 q 69 313 69 258 l 69 347 q 83 464 69 401 q 128 582 96 526 q 216 673 161 638 q 354 708 271 708 q 478 685 431 708 q 553 626 526 661 q 591 553 581 590 q 601 489 601 517 q 574 400 601 435 q 503 346 547 365 q 406 317 458 326 q 301 305 353 307 q 208 303 249 303 q 198 299 201 303 q 194 289 194 296 q 210 185 196 229 q 260 115 225 140 q 354 90 294 90 q 433 111 399 90 q 489 139 467 132 q 520 137 504 144 q 549 115 536 129 q 564 85 561 100 q 563 41 572 53 q 547 26 554 29 q 472 1 524 17 q 354 -14 419 -14 m 210 400 q 409 422 354 401 q 463 486 464 442 q 450 548 461 519 q 415 594 439 576 q 354 611 392 611 q 260 585 294 611 q 211 514 226 558 q 194 414 196 469 q 199 404 194 408 q 210 400 203 400 m 132 869 q 122 893 122 881 q 132 917 122 906 q 166 947 146 931 q 210 974 186 963 q 260 986 235 986 q 314 972 293 986 q 351 941 335 958 q 390 910 368 924 q 446 896 411 896 q 486 913 465 896 q 521 940 507 931 q 551 950 533 950 q 581 939 569 950 l 588 933 q 599 911 596 926 q 599 881 601 896 q 589 858 597 867 q 524 819 567 836 q 446 801 482 801 q 390 815 411 801 q 351 847 368 829 q 315 878 335 864 q 260 892 294 892 q 221 881 242 892 q 185 860 200 871 q 160 851 172 850 q 138 863 149 851 l 132 869 z "},"ə":{"ha":674,"x_min":69,"x_max":604,"o":"m 319 708 q 492 666 431 708 q 579 557 554 624 q 604 417 604 490 l 604 278 q 579 138 604 206 q 492 28 554 71 q 319 -14 431 -14 q 194 11 243 -14 q 119 78 146 36 q 81 172 92 119 q 69 278 69 224 l 69 340 q 83 378 69 365 q 121 392 96 392 l 451 392 q 462 396 458 392 q 465 406 465 400 q 453 510 465 465 q 411 579 442 554 q 319 604 381 604 q 241 583 275 604 q 185 556 207 563 q 153 558 169 550 q 126 580 138 565 q 110 610 114 594 q 111 653 101 642 q 126 668 121 665 q 203 694 150 679 q 319 708 256 708 m 465 286 q 451 294 465 294 l 222 294 q 213 291 217 294 q 208 281 208 288 l 208 278 q 216 183 208 228 q 248 111 224 139 q 319 83 272 83 q 413 111 382 83 q 455 183 444 139 q 465 278 465 228 l 465 286 z "},"f":{"ha":403,"x_min":28,"x_max":439,"o":"m 182 -14 q 140 -6 160 -14 q 108 18 119 3 q 97 54 96 33 q 106 185 103 119 q 110 319 108 251 q 111 453 111 386 q 111 583 111 519 q 108 594 111 590 q 97 597 104 597 q 59 603 75 597 q 35 619 43 608 q 28 644 28 629 q 43 682 28 669 q 97 694 58 694 q 108 699 104 694 q 111 708 111 703 q 113 794 111 753 q 124 869 115 835 q 153 931 133 904 q 206 972 172 957 q 292 986 239 986 q 390 974 347 986 q 425 952 411 968 q 432 915 439 936 q 403 879 425 893 q 363 871 382 865 q 347 881 353 874 q 319 889 342 889 q 269 869 283 889 q 252 810 254 850 q 250 710 250 771 q 254 699 250 703 q 264 694 258 694 q 310 699 288 696 q 356 701 333 701 q 391 685 379 701 q 403 644 403 669 q 391 606 403 622 q 356 590 379 590 q 310 593 333 590 q 264 597 288 596 q 254 594 258 597 q 250 583 250 590 q 250 453 250 519 q 251 319 250 386 q 256 185 253 251 q 264 54 258 119 q 253 18 265 33 q 223 -6 242 3 q 182 -14 204 -14 z "},"g":{"ha":715,"x_min":69,"x_max":628,"o":"m 326 -292 q 229 -281 274 -292 q 157 -261 185 -271 q 131 -237 136 -253 q 129 -200 125 -221 q 153 -158 136 -171 q 192 -153 169 -144 q 249 -174 215 -160 q 326 -187 282 -187 q 418 -162 388 -187 q 460 -92 449 -137 q 472 13 472 -47 q 469 46 472 38 q 458 54 467 54 q 433 37 453 54 q 377 3 414 19 q 278 -14 340 -14 q 158 24 204 -14 q 90 135 111 63 q 69 313 69 208 l 69 347 q 83 464 69 401 q 128 582 96 526 q 216 673 161 638 q 354 708 271 708 q 469 699 421 708 q 558 674 518 689 q 607 644 586 664 q 625 596 628 625 q 617 447 619 521 q 613 298 614 372 q 611 149 611 224 q 611 0 611 75 q 598 -106 611 -54 q 552 -200 585 -158 q 465 -267 519 -242 q 326 -292 410 -292 m 313 104 q 389 128 353 104 q 449 191 425 151 q 472 278 472 231 q 476 428 472 353 q 485 576 481 503 q 483 587 486 583 q 472 592 479 590 q 426 599 457 594 q 354 604 394 604 q 278 579 307 604 q 233 514 249 554 q 213 429 218 474 q 208 347 208 385 l 208 313 q 231 156 208 207 q 313 104 254 104 z "},"ğ":{"ha":715,"x_min":69,"x_max":628,"o":"m 326 -292 q 229 -281 274 -292 q 157 -261 185 -271 q 131 -237 136 -253 q 129 -200 125 -221 q 153 -158 136 -171 q 192 -153 169 -144 q 249 -174 215 -160 q 326 -187 282 -187 q 418 -162 388 -187 q 460 -92 449 -137 q 472 13 472 -47 q 469 46 472 38 q 458 54 467 54 q 433 37 453 54 q 377 3 414 19 q 278 -14 340 -14 q 158 24 204 -14 q 90 135 111 63 q 69 313 69 208 l 69 347 q 83 464 69 401 q 128 582 96 526 q 216 673 161 638 q 354 708 271 708 q 469 699 421 708 q 558 674 518 689 q 607 644 586 664 q 625 596 628 625 q 617 447 619 521 q 613 298 614 372 q 611 149 611 224 q 611 0 611 75 q 598 -106 611 -54 q 552 -200 585 -158 q 465 -267 519 -242 q 326 -292 410 -292 m 313 104 q 389 128 353 104 q 449 191 425 151 q 472 278 472 231 q 476 428 472 353 q 485 576 481 503 q 483 587 486 583 q 472 592 479 590 q 426 599 457 594 q 354 604 394 604 q 278 579 307 604 q 233 514 249 554 q 213 429 218 474 q 208 347 208 385 l 208 313 q 231 156 208 207 q 313 104 254 104 m 175 1014 q 206 1003 194 1014 q 222 974 217 993 q 271 906 236 932 q 351 879 306 879 q 412 891 382 879 q 461 924 442 903 q 482 974 481 946 q 497 1010 483 993 q 529 1028 510 1028 l 531 1028 q 559 1019 546 1028 q 581 996 572 1010 q 588 967 589 982 q 550 874 583 917 q 465 807 517 832 q 351 782 413 782 q 251 807 297 782 q 174 874 206 832 q 131 967 142 917 q 139 1002 126 990 q 174 1014 151 1014 l 175 1014 z "},"ģ":{"ha":715,"x_min":69,"x_max":628,"o":"m 326 -292 q 229 -281 274 -292 q 157 -261 185 -271 q 131 -237 136 -253 q 129 -200 125 -221 q 153 -158 136 -171 q 192 -153 169 -144 q 249 -174 215 -160 q 326 -187 282 -187 q 418 -162 388 -187 q 460 -92 449 -137 q 472 13 472 -47 q 469 46 472 38 q 458 54 467 54 q 433 37 453 54 q 377 3 414 19 q 278 -14 340 -14 q 158 24 204 -14 q 90 135 111 63 q 69 313 69 208 l 69 347 q 83 464 69 401 q 128 582 96 526 q 216 673 161 638 q 354 708 271 708 q 469 699 421 708 q 558 674 518 689 q 607 644 586 664 q 625 596 628 625 q 617 447 619 521 q 613 298 614 372 q 611 149 611 224 q 611 0 611 75 q 598 -106 611 -54 q 552 -200 585 -158 q 465 -267 519 -242 q 326 -292 410 -292 m 313 104 q 389 128 353 104 q 449 191 425 151 q 472 278 472 231 q 476 428 472 353 q 485 576 481 503 q 483 587 486 583 q 472 592 479 590 q 426 599 457 594 q 354 604 394 604 q 278 579 307 604 q 233 514 249 554 q 213 429 218 474 q 208 347 208 385 l 208 313 q 231 156 208 207 q 313 104 254 104 m 368 764 q 308 785 335 764 q 265 847 281 806 q 250 944 250 888 q 288 1085 250 1032 q 396 1150 325 1138 q 426 1142 415 1153 q 438 1111 438 1131 l 438 1108 q 399 1065 438 1074 q 340 1000 340 1053 q 368 958 340 958 l 368 764 m 368 958 q 438 931 410 958 q 465 861 465 903 q 438 792 465 821 q 368 764 410 764 q 299 792 328 764 q 271 861 271 821 q 299 931 271 903 q 368 958 328 958 z "},"ġ":{"ha":715,"x_min":69,"x_max":628,"o":"m 326 -292 q 229 -281 274 -292 q 157 -261 185 -271 q 131 -237 136 -253 q 129 -200 125 -221 q 153 -158 136 -171 q 192 -153 169 -144 q 249 -174 215 -160 q 326 -187 282 -187 q 418 -162 388 -187 q 460 -92 449 -137 q 472 13 472 -47 q 469 46 472 38 q 458 54 467 54 q 433 37 453 54 q 377 3 414 19 q 278 -14 340 -14 q 158 24 204 -14 q 90 135 111 63 q 69 313 69 208 l 69 347 q 83 464 69 401 q 128 582 96 526 q 216 673 161 638 q 354 708 271 708 q 469 699 421 708 q 558 674 518 689 q 607 644 586 664 q 625 596 628 625 q 617 447 619 521 q 613 298 614 372 q 611 149 611 224 q 611 0 611 75 q 598 -106 611 -54 q 552 -200 585 -158 q 465 -267 519 -242 q 326 -292 410 -292 m 313 104 q 389 128 353 104 q 449 191 425 151 q 472 278 472 231 q 476 428 472 353 q 485 576 481 503 q 483 587 486 583 q 472 592 479 590 q 426 599 457 594 q 354 604 394 604 q 278 579 307 604 q 233 514 249 554 q 213 429 218 474 q 208 347 208 385 l 208 313 q 231 156 208 207 q 313 104 254 104 m 275 917 q 300 976 275 953 q 358 1000 325 1000 q 418 976 394 1000 q 442 917 442 953 q 418 858 442 883 q 358 833 394 833 q 300 858 325 833 q 275 917 275 883 z "},"ḡ":{"ha":715,"x_min":69,"x_max":650,"o":"m 326 -292 q 229 -281 274 -292 q 157 -261 185 -271 q 131 -237 136 -253 q 129 -200 125 -221 q 153 -158 136 -171 q 192 -153 169 -144 q 249 -174 215 -160 q 326 -187 282 -187 q 418 -162 388 -187 q 460 -92 449 -137 q 472 13 472 -47 q 469 46 472 38 q 458 54 467 54 q 433 37 453 54 q 377 3 414 19 q 278 -14 340 -14 q 158 24 204 -14 q 90 135 111 63 q 69 313 69 208 l 69 347 q 83 464 69 401 q 128 582 96 526 q 216 673 161 638 q 354 708 271 708 q 469 699 421 708 q 558 674 518 689 q 607 644 586 664 q 625 596 628 625 q 617 447 619 521 q 613 298 614 372 q 611 149 611 224 q 611 0 611 75 q 598 -106 611 -54 q 552 -200 585 -158 q 465 -267 519 -242 q 326 -292 410 -292 m 313 104 q 389 128 353 104 q 449 191 425 151 q 472 278 472 231 q 476 428 472 353 q 485 576 481 503 q 483 587 486 583 q 472 592 479 590 q 426 599 457 594 q 354 604 394 604 q 278 579 307 604 q 233 514 249 554 q 213 429 218 474 q 208 347 208 385 l 208 313 q 231 156 208 207 q 313 104 254 104 m 650 926 q 641 899 650 913 q 619 876 632 885 q 592 868 606 867 q 125 868 358 889 q 92 886 104 867 q 81 926 81 906 l 81 928 q 92 960 81 949 q 125 972 104 972 q 358 974 242 972 q 592 986 475 976 q 619 978 606 988 q 641 956 632 969 q 650 928 650 942 l 650 926 z "},"h":{"ha":750,"x_min":89,"x_max":663,"o":"m 175 -14 q 133 -6 153 -14 q 101 18 113 3 q 90 54 89 33 q 100 340 97 194 q 103 633 103 486 q 104 918 104 779 q 122 968 104 950 q 175 986 140 986 q 217 978 197 986 q 248 955 236 969 q 257 918 260 940 q 247 807 251 867 q 243 694 243 747 q 245 651 243 663 q 257 640 247 640 q 283 658 264 640 q 339 692 301 675 q 438 708 376 708 q 597 641 549 708 q 646 417 646 574 q 647 297 646 358 q 650 174 647 235 q 660 54 653 113 q 651 18 663 33 q 619 -6 639 3 q 578 -14 600 -14 q 535 -6 556 -14 q 502 18 514 3 q 493 54 490 33 q 503 174 500 113 q 506 297 506 235 q 507 417 507 358 q 497 528 507 488 q 465 587 488 569 q 403 604 442 604 q 327 577 364 604 q 267 507 290 550 q 243 417 243 464 q 244 297 243 358 q 247 174 244 235 q 257 54 250 113 q 248 18 260 33 q 217 -6 236 3 q 175 -14 197 -14 z "},"ħ":{"ha":750,"x_min":14,"x_max":663,"o":"m 175 -14 q 133 -6 153 -14 q 101 18 113 3 q 90 54 89 33 q 100 340 97 194 q 103 633 103 486 q 104 918 104 779 q 122 968 104 950 q 175 986 140 986 q 217 978 197 986 q 248 955 236 969 q 257 918 260 940 q 247 807 251 867 q 243 694 243 747 q 245 651 243 663 q 257 640 247 640 q 283 658 264 640 q 339 692 301 675 q 438 708 376 708 q 597 641 549 708 q 646 417 646 574 q 647 297 646 358 q 650 174 647 235 q 660 54 653 113 q 651 18 663 33 q 619 -6 639 3 q 578 -14 600 -14 q 535 -6 556 -14 q 502 18 514 3 q 493 54 490 33 q 503 174 500 113 q 506 297 506 235 q 507 417 507 358 q 497 528 507 488 q 465 587 488 569 q 403 604 442 604 q 327 577 364 604 q 267 507 290 550 q 243 417 243 464 q 244 297 243 358 q 247 174 244 235 q 257 54 250 113 q 248 18 260 33 q 217 -6 236 3 q 175 -14 197 -14 m 583 818 q 574 790 583 804 q 552 767 565 776 q 525 760 539 758 q 58 760 292 781 q 26 778 38 758 q 14 818 14 797 l 14 819 q 26 852 14 840 q 58 864 38 864 q 292 866 175 864 q 525 878 408 868 q 552 870 539 879 q 574 847 565 861 q 583 819 583 833 l 583 818 z "},"i":{"ha":375,"x_min":90,"x_max":285,"o":"m 189 -14 q 147 -6 167 -14 q 115 18 126 3 q 104 54 103 33 q 113 247 111 147 q 113 447 115 347 q 104 640 111 547 q 115 677 103 663 q 147 700 126 692 q 189 708 167 708 q 239 690 221 708 q 257 640 257 672 q 258 447 257 547 q 261 247 258 347 q 271 54 264 147 q 260 18 272 33 q 230 -6 249 3 q 189 -14 211 -14 m 188 806 q 139 819 161 806 q 103 854 117 832 q 90 903 90 876 q 103 952 90 931 q 139 987 117 974 q 188 1000 161 1000 q 237 987 215 1000 q 272 952 258 974 q 285 903 285 931 q 256 835 285 864 q 188 806 228 806 z "},"ı":{"ha":347,"x_min":89,"x_max":258,"o":"m 175 -14 q 133 -6 153 -14 q 101 18 113 3 q 90 54 89 33 q 99 247 97 147 q 99 447 101 347 q 90 640 97 547 q 101 677 89 663 q 133 700 113 692 q 175 708 153 708 q 225 690 207 708 q 243 640 243 672 q 244 447 243 547 q 247 247 244 347 q 257 54 250 147 q 247 18 258 33 q 216 -6 235 3 q 175 -14 197 -14 z "},"í":{"ha":347,"x_min":39,"x_max":308,"o":"m 175 -14 q 133 -6 153 -14 q 101 18 113 3 q 90 54 89 33 q 99 247 97 147 q 99 447 101 347 q 90 640 97 547 q 101 677 89 663 q 133 700 113 692 q 175 708 153 708 q 225 690 207 708 q 243 640 243 672 q 244 447 243 547 q 247 247 244 347 q 257 54 250 147 q 247 18 258 33 q 216 -6 235 3 q 175 -14 197 -14 m 107 825 q 76 818 92 814 q 50 840 61 822 l 49 843 q 42 874 39 860 q 61 900 44 889 q 142 954 101 926 q 224 1018 183 982 q 247 1028 233 1028 q 273 1023 260 1029 q 294 1004 286 1017 l 300 996 q 307 963 308 983 q 297 924 306 942 q 274 903 288 907 q 181 869 222 890 q 107 825 139 849 z "},"î":{"ha":347,"x_min":-62,"x_max":410,"o":"m 175 -14 q 133 -6 153 -14 q 101 18 113 3 q 90 54 89 33 q 99 247 97 147 q 99 447 101 347 q 90 640 97 547 q 101 677 89 663 q 133 700 113 692 q 175 708 153 708 q 225 690 207 708 q 243 640 243 672 q 244 447 243 547 q 247 247 244 347 q 257 54 250 147 q 247 18 258 33 q 216 -6 235 3 q 175 -14 197 -14 m 394 876 q 404 847 410 868 q 389 810 399 825 l 389 808 q 371 794 383 799 q 345 790 358 789 q 322 797 332 792 q 260 838 288 818 q 200 879 232 858 q 147 879 174 897 q 88 838 117 858 q 25 797 60 818 q -10 791 11 788 q -42 808 -32 794 l -43 810 q -58 840 -53 825 q -47 863 -62 854 q 19 900 -17 878 q 90 947 56 922 q 147 994 125 972 q 173 1006 160 1006 q 200 994 186 1006 q 297 931 244 961 q 394 876 350 900 z "},"ï":{"ha":347,"x_min":-39,"x_max":385,"o":"m 175 -14 q 133 -6 153 -14 q 101 18 113 3 q 90 54 89 33 q 99 247 97 147 q 99 447 101 347 q 90 640 97 547 q 101 677 89 663 q 133 700 113 692 q 175 708 153 708 q 225 690 207 708 q 243 640 243 672 q 244 447 243 547 q 247 247 244 347 q 257 54 250 147 q 247 18 258 33 q 216 -6 235 3 q 175 -14 197 -14 m 49 826 q -14 851 11 826 q -39 914 -39 876 q -14 975 -39 950 q 49 1000 11 1000 q 110 975 85 1000 q 135 914 135 950 q 110 851 135 876 q 49 826 85 826 m 299 840 q 236 865 261 840 q 211 928 211 890 q 236 989 211 964 q 299 1014 261 1014 q 360 989 335 1014 q 385 928 385 964 q 360 865 385 890 q 299 840 335 840 z "},"ì":{"ha":347,"x_min":44,"x_max":319,"o":"m 175 -14 q 133 -6 153 -14 q 101 18 113 3 q 90 54 89 33 q 99 247 97 147 q 99 447 101 347 q 90 640 97 547 q 101 677 89 663 q 133 700 113 692 q 175 708 153 708 q 225 690 207 708 q 243 640 243 672 q 244 447 243 547 q 247 247 244 347 q 257 54 250 147 q 247 18 258 33 q 216 -6 235 3 q 175 -14 197 -14 m 279 901 q 308 867 297 890 q 308 826 319 844 l 307 824 q 274 808 297 806 q 232 821 251 810 q 151 866 192 844 q 69 901 110 888 q 50 919 56 907 q 45 948 44 932 q 53 976 46 964 l 60 988 q 88 1019 71 1007 q 121 1017 106 1032 q 206 949 172 971 q 279 901 240 926 z "},"ī":{"ha":347,"x_min":-104,"x_max":465,"o":"m 175 -14 q 133 -6 153 -14 q 101 18 113 3 q 90 54 89 33 q 99 247 97 147 q 99 447 101 347 q 90 640 97 547 q 101 677 89 663 q 133 700 113 692 q 175 708 153 708 q 225 690 207 708 q 243 640 243 672 q 244 447 243 547 q 247 247 244 347 q 257 54 250 147 q 247 18 258 33 q 216 -6 235 3 q 175 -14 197 -14 m 465 926 q 456 899 465 913 q 434 876 447 885 q 407 868 421 867 q -60 868 174 889 q -92 886 -81 867 q -104 926 -104 906 l -104 928 q -92 960 -104 949 q -60 972 -81 972 q 174 974 57 972 q 407 986 290 976 q 434 978 421 988 q 456 956 447 969 q 465 928 465 942 l 465 926 z "},"į":{"ha":375,"x_min":74,"x_max":285,"o":"m 189 -14 q 147 -6 167 -14 q 115 18 126 3 q 104 54 103 33 q 113 247 111 147 q 113 447 115 347 q 104 640 111 547 q 115 677 103 663 q 147 700 126 692 q 189 708 167 708 q 239 690 221 708 q 257 640 257 672 q 258 447 257 547 q 261 247 258 347 q 271 54 264 147 q 260 18 272 33 q 230 -6 249 3 q 189 -14 211 -14 m 188 806 q 139 819 161 806 q 103 854 117 832 q 90 903 90 876 q 103 952 90 931 q 139 987 117 974 q 188 1000 161 1000 q 237 987 215 1000 q 272 952 258 974 q 285 903 285 931 q 256 835 285 864 q 188 806 228 806 m 210 -222 q 135 -205 167 -222 q 89 -158 104 -187 q 81 -90 74 -128 q 99 -45 86 -65 q 133 -10 111 -25 q 185 14 154 6 l 228 26 l 242 0 q 224 -8 242 0 q 188 -35 206 -15 q 171 -90 171 -54 q 185 -122 171 -112 q 217 -134 199 -132 q 250 -136 236 -136 q 272 -141 261 -136 q 282 -161 282 -146 q 258 -209 282 -196 q 210 -222 233 -222 z "},"ĩ":{"ha":347,"x_min":-58,"x_max":421,"o":"m 175 -14 q 133 -6 153 -14 q 101 18 113 3 q 90 54 89 33 q 99 247 97 147 q 99 447 101 347 q 90 640 97 547 q 101 677 89 663 q 133 700 113 692 q 175 708 153 708 q 225 690 207 708 q 243 640 243 672 q 244 447 243 547 q 247 247 244 347 q 257 54 250 147 q 247 18 258 33 q 216 -6 235 3 q 175 -14 197 -14 m -49 869 q -58 893 -58 881 q -49 917 -58 906 q -15 947 -35 931 q 30 974 6 963 q 79 986 54 986 q 133 972 113 986 q 171 941 154 958 q 209 910 188 924 q 265 896 231 896 q 306 913 285 896 q 340 940 326 931 q 371 950 353 950 q 400 939 389 950 l 407 933 q 418 911 415 926 q 419 881 421 896 q 408 858 417 867 q 344 819 386 836 q 265 801 301 801 q 209 815 231 801 q 171 847 188 829 q 134 878 154 864 q 79 892 114 892 q 40 881 61 892 q 4 860 19 871 q -20 851 -8 850 q -43 863 -32 851 l -49 869 z "},"ĳ":{"ha":735,"x_min":90,"x_max":644,"o":"m 189 -14 q 147 -6 167 -14 q 115 18 126 3 q 104 54 103 33 q 113 247 111 147 q 113 447 115 347 q 104 640 111 547 q 115 677 103 663 q 147 700 126 692 q 189 708 167 708 q 239 690 221 708 q 257 640 257 672 q 258 447 257 547 q 261 247 258 347 q 271 54 264 147 q 260 18 272 33 q 230 -6 249 3 q 189 -14 211 -14 m 188 806 q 139 819 161 806 q 103 854 117 832 q 90 903 90 876 q 103 952 90 931 q 139 987 117 974 q 188 1000 161 1000 q 237 987 215 1000 q 272 952 258 974 q 285 903 285 931 q 256 835 285 864 q 188 806 228 806 m 403 -292 q 362 -276 376 -290 q 347 -242 347 -262 q 362 -194 347 -215 q 403 -176 376 -172 q 457 -167 442 -183 q 476 -108 472 -150 q 479 0 479 -67 q 478 213 479 104 q 474 428 478 321 q 464 640 471 536 q 474 677 463 663 q 506 700 486 692 q 549 708 526 708 q 599 690 581 708 q 617 640 617 672 q 617 428 617 536 q 617 213 617 321 q 617 0 617 104 q 610 -115 617 -61 q 584 -210 604 -169 q 521 -273 564 -251 q 403 -292 478 -294 m 547 806 q 499 819 521 806 q 463 854 476 832 q 450 903 450 876 q 463 952 450 931 q 499 987 476 974 q 547 1000 521 1000 q 597 987 575 1000 q 631 952 618 974 q 644 903 644 931 q 631 854 644 876 q 597 819 618 832 q 547 806 575 806 z "},"j":{"ha":360,"x_min":-28,"x_max":269,"o":"m 28 -292 q -13 -276 1 -290 q -28 -242 -28 -262 q -13 -194 -28 -215 q 28 -176 1 -172 q 82 -167 67 -183 q 101 -108 97 -150 q 104 0 104 -67 q 103 213 104 104 q 99 428 103 321 q 89 640 96 536 q 99 677 88 663 q 131 700 111 692 q 174 708 151 708 q 224 690 206 708 q 242 640 242 672 q 242 428 242 536 q 242 213 242 321 q 242 0 242 104 q 235 -115 242 -61 q 209 -210 229 -169 q 146 -273 189 -251 q 28 -292 103 -294 m 172 806 q 124 819 146 806 q 88 854 101 832 q 75 903 75 876 q 88 952 75 931 q 124 987 101 974 q 172 1000 146 1000 q 222 987 200 1000 q 256 952 243 974 q 269 903 269 931 q 256 854 269 876 q 222 819 243 832 q 172 806 200 806 z "},"ȷ":{"ha":332,"x_min":-28,"x_max":242,"o":"m 28 -292 q -13 -276 1 -290 q -28 -242 -28 -262 q -21 -208 -28 -224 q -1 -183 -14 -192 q 28 -176 11 -174 q 82 -167 67 -183 q 101 -108 97 -150 q 104 0 104 -67 q 103 213 104 104 q 99 428 103 321 q 89 640 96 536 q 99 677 88 663 q 131 700 111 692 q 174 708 151 708 q 224 690 206 708 q 242 640 242 672 q 242 428 242 536 q 242 213 242 321 q 242 0 242 104 q 235 -115 242 -61 q 209 -210 229 -169 q 146 -273 189 -251 q 28 -292 103 -294 z "},"k":{"ha":694,"x_min":89,"x_max":660,"o":"m 175 -14 q 133 -6 153 -14 q 101 18 113 3 q 90 54 89 33 q 99 340 97 194 q 99 633 101 486 q 90 918 97 779 q 101 955 89 940 q 133 978 113 969 q 175 986 153 986 q 225 968 207 986 q 243 918 243 950 q 231 656 233 790 q 229 393 229 522 q 235 382 229 383 q 246 388 240 381 q 357 521 307 454 q 440 654 407 588 q 478 693 453 678 q 551 708 504 708 q 580 699 569 708 q 592 676 590 690 q 590 645 594 663 q 571 611 585 628 l 422 428 q 426 410 413 415 q 530 328 485 385 q 606 199 575 271 q 654 57 638 128 q 649 19 660 35 q 619 -6 639 3 q 576 -14 599 -14 q 524 3 542 -14 q 503 53 507 19 q 476 165 496 110 q 426 265 457 221 q 356 329 396 310 q 336 324 344 333 l 249 215 q 243 199 243 208 l 243 54 q 225 4 243 22 q 175 -14 207 -14 z "},"ķ":{"ha":694,"x_min":89,"x_max":660,"o":"m 175 -14 q 133 -6 153 -14 q 101 18 113 3 q 90 54 89 33 q 99 340 97 194 q 99 633 101 486 q 90 918 97 779 q 101 955 89 940 q 133 978 113 969 q 175 986 153 986 q 225 968 207 986 q 243 918 243 950 q 231 656 233 790 q 229 393 229 522 q 235 382 229 383 q 246 388 240 381 q 357 521 307 454 q 440 654 407 588 q 478 693 453 678 q 551 708 504 708 q 580 699 569 708 q 592 676 590 690 q 590 645 594 663 q 571 611 585 628 l 422 428 q 426 410 413 415 q 530 328 485 385 q 606 199 575 271 q 654 57 638 128 q 649 19 660 35 q 619 -6 639 3 q 576 -14 599 -14 q 524 3 542 -14 q 503 53 507 19 q 476 165 496 110 q 426 265 457 221 q 356 329 396 310 q 336 324 344 333 l 249 215 q 243 199 243 208 l 243 54 q 225 4 243 22 q 175 -14 207 -14 m 332 -325 q 311 -340 326 -335 q 282 -346 296 -346 l 276 -346 q 253 -342 267 -346 q 231 -331 239 -339 q 228 -312 222 -324 q 273 -219 256 -258 q 307 -125 290 -179 q 329 -112 310 -117 q 373 -106 349 -108 q 413 -104 397 -104 l 422 -104 q 440 -108 435 -104 q 447 -120 446 -112 q 442 -139 447 -128 q 388 -232 411 -192 q 332 -325 364 -272 z "},"l":{"ha":408,"x_min":88,"x_max":339,"o":"m 283 -7 q 176 10 217 -11 q 117 73 136 32 q 92 167 97 114 q 92 278 88 221 q 101 490 99 382 q 105 706 104 599 q 106 918 106 814 q 124 968 106 950 q 176 986 142 986 q 218 978 199 986 q 249 955 238 969 q 258 918 261 940 q 239 706 244 814 q 232 490 233 599 q 231 278 231 382 q 235 179 231 213 q 252 135 240 146 q 283 125 264 125 q 324 106 308 126 q 339 46 339 85 q 322 8 339 21 q 283 -7 304 -6 z "},"ĺ":{"ha":408,"x_min":71,"x_max":340,"o":"m 283 -7 q 176 10 217 -11 q 117 73 136 32 q 92 167 97 114 q 92 278 88 221 q 101 490 99 382 q 105 706 104 599 q 106 918 106 814 q 124 968 106 950 q 176 986 142 986 q 218 978 199 986 q 249 955 238 969 q 258 918 261 940 q 239 706 244 814 q 232 490 233 599 q 231 278 231 382 q 235 179 231 213 q 252 135 240 146 q 283 125 264 125 q 324 106 308 126 q 339 46 339 85 q 322 8 339 21 q 283 -7 304 -6 m 139 1103 q 108 1096 124 1092 q 82 1118 93 1100 l 81 1121 q 74 1152 71 1138 q 93 1178 76 1167 q 174 1232 133 1204 q 256 1296 215 1260 q 278 1306 265 1306 q 305 1301 292 1307 q 326 1282 318 1294 l 332 1274 q 339 1240 340 1261 q 328 1202 338 1219 q 306 1181 319 1185 q 213 1147 254 1168 q 139 1103 171 1126 z "},"ľ":{"ha":461,"x_min":88,"x_max":463,"o":"m 283 -7 q 176 10 217 -11 q 117 73 136 32 q 92 167 97 114 q 92 278 88 221 q 101 490 99 382 q 105 706 104 599 q 106 918 106 814 q 124 968 106 950 q 176 986 142 986 q 218 978 199 986 q 249 955 238 969 q 258 918 261 940 q 239 706 244 814 q 232 490 233 599 q 231 278 231 382 q 235 179 231 213 q 252 135 240 146 q 283 125 264 125 q 324 106 308 126 q 339 46 339 85 q 322 8 339 21 q 283 -7 304 -6 m 339 946 q 349 968 339 960 q 372 981 358 976 q 399 986 386 986 l 401 986 q 428 981 414 986 q 452 968 442 976 q 461 946 463 960 l 450 721 q 434 692 449 703 q 401 681 419 681 l 399 681 q 369 692 386 681 q 350 721 351 703 l 339 946 z "},"ļ":{"ha":408,"x_min":74,"x_max":339,"o":"m 283 -7 q 176 10 217 -11 q 117 73 136 32 q 92 167 97 114 q 92 278 88 221 q 101 490 99 382 q 105 706 104 599 q 106 918 106 814 q 124 968 106 950 q 176 986 142 986 q 218 978 199 986 q 249 955 238 969 q 258 918 261 940 q 239 706 244 814 q 232 490 233 599 q 231 278 231 382 q 235 179 231 213 q 252 135 240 146 q 283 125 264 125 q 324 106 308 126 q 339 46 339 85 q 322 8 339 21 q 283 -7 304 -6 m 183 -325 q 163 -340 178 -335 q 133 -346 147 -346 l 128 -346 q 104 -342 118 -346 q 82 -331 90 -339 q 79 -312 74 -324 q 124 -219 107 -258 q 158 -125 142 -179 q 181 -112 161 -117 q 224 -106 200 -108 q 264 -104 249 -104 l 274 -104 q 292 -108 286 -104 q 298 -120 297 -112 q 293 -139 299 -128 q 239 -232 263 -192 q 183 -325 215 -272 z "},"ŀ":{"ha":549,"x_min":88,"x_max":535,"o":"m 438 329 q 368 357 396 329 q 340 426 340 385 q 368 495 340 467 q 438 524 396 524 q 506 495 478 524 q 535 426 535 467 q 506 357 535 385 q 438 329 478 329 m 283 -7 q 176 10 217 -11 q 117 73 136 32 q 92 167 97 114 q 92 278 88 221 q 101 490 99 382 q 105 706 104 599 q 106 918 106 814 q 124 968 106 950 q 176 986 142 986 q 218 978 199 986 q 249 955 238 969 q 258 918 261 940 q 239 706 244 814 q 232 490 233 599 q 231 278 231 382 q 235 179 231 213 q 252 135 240 146 q 283 125 264 125 q 324 106 308 126 q 339 46 339 85 q 322 8 339 21 q 283 -7 304 -6 z "},"ł":{"ha":449,"x_min":0,"x_max":379,"o":"m 15 317 q 1 356 1 332 q 15 394 0 381 q 156 522 85 454 q 296 660 226 590 q 328 675 311 675 q 360 660 346 675 l 364 656 q 379 617 379 642 q 364 578 379 592 q 224 449 294 518 q 85 311 154 381 q 53 297 71 297 q 21 311 36 297 l 15 317 m 310 -7 q 203 10 243 -11 q 143 73 163 32 q 119 167 124 114 q 118 278 114 221 q 128 490 125 382 q 131 706 131 599 q 132 918 132 814 q 150 968 132 950 q 203 986 168 986 q 244 978 225 986 q 276 955 264 969 q 285 918 288 940 q 265 706 271 814 q 258 490 260 599 q 257 278 257 382 q 262 179 257 213 q 278 135 267 146 q 310 125 290 125 q 350 106 335 126 q 365 46 365 85 q 348 8 365 21 q 310 -7 331 -6 z "},"m":{"ha":1153,"x_min":89,"x_max":1065,"o":"m 175 -14 q 133 -6 153 -14 q 101 18 113 3 q 90 54 89 33 q 99 252 97 151 q 99 454 101 353 q 90 651 97 556 q 109 687 89 675 q 156 699 129 699 q 189 688 178 699 q 206 654 200 676 q 214 629 208 640 q 229 618 219 618 q 253 632 238 618 q 295 663 269 646 q 356 694 321 681 q 438 708 392 708 q 531 693 492 708 q 594 644 569 678 q 611 626 604 633 q 625 618 618 618 q 653 632 636 618 q 697 663 671 646 q 758 694 722 681 q 840 708 794 708 q 1000 641 951 708 q 1049 417 1049 574 q 1049 297 1049 358 q 1053 174 1050 235 q 1063 54 1056 113 q 1053 18 1065 33 q 1022 -6 1042 3 q 981 -14 1003 -14 q 938 -6 958 -14 q 905 18 917 3 q 896 54 893 33 q 906 174 903 113 q 909 297 908 235 q 910 417 910 358 q 887 563 910 522 q 806 604 864 604 q 730 577 767 604 q 669 507 693 550 q 646 417 646 464 q 647 297 646 358 q 650 174 647 235 q 660 54 653 113 q 651 18 663 33 q 619 -6 639 3 q 578 -14 600 -14 q 535 -6 556 -14 q 502 18 514 3 q 493 54 490 33 q 503 174 500 113 q 506 297 506 235 q 507 417 507 358 q 484 563 507 522 q 403 604 461 604 q 327 577 364 604 q 267 507 290 550 q 243 417 243 464 q 244 297 243 358 q 247 174 244 235 q 257 54 250 113 q 248 18 260 33 q 217 -6 236 3 q 175 -14 197 -14 z "},"n":{"ha":750,"x_min":89,"x_max":664,"o":"m 90 651 q 109 687 89 675 q 151 699 129 699 q 188 688 176 699 q 206 654 200 676 q 214 629 208 640 q 229 618 219 618 q 253 632 238 618 q 295 663 269 646 q 356 694 321 681 q 438 708 392 708 q 597 641 549 708 q 646 417 646 574 q 647 297 646 358 q 650 173 647 235 q 660 53 653 111 q 638 3 664 21 q 579 -14 611 -14 q 516 3 543 -14 q 493 53 489 21 q 503 173 500 111 q 506 297 506 235 q 507 417 507 358 q 484 563 507 522 q 403 604 461 604 q 327 577 364 604 q 267 507 290 550 q 243 417 243 464 q 244 297 243 358 q 247 173 244 235 q 257 53 250 111 q 235 3 261 21 q 176 -14 208 -14 q 115 3 140 -14 q 90 53 89 21 q 99 251 97 150 q 99 453 101 351 q 90 651 97 556 z "},"ń":{"ha":750,"x_min":89,"x_max":664,"o":"m 90 651 q 109 687 89 675 q 151 699 129 699 q 188 688 176 699 q 206 654 200 676 q 214 629 208 640 q 229 618 219 618 q 253 632 238 618 q 295 663 269 646 q 356 694 321 681 q 438 708 392 708 q 597 641 549 708 q 646 417 646 574 q 647 297 646 358 q 650 173 647 235 q 660 53 653 111 q 638 3 664 21 q 579 -14 611 -14 q 516 3 543 -14 q 493 53 489 21 q 503 173 500 111 q 506 297 506 235 q 507 417 507 358 q 484 563 507 522 q 403 604 461 604 q 327 577 364 604 q 267 507 290 550 q 243 417 243 464 q 244 297 243 358 q 247 173 244 235 q 257 53 250 111 q 235 3 261 21 q 176 -14 208 -14 q 115 3 140 -14 q 90 53 89 21 q 99 251 97 150 q 99 453 101 351 q 90 651 97 556 m 308 825 q 278 818 293 814 q 251 840 263 822 l 250 843 q 243 874 240 860 q 263 900 246 889 q 344 954 303 926 q 425 1018 385 982 q 448 1028 435 1028 q 474 1023 461 1029 q 496 1004 488 1017 l 501 996 q 508 963 510 983 q 498 924 507 942 q 475 903 489 907 q 382 869 424 890 q 308 825 340 849 z "},"ň":{"ha":750,"x_min":89,"x_max":664,"o":"m 90 651 q 109 687 89 675 q 151 699 129 699 q 188 688 176 699 q 206 654 200 676 q 214 629 208 640 q 229 618 219 618 q 253 632 238 618 q 295 663 269 646 q 356 694 321 681 q 438 708 392 708 q 597 641 549 708 q 646 417 646 574 q 647 297 646 358 q 650 173 647 235 q 660 53 653 111 q 638 3 664 21 q 579 -14 611 -14 q 516 3 543 -14 q 493 53 489 21 q 503 173 500 111 q 506 297 506 235 q 507 417 507 358 q 484 563 507 522 q 403 604 461 604 q 327 577 364 604 q 267 507 290 550 q 243 417 243 464 q 244 297 243 358 q 247 173 244 235 q 257 53 250 111 q 235 3 261 21 q 176 -14 208 -14 q 115 3 140 -14 q 90 53 89 21 q 99 251 97 150 q 99 453 101 351 q 90 651 97 556 m 590 1003 q 599 980 597 993 q 597 955 600 967 q 582 936 593 943 q 486 877 526 903 q 401 818 446 851 q 349 818 375 797 q 258 890 304 851 q 168 950 213 928 q 151 974 153 958 q 160 1003 150 989 l 160 1004 q 184 1022 169 1019 q 213 1015 199 1025 q 289 969 251 992 q 365 922 326 946 q 375 919 371 919 q 385 922 379 919 q 453 976 421 947 q 524 1029 485 1006 q 560 1029 539 1039 q 590 1004 581 1019 l 590 1003 z "},"ņ":{"ha":750,"x_min":89,"x_max":664,"o":"m 90 651 q 109 687 89 675 q 151 699 129 699 q 188 688 176 699 q 206 654 200 676 q 214 629 208 640 q 229 618 219 618 q 253 632 238 618 q 295 663 269 646 q 356 694 321 681 q 438 708 392 708 q 597 641 549 708 q 646 417 646 574 q 647 297 646 358 q 650 173 647 235 q 660 53 653 111 q 638 3 664 21 q 579 -14 611 -14 q 516 3 543 -14 q 493 53 489 21 q 503 173 500 111 q 506 297 506 235 q 507 417 507 358 q 484 563 507 522 q 403 604 461 604 q 327 577 364 604 q 267 507 290 550 q 243 417 243 464 q 244 297 243 358 q 247 173 244 235 q 257 53 250 111 q 235 3 261 21 q 176 -14 208 -14 q 115 3 140 -14 q 90 53 89 21 q 99 251 97 150 q 99 453 101 351 q 90 651 97 556 m 353 -325 q 332 -340 347 -335 q 303 -346 317 -346 l 297 -346 q 274 -342 288 -346 q 251 -331 260 -339 q 249 -312 243 -324 q 294 -219 276 -258 q 328 -125 311 -179 q 350 -112 331 -117 q 394 -106 369 -108 q 433 -104 418 -104 l 443 -104 q 461 -108 456 -104 q 467 -120 467 -112 q 463 -139 468 -128 q 408 -232 432 -192 q 353 -325 385 -272 z "},"ñ":{"ha":750,"x_min":89,"x_max":664,"o":"m 90 651 q 109 687 89 675 q 151 699 129 699 q 188 688 176 699 q 206 654 200 676 q 214 629 208 640 q 229 618 219 618 q 253 632 238 618 q 295 663 269 646 q 356 694 321 681 q 438 708 392 708 q 597 641 549 708 q 646 417 646 574 q 647 297 646 358 q 650 173 647 235 q 660 53 653 111 q 638 3 664 21 q 579 -14 611 -14 q 516 3 543 -14 q 493 53 489 21 q 503 173 500 111 q 506 297 506 235 q 507 417 507 358 q 484 563 507 522 q 403 604 461 604 q 327 577 364 604 q 267 507 290 550 q 243 417 243 464 q 244 297 243 358 q 247 173 244 235 q 257 53 250 111 q 235 3 261 21 q 176 -14 208 -14 q 115 3 140 -14 q 90 53 89 21 q 99 251 97 150 q 99 453 101 351 q 90 651 97 556 m 153 869 q 143 893 143 881 q 153 917 143 906 q 187 947 167 931 q 231 974 207 963 q 281 986 256 986 q 335 972 314 986 q 372 941 356 958 q 410 910 389 924 q 467 896 432 896 q 507 913 486 896 q 542 940 528 931 q 572 950 554 950 q 601 939 590 950 l 608 933 q 619 911 617 926 q 620 881 622 896 q 610 858 618 867 q 545 819 588 836 q 467 801 503 801 q 410 815 432 801 q 372 847 389 829 q 335 878 356 864 q 281 892 315 892 q 242 881 263 892 q 206 860 221 871 q 181 851 193 850 q 158 863 169 851 l 153 869 z "},"o":{"ha":708,"x_min":69,"x_max":639,"o":"m 639 313 q 626 201 639 258 q 580 94 613 143 q 492 16 547 46 q 354 -14 438 -14 q 216 16 271 -14 q 128 94 161 46 q 83 201 96 143 q 69 313 69 258 l 69 347 q 83 464 69 401 q 128 582 96 526 q 216 673 161 638 q 354 708 271 708 q 492 673 438 708 q 580 582 547 638 q 626 464 613 526 q 639 347 639 401 l 639 313 m 500 347 q 494 427 500 383 q 474 511 489 471 q 430 578 458 551 q 354 604 401 604 q 278 578 307 604 q 235 511 250 551 q 214 427 219 471 q 208 347 208 383 l 208 313 q 214 247 208 282 q 235 178 219 211 q 278 125 250 146 q 354 104 307 104 q 430 125 401 104 q 474 178 458 146 q 494 247 489 211 q 500 313 500 282 l 500 347 z "},"ó":{"ha":708,"x_min":69,"x_max":639,"o":"m 639 313 q 626 201 639 258 q 580 94 613 143 q 492 16 547 46 q 354 -14 438 -14 q 216 16 271 -14 q 128 94 161 46 q 83 201 96 143 q 69 313 69 258 l 69 347 q 83 464 69 401 q 128 582 96 526 q 216 673 161 638 q 354 708 271 708 q 492 673 438 708 q 580 582 547 638 q 626 464 613 526 q 639 347 639 401 l 639 313 m 500 347 q 494 427 500 383 q 474 511 489 471 q 430 578 458 551 q 354 604 401 604 q 278 578 307 604 q 235 511 250 551 q 214 427 219 471 q 208 347 208 383 l 208 313 q 214 247 208 282 q 235 178 219 211 q 278 125 250 146 q 354 104 307 104 q 430 125 401 104 q 474 178 458 146 q 494 247 489 211 q 500 313 500 282 l 500 347 m 288 825 q 257 818 272 814 q 231 840 242 822 l 229 843 q 222 874 219 860 q 242 900 225 889 q 323 954 282 926 q 404 1018 364 982 q 427 1028 414 1028 q 453 1023 440 1029 q 475 1004 467 1017 l 481 996 q 488 963 489 983 q 477 924 486 942 q 454 903 468 907 q 361 869 403 890 q 288 825 319 849 z "},"ô":{"ha":708,"x_min":69,"x_max":639,"o":"m 639 313 q 626 201 639 258 q 580 94 613 143 q 492 16 547 46 q 354 -14 438 -14 q 216 16 271 -14 q 128 94 161 46 q 83 201 96 143 q 69 313 69 258 l 69 347 q 83 464 69 401 q 128 582 96 526 q 216 673 161 638 q 354 708 271 708 q 492 673 438 708 q 580 582 547 638 q 626 464 613 526 q 639 347 639 401 l 639 313 m 500 347 q 494 427 500 383 q 474 511 489 471 q 430 578 458 551 q 354 604 401 604 q 278 578 307 604 q 235 511 250 551 q 214 427 219 471 q 208 347 208 383 l 208 313 q 214 247 208 282 q 235 178 219 211 q 278 125 250 146 q 354 104 307 104 q 430 125 401 104 q 474 178 458 146 q 494 247 489 211 q 500 313 500 282 l 500 347 m 575 876 q 585 847 590 868 q 569 810 579 825 l 569 808 q 551 794 564 799 q 526 790 539 789 q 503 797 513 792 q 440 838 468 818 q 381 879 413 858 q 328 879 354 897 q 269 838 297 858 q 206 797 240 818 q 170 791 192 788 q 139 808 149 794 l 138 810 q 123 840 128 825 q 133 863 118 854 q 200 900 164 878 q 271 947 236 922 q 328 994 306 972 q 353 1006 340 1006 q 381 994 367 1006 q 478 931 425 961 q 575 876 531 900 z "},"ö":{"ha":708,"x_min":69,"x_max":639,"o":"m 639 313 q 626 201 639 258 q 580 94 613 143 q 492 16 547 46 q 354 -14 438 -14 q 216 16 271 -14 q 128 94 161 46 q 83 201 96 143 q 69 313 69 258 l 69 347 q 83 464 69 401 q 128 582 96 526 q 216 673 161 638 q 354 708 271 708 q 492 673 438 708 q 580 582 547 638 q 626 464 613 526 q 639 347 639 401 l 639 313 m 500 347 q 494 427 500 383 q 474 511 489 471 q 430 578 458 551 q 354 604 401 604 q 278 578 307 604 q 235 511 250 551 q 214 427 219 471 q 208 347 208 383 l 208 313 q 214 247 208 282 q 235 178 219 211 q 278 125 250 146 q 354 104 307 104 q 430 125 401 104 q 474 178 458 146 q 494 247 489 211 q 500 313 500 282 l 500 347 m 229 826 q 167 851 192 826 q 142 914 142 876 q 167 975 142 950 q 229 1000 192 1000 q 290 975 265 1000 q 315 914 315 950 q 290 851 315 876 q 229 826 265 826 m 479 840 q 417 865 442 840 q 392 928 392 890 q 417 989 392 964 q 479 1014 442 1014 q 540 989 515 1014 q 565 928 565 964 q 540 865 565 890 q 479 840 515 840 z "},"ò":{"ha":708,"x_min":69,"x_max":639,"o":"m 639 313 q 626 201 639 258 q 580 94 613 143 q 492 16 547 46 q 354 -14 438 -14 q 216 16 271 -14 q 128 94 161 46 q 83 201 96 143 q 69 313 69 258 l 69 347 q 83 464 69 401 q 128 582 96 526 q 216 673 161 638 q 354 708 271 708 q 492 673 438 708 q 580 582 547 638 q 626 464 613 526 q 639 347 639 401 l 639 313 m 500 347 q 494 427 500 383 q 474 511 489 471 q 430 578 458 551 q 354 604 401 604 q 278 578 307 604 q 235 511 250 551 q 214 427 219 471 q 208 347 208 383 l 208 313 q 214 247 208 282 q 235 178 219 211 q 278 125 250 146 q 354 104 307 104 q 430 125 401 104 q 474 178 458 146 q 494 247 489 211 q 500 313 500 282 l 500 347 m 460 901 q 489 867 478 890 q 489 826 500 844 l 488 824 q 455 808 478 806 q 413 821 432 810 q 331 866 372 844 q 250 901 290 888 q 231 919 236 907 q 226 948 225 932 q 233 976 226 964 l 240 988 q 269 1019 251 1007 q 301 1017 286 1032 q 387 949 353 971 q 460 901 421 926 z "},"ő":{"ha":708,"x_min":69,"x_max":639,"o":"m 639 313 q 626 201 639 258 q 580 94 613 143 q 492 16 547 46 q 354 -14 438 -14 q 216 16 271 -14 q 128 94 161 46 q 83 201 96 143 q 69 313 69 258 l 69 347 q 83 464 69 401 q 128 582 96 526 q 216 673 161 638 q 354 708 271 708 q 492 673 438 708 q 580 582 547 638 q 626 464 613 526 q 639 347 639 401 l 639 313 m 500 347 q 494 427 500 383 q 474 511 489 471 q 430 578 458 551 q 354 604 401 604 q 278 578 307 604 q 235 511 250 551 q 214 427 219 471 q 208 347 208 383 l 208 313 q 214 247 208 282 q 235 178 219 211 q 278 125 250 146 q 354 104 307 104 q 430 125 401 104 q 474 178 458 146 q 494 247 489 211 q 500 313 500 282 l 500 347 m 303 808 q 280 791 297 797 q 249 785 263 785 l 243 785 q 210 795 225 785 q 204 824 196 806 q 256 931 232 878 q 297 1039 281 985 q 317 1053 300 1049 q 356 1060 335 1058 q 393 1063 378 1063 l 403 1063 q 424 1057 417 1063 q 432 1042 431 1051 q 426 1022 433 1033 q 365 915 396 969 q 303 808 335 861 m 476 808 q 453 791 471 797 q 422 785 436 785 l 417 785 q 384 795 399 785 q 378 824 369 806 q 432 931 406 878 q 485 1039 458 985 q 517 1057 492 1051 q 567 1063 543 1063 l 576 1063 q 601 1056 590 1063 q 617 1041 613 1050 q 614 1022 622 1032 q 540 915 572 969 q 476 808 508 861 z "},"ō":{"ha":708,"x_min":69,"x_max":646,"o":"m 639 313 q 626 201 639 258 q 580 94 613 143 q 492 16 547 46 q 354 -14 438 -14 q 216 16 271 -14 q 128 94 161 46 q 83 201 96 143 q 69 313 69 258 l 69 347 q 83 464 69 401 q 128 582 96 526 q 216 673 161 638 q 354 708 271 708 q 492 673 438 708 q 580 582 547 638 q 626 464 613 526 q 639 347 639 401 l 639 313 m 500 347 q 494 427 500 383 q 474 511 489 471 q 430 578 458 551 q 354 604 401 604 q 278 578 307 604 q 235 511 250 551 q 214 427 219 471 q 208 347 208 383 l 208 313 q 214 247 208 282 q 235 178 219 211 q 278 125 250 146 q 354 104 307 104 q 430 125 401 104 q 474 178 458 146 q 494 247 489 211 q 500 313 500 282 l 500 347 m 646 926 q 637 899 646 913 q 615 876 628 885 q 588 868 601 867 q 121 868 354 889 q 88 886 100 867 q 76 926 76 906 l 76 928 q 88 960 76 949 q 121 972 100 972 q 354 974 238 972 q 588 986 471 976 q 615 978 601 988 q 637 956 628 969 q 646 928 646 942 l 646 926 z "},"ø":{"ha":681,"x_min":14,"x_max":660,"o":"m 38 42 q 21 66 28 51 q 14 96 14 81 q 24 119 14 111 q 212 294 118 207 q 397 469 306 382 q 576 644 489 557 q 609 667 592 660 q 640 658 626 674 l 644 654 q 660 615 660 640 q 644 576 660 590 q 460 401 550 489 q 281 222 369 313 q 106 38 193 132 q 74 23 92 22 q 42 38 57 24 l 38 42 m 639 313 q 626 201 639 258 q 580 94 613 143 q 492 16 547 46 q 354 -14 438 -14 q 216 16 271 -14 q 128 94 161 46 q 83 201 96 143 q 69 313 69 258 l 69 347 q 83 464 69 401 q 128 582 96 526 q 216 673 161 638 q 354 708 271 708 q 492 673 438 708 q 580 582 547 638 q 626 464 613 526 q 639 347 639 401 l 639 313 m 500 347 q 494 427 500 383 q 474 511 489 471 q 430 578 458 551 q 354 604 401 604 q 278 578 307 604 q 235 511 250 551 q 214 427 219 471 q 208 347 208 383 l 208 313 q 214 247 208 282 q 235 178 219 211 q 278 125 250 146 q 354 104 307 104 q 430 125 401 104 q 474 178 458 146 q 494 247 489 211 q 500 313 500 282 l 500 347 z "},"õ":{"ha":708,"x_min":69,"x_max":639,"o":"m 639 313 q 626 201 639 258 q 580 94 613 143 q 492 16 547 46 q 354 -14 438 -14 q 216 16 271 -14 q 128 94 161 46 q 83 201 96 143 q 69 313 69 258 l 69 347 q 83 464 69 401 q 128 582 96 526 q 216 673 161 638 q 354 708 271 708 q 492 673 438 708 q 580 582 547 638 q 626 464 613 526 q 639 347 639 401 l 639 313 m 500 347 q 494 427 500 383 q 474 511 489 471 q 430 578 458 551 q 354 604 401 604 q 278 578 307 604 q 235 511 250 551 q 214 427 219 471 q 208 347 208 383 l 208 313 q 214 247 208 282 q 235 178 219 211 q 278 125 250 146 q 354 104 307 104 q 430 125 401 104 q 474 178 458 146 q 494 247 489 211 q 500 313 500 282 l 500 347 m 132 869 q 122 893 122 881 q 132 917 122 906 q 166 947 146 931 q 210 974 186 963 q 260 986 235 986 q 314 972 293 986 q 351 941 335 958 q 390 910 368 924 q 446 896 411 896 q 486 913 465 896 q 521 940 507 931 q 551 950 533 950 q 581 939 569 950 l 588 933 q 599 911 596 926 q 599 881 601 896 q 589 858 597 867 q 524 819 567 836 q 446 801 482 801 q 390 815 411 801 q 351 847 368 829 q 315 878 335 864 q 260 892 294 892 q 221 881 242 892 q 185 860 200 871 q 160 851 172 850 q 138 863 149 851 l 132 869 z "}}}
